<?xml version="1.0" standalone="no"?>
<!DOCTYPE svg PUBLIC "-//W3C//DTD SVG 1.1//EN" "http://www.w3.org/Graphics/SVG/1.1/DTD/svg11.dtd" >
<svg xmlns="http://www.w3.org/2000/svg" xmlns:xlink="http://www.w3.org/1999/xlink" version="1.1">
<metadata>
Created by FontForge 20170731 at Wed Mar 16 00:19:05 2016
 By Aleksey,,,
Copyright (C) 1996, 2016 Hoefler &#38; Co. http://www.typography.com
</metadata>
<defs>
<font id="Whitney-LightItalic" horiz-adv-x="644" >
  <font-face 
    font-family="Whitney Light"
    font-weight="300"
    font-style="italic"
    font-stretch="normal"
    units-per-em="1000"
    panose-1="0 0 0 0 0 0 0 0 0 0"
    ascent="800"
    descent="-200"
    x-height="470"
    cap-height="690"
    bbox="-130 -257 1009 1014"
    underline-thickness="50"
    underline-position="-200"
    slope="-9"
    unicode-range="U+0020-FB04"
  />
<missing-glyph horiz-adv-x="500" 
d="M0 -200v1000h500v-1000h-500zM71 750l179 -390l179 390h-358zM450 676l-172 -376l172 -376v752zM50 -76l172 376l-172 376v-752zM250 240l-179 -390h358z" />
    <glyph glyph-name=".notdef" horiz-adv-x="500" 
d="M0 -200v1000h500v-1000h-500zM71 750l179 -390l179 390h-358zM450 676l-172 -376l172 -376v752zM50 -76l172 376l-172 376v-752zM250 240l-179 -390h358z" />
    <glyph glyph-name=".null" horiz-adv-x="0" 
 />
    <glyph glyph-name="nonmarkingreturn" horiz-adv-x="333" 
 />
    <glyph glyph-name="space" unicode=" " horiz-adv-x="220" 
 />
    <glyph glyph-name="exclam" unicode="!" horiz-adv-x="254" 
d="M227 690l-95 -506l-27 -5l65 511h57zM132 81l-13 -81h-59l13 81h59z" />
    <glyph glyph-name="quotedbl" unicode="&#x22;" horiz-adv-x="360" 
d="M203 676l-45 -166l-25 6l8 160h62zM359 676l-44 -166l-25 6l7 160h62z" />
    <glyph glyph-name="numbersign" unicode="#" horiz-adv-x="620" 
d="M405 226l52 224h-198l-52 -224h198zM354 -2l42 188h-198l-43 -193l-37 8l42 185h-110v40h119l50 224h-122l-7 40h139l42 188h39l-42 -188h198l43 193l37 -8l-42 -185h110v-40h-119l-50 -224h123l7 -40h-140l-42 -188h-39z" />
    <glyph glyph-name="dollar" unicode="$" horiz-adv-x="500" 
d="M150 512q0 -40 26 -69.5t87 -62.5l82 261q-21 3 -40 3q-73 0 -114 -35.5t-41 -96.5zM227 31q79 0 126.5 40.5t47.5 109.5q0 41 -26.5 72t-91.5 67l-90 -287q22 -2 34 -2zM225 -6q-16 0 -44 2l-38 -120l-36 8l37 118q-73 15 -129 47l7 46q64 -40 134 -56l94 300
q-74 40 -108 78t-34 94q0 75 55 122.5t144 47.5q26 0 50 -3l24 77l37 -9l-23 -73q43 -10 95 -31l-8 -46q-43 26 -99 38l-86 -272q78 -43 112 -83t34 -96q0 -87 -61 -138t-157 -51z" />
    <glyph glyph-name="percent" unicode="%" horiz-adv-x="810" 
d="M199 318q-56 0 -87.5 41t-31.5 110q0 53 19 101.5t51 77.5q39 36 85 36q57 0 88.5 -41.5t31.5 -109.5q0 -109 -66 -175q-40 -40 -90 -40zM173 -7l-41 8l291 367l247 315l41 -8l-262 -330zM200 354q32 0 59 27q53 53 53 155q0 54 -22 83t-56 29q-31 0 -57 -26
q-54 -54 -54 -157q0 -54 21.5 -82.5t55.5 -28.5zM608 -8q-57 0 -88.5 41.5t-31.5 109.5q0 109 65 174q41 41 91 41q56 0 87.5 -41t31.5 -110q0 -109 -66 -175q-40 -40 -89 -40zM609 28q31 0 57 26q54 54 54 157q0 54 -21.5 82.5t-55.5 28.5q-32 0 -58 -26q-54 -54 -54 -156
q0 -54 22 -83t56 -29z" />
    <glyph glyph-name="ampersand" unicode="&#x26;" horiz-adv-x="631" 
d="M213 29q116 0 208 128l-145 199q-192 -68 -192 -201q0 -58 36.5 -92t92.5 -34zM540 -6l-93 128q-105 -135 -238 -135q-75 0 -123.5 44.5t-48.5 120.5q0 157 214 237q-60 86 -60 154q0 71 48 115.5t122 44.5q71 0 138 -39l-9 -48q-70 45 -132 45q-54 0 -86.5 -32.5
t-32.5 -82.5q0 -60 55 -136l155 -212q53 89 89 206l46 -12q-44 -133 -109 -231l118 -161z" />
    <glyph glyph-name="quotesingle" unicode="'" horiz-adv-x="203" 
d="M203 676l-45 -166l-25 6l8 160h62z" />
    <glyph glyph-name="parenleft" unicode="(" horiz-adv-x="382" 
d="M396 681q-271 -162 -271 -428q0 -91 35.5 -170.5t114.5 -169.5l-41 -10q-78 86 -117 168t-39 176q0 148 77 265.5t249 214.5z" />
    <glyph glyph-name="parenright" unicode=")" horiz-adv-x="383" 
d="M13 -56q271 162 271 428q0 91 -35.5 170.5t-114.5 169.5l41 10q78 -86 117 -168t39 -176q0 -148 -77 -265.5t-249 -214.5z" />
    <glyph glyph-name="asterisk" unicode="*" horiz-adv-x="401" 
d="M393 581l-122 -50l70 -116l-11 -7l-87 104l-87 -104l-11 7l69 116l-121 50l4 13l128 -30l11 133h14l11 -133l128 30z" />
    <glyph glyph-name="plus" unicode="+" horiz-adv-x="568" 
d="M522 319h-203l-32 -205h-41l32 205h-204l6 38h204l32 205h41l-32 -205h203z" />
    <glyph glyph-name="comma" unicode="," horiz-adv-x="203" 
d="M122 81l-123 -214l-23 6l85 208h61z" />
    <glyph glyph-name="hyphen" unicode="-" horiz-adv-x="364" 
d="M313 307l-7 -50h-240l7 50h240z" />
    <glyph glyph-name="period" unicode="." horiz-adv-x="203" 
d="M107 81l-13 -81h-60l13 81h60z" />
    <glyph glyph-name="slash" unicode="/" horiz-adv-x="492" 
d="M543 685l-594 -806l-41 10l593 806z" />
    <glyph glyph-name="zero" unicode="0" horiz-adv-x="560" 
d="M254 -13q-90 0 -139.5 72.5t-49.5 191.5t33 216t91 155q67 67 150 67q90 0 139.5 -72.5t49.5 -191.5t-33 -216t-91 -155q-67 -67 -150 -67zM255 28q62 0 112 50q52 52 82.5 142.5t30.5 202.5q0 106 -37.5 165.5t-104.5 59.5q-62 0 -112 -50q-52 -52 -82.5 -142.5
t-30.5 -202.5q0 -106 37.5 -165.5t104.5 -59.5z" />
    <glyph glyph-name="one" unicode="1" horiz-adv-x="334" 
d="M298 680l-108 -680h-46l100 626l-155 -60v39l176 75h33z" />
    <glyph glyph-name="two" unicode="2" horiz-adv-x="504" 
d="M478 533q0 -62 -30.5 -114.5t-108.5 -128.5l-257 -249h325v-41h-395l5 32l293 285q64 63 91.5 111.5t27.5 101.5q0 54 -31.5 86t-88.5 32q-76 0 -182 -69v45q96 65 185 65q78 0 122 -42.5t44 -113.5z" />
    <glyph glyph-name="three" unicode="3" horiz-adv-x="489" 
d="M465 538q0 -135 -166 -182q123 -46 123 -161q0 -91 -63.5 -149.5t-158.5 -58.5q-96 0 -186 56l14 43q89 -59 174 -59q74 0 123 45.5t49 122.5q0 67 -46.5 104.5t-126.5 37.5h-23v41h17q100 0 161 40t61 115q0 53 -36.5 84t-92.5 31q-81 0 -171 -59v45q88 55 173 55
q78 0 126.5 -41.5t48.5 -109.5z" />
    <glyph glyph-name="four" unicode="4" horiz-adv-x="568" 
d="M527 204l-6 -38h-114l-27 -166h-43l27 166h-332l5 29l395 485h57l-76 -476h114zM369 204l68 425l-343 -425h275z" />
    <glyph glyph-name="five" unicode="5" horiz-adv-x="487" 
d="M474 637h-267l-51 -225q270 -32 270 -215q0 -95 -64.5 -152.5t-157.5 -57.5q-92 0 -183 47l14 42q89 -49 171 -49q75 0 124.5 45.5t49.5 121.5q0 81 -65.5 125t-209.5 56l67 301h302v-39z" />
    <glyph glyph-name="six" unicode="6" horiz-adv-x="527" 
d="M252 -13q-90 0 -140 62t-50 174q0 170 106.5 300.5t292.5 167.5v-44q-134 -27 -222.5 -112t-117.5 -204q98 69 192 69q76 0 121 -45.5t45 -128.5q0 -98 -67.5 -168.5t-159.5 -70.5zM254 27q73 0 124.5 58.5t51.5 138.5q0 64 -33 100t-90 36q-88 0 -195 -76q-3 -29 -3 -58
q0 -95 38.5 -147t106.5 -52z" />
    <glyph glyph-name="seven" unicode="7" horiz-adv-x="495" 
d="M512 676l-5 -30l-380 -653l-41 11l367 633h-337v39h396z" />
    <glyph glyph-name="eight" unicode="8" horiz-adv-x="520" 
d="M249 -12q-99 0 -155 49.5t-56 126.5q0 125 174 201q-97 57 -97 148q0 73 53.5 124.5t144.5 51.5q84 0 132.5 -44.5t48.5 -113.5q0 -63 -39 -105.5t-112 -75.5q123 -64 123 -171q0 -82 -63 -136.5t-154 -54.5zM163 514q0 -42 30.5 -76t107.5 -68q146 63 146 160
q0 54 -37.5 86t-98.5 32q-68 0 -108 -39.5t-40 -94.5zM251 28q68 0 117 42.5t49 107.5q0 52 -35 88.5t-130 78.5q-167 -72 -167 -181q0 -57 47 -96.5t119 -39.5z" />
    <glyph glyph-name="nine" unicode="9" horiz-adv-x="527" 
d="M98 -15v44q130 26 217.5 107.5t118.5 196.5q-96 -67 -188 -67q-77 0 -121.5 47t-44.5 132q0 100 67 172t160 72q90 0 140 -62t50 -174q0 -170 -106.5 -300.5t-292.5 -167.5zM252 306q88 0 193 75q5 38 5 69q0 95 -38.5 147t-106.5 52q-74 0 -125 -60t-51 -142
q0 -66 32.5 -103.5t90.5 -37.5z" />
    <glyph glyph-name="colon" unicode=":" horiz-adv-x="212" 
d="M172 470l-13 -80h-60l13 80h60zM113 81l-12 -81h-61l13 81h60z" />
    <glyph glyph-name="semicolon" unicode=";" horiz-adv-x="212" 
d="M177 470l-13 -80h-60l13 80h60zM118 81l-123 -214l-23 6l85 208h61z" />
    <glyph glyph-name="less" unicode="&#x3c;" horiz-adv-x="568" 
d="M467 94l-395 225l6 38l467 225l-8 -49l-413 -197l351 -198z" />
    <glyph glyph-name="equal" unicode="=" horiz-adv-x="615" 
d="M562 425h-455l7 43h455zM527 208h-455l7 43h455z" />
    <glyph glyph-name="greater" unicode="&#x3e;" horiz-adv-x="568" 
d="M135 582l395 -225l-6 -38l-466 -225l7 49l414 197l-352 198z" />
    <glyph glyph-name="question" unicode="?" horiz-adv-x="438" 
d="M172 178l18 170l20 8q94 37 139 84t45 111q0 52 -33.5 81.5t-87.5 29.5q-78 0 -173 -60v46q86 55 177 55q77 0 121 -40.5t44 -108.5q0 -80 -50 -131.5t-153 -100.5l-32 -137zM133 0l12 81h59l-13 -81h-58z" />
    <glyph glyph-name="at" unicode="@" horiz-adv-x="832" 
d="M373 -140q-151 0 -234.5 83.5t-83.5 238.5q0 193 117.5 317t293.5 124q148 0 229.5 -81.5t81.5 -222.5q0 -124 -52 -197t-126 -73q-52 0 -80.5 27.5t-29.5 74.5q-46 -52 -79.5 -76.5t-69.5 -24.5q-43 0 -71.5 36t-28.5 98q0 111 66 185t155 74q54 0 112 -29l-36 -213
q-5 -25 -5 -52q0 -32 17.5 -52t55.5 -20q60 0 102 64.5t42 176.5q0 132 -74 206t-212 74q-162 0 -270.5 -115.5t-108.5 -299.5q0 -145 77.5 -221.5t215.5 -76.5q125 0 214 47l4 -24q-93 -48 -222 -48zM349 89q29 0 60 25.5t85 89.5l33 184q-36 17 -70 17q-69 0 -121 -61
t-52 -158q0 -48 17.5 -72.5t47.5 -24.5z" />
    <glyph glyph-name="A" unicode="A" 
d="M525 -7l-52 243h-295l-125 -236h-51l375 694h39l154 -690zM387 627l-187 -350h264z" />
    <glyph glyph-name="B" unicode="B" horiz-adv-x="525" 
d="M486 536q0 -63 -38.5 -107t-99.5 -66q119 -46 119 -153q0 -96 -65.5 -153t-169.5 -57h-174l110 690h142q80 0 128 -40.5t48 -113.5zM437 534q0 54 -34.5 84t-98.5 30h-96l-42 -266h92q75 0 127 44t52 108zM418 209q0 61 -46 96.5t-123 35.5h-90l-48 -299h124q83 0 133 46
t50 121z" />
    <glyph glyph-name="C" unicode="C" horiz-adv-x="570" 
d="M575 645l-8 -54q-74 68 -162 68q-122 0 -204 -112t-82 -266q0 -115 55.5 -182.5t144.5 -67.5q91 0 178 59v-51q-88 -51 -182 -51q-107 0 -176.5 78t-69.5 215q0 170 97.5 295.5t237.5 125.5q98 0 171 -57z" />
    <glyph glyph-name="D" unicode="D" horiz-adv-x="642" 
d="M607 404q0 -183 -117 -300q-104 -104 -257 -104h-175l110 690h155q138 0 211 -76.5t73 -209.5zM557 404q0 114 -60.5 179t-179.5 65h-108l-97 -606h124q126 0 215 87q106 106 106 275z" />
    <glyph glyph-name="E" unicode="E" horiz-adv-x="476" 
d="M497 690l-7 -43h-282l-42 -264h222v-43h-229l-48 -297h293l-7 -43h-339l110 690h329z" />
    <glyph glyph-name="F" unicode="F" horiz-adv-x="447" 
d="M483 690l-7 -43h-268l-44 -275h214v-43h-221l-52 -329h-47l110 690h315z" />
    <glyph glyph-name="G" unicode="G" horiz-adv-x="625" 
d="M572 350l-50 -303q-96 -59 -195 -59q-115 0 -186.5 81t-71.5 210q0 111 43.5 208t122 156t172.5 59q104 0 176 -60l-9 -53q-75 70 -166 70q-81 0 -148 -52.5t-104 -139.5t-37 -188q0 -113 59.5 -181t151.5 -68q84 0 149 40l39 238h-175v42h229z" />
    <glyph glyph-name="H" unicode="H" horiz-adv-x="662" 
d="M639 690l-110 -690h-47l54 340h-377l-54 -340h-47l110 690h47l-49 -308h377l49 308h47z" />
    <glyph glyph-name="I" unicode="I" horiz-adv-x="254" 
d="M223 690l-110 -690h-47l110 690h47z" />
    <glyph glyph-name="J" unicode="J" horiz-adv-x="342" 
d="M324 690l-81 -514q-28 -182 -185 -182q-19 0 -62 8v45q37 -11 65 -11q57 0 90.5 34t45.5 108l80 512h47z" />
    <glyph glyph-name="K" unicode="K" horiz-adv-x="565" 
d="M598 690l-381 -324l293 -361l-51 -12l-297 368l-57 -361h-47l110 690h47l-51 -318l369 318h65z" />
    <glyph glyph-name="L" unicode="L" horiz-adv-x="438" 
d="M375 0h-317l110 690h47l-104 -647h264v-43z" />
    <glyph glyph-name="M" unicode="M" horiz-adv-x="867" 
d="M803 690l-54 -690h-45l50 617l-345 -621h-27l-149 621l-145 -617h-44l166 690h54l142 -618l338 618h59z" />
    <glyph glyph-name="N" unicode="N" horiz-adv-x="662" 
d="M639 690l-110 -690h-28l-302 608l-96 -608h-45l110 690h42l291 -591l93 591h45z" />
    <glyph glyph-name="O" unicode="O" horiz-adv-x="698" 
d="M326 -13q-117 0 -186.5 86.5t-69.5 217.5q0 96 34 179.5t94 143.5q89 89 209 89q117 0 186.5 -86.5t69.5 -217.5q0 -96 -34 -179.5t-94 -143.5q-89 -89 -209 -89zM328 30q97 0 174 77q111 111 111 292q0 116 -56.5 188.5t-151.5 72.5q-97 0 -174 -77q-111 -111 -111 -292
q0 -116 56.5 -188.5t151.5 -72.5z" />
    <glyph glyph-name="P" unicode="P" horiz-adv-x="504" 
d="M499 518q0 -98 -70.5 -158t-182.5 -60h-93l-48 -300h-47l110 690h136q93 0 144 -45.5t51 -126.5zM451 516q0 132 -153 132h-90l-49 -306h88q93 0 148.5 47.5t55.5 126.5z" />
    <glyph glyph-name="Q" unicode="Q" horiz-adv-x="698" 
d="M550 -146l-305 145q-175 84 -175 294q0 94 34 177.5t94 143.5q89 89 209 89q117 0 186.5 -86.5t69.5 -217.5q0 -193 -119 -312q-76 -76 -176 -96l191 -87zM328 29q96 0 174 78q111 111 111 292q0 116 -56.5 188.5t-151.5 72.5q-97 0 -174 -77q-111 -111 -111 -292
q0 -116 56.5 -189t151.5 -73z" />
    <glyph glyph-name="R" unicode="R" horiz-adv-x="534" 
d="M495 523q0 -81 -52 -136t-138 -69l177 -314l-48 -11l-181 318h-99l-49 -311h-47l110 690h128q94 0 146.5 -43.5t52.5 -123.5zM447 521q0 127 -156 127h-83l-47 -295h91q88 0 141.5 47.5t53.5 120.5z" />
    <glyph glyph-name="S" unicode="S" horiz-adv-x="479" 
d="M459 660l-8 -51q-72 49 -148 49q-67 0 -107 -40t-40 -97q0 -41 27 -73t92 -70q84 -49 116 -90.5t32 -102.5q0 -85 -62 -139.5t-155 -54.5q-100 0 -180 53l8 50q82 -62 176 -62q70 0 117.5 41.5t47.5 105.5q0 48 -24.5 80.5t-92.5 72.5q-85 50 -117 89t-32 96
q0 77 55 129.5t143 52.5q80 0 152 -39z" />
    <glyph glyph-name="T" unicode="T" horiz-adv-x="524" 
d="M567 647h-214l-103 -647h-47l103 647h-211l7 43h465v-43z" />
    <glyph glyph-name="U" unicode="U" horiz-adv-x="675" 
d="M661 690l-70 -444q-19 -119 -89.5 -187.5t-183.5 -68.5q-104 0 -166 59t-62 165q0 38 6 76l63 400h47l-65 -413q-5 -33 -5 -61q0 -86 48.5 -135.5t136.5 -49.5q93 0 149.5 57.5t73.5 163.5l70 438h47z" />
    <glyph glyph-name="V" unicode="V" horiz-adv-x="638" 
d="M670 690l-373 -694h-36l-151 690l45 11l134 -635l330 628h51z" />
    <glyph glyph-name="W" unicode="W" horiz-adv-x="985" 
d="M1009 690l-315 -690h-35l-107 618l-301 -618h-35l-95 686l48 11l79 -616l292 609h46l102 -609l271 609h50z" />
    <glyph glyph-name="X" unicode="X" horiz-adv-x="595" 
d="M468 -5l-158 330l-254 -325h-55l290 362l-160 322l48 10l142 -298l229 294h55l-263 -332l174 -353z" />
    <glyph glyph-name="Y" unicode="Y" horiz-adv-x="576" 
d="M617 690l-294 -393l-47 -297h-47l47 296l-169 391l47 10l151 -361l258 354h54z" />
    <glyph glyph-name="Z" unicode="Z" horiz-adv-x="568" 
d="M577 690l-5 -32l-482 -617h387v-41h-454l5 32l483 617h-360v41h426z" />
    <glyph glyph-name="bracketleft" unicode="[" horiz-adv-x="369" 
d="M392 690l-6 -37h-175l-115 -722h173v-37h-222l126 796h219z" />
    <glyph glyph-name="backslash" unicode="\" horiz-adv-x="492" 
d="M531 -113l-42 -9l-473 808l43 9z" />
    <glyph glyph-name="bracketright" unicode="]" horiz-adv-x="369" 
d="M340 690l-126 -796h-219l6 37h175l115 722h-173v37h222z" />
    <glyph glyph-name="asciicircum" unicode="^" horiz-adv-x="457" 
d="M404 553h-26l-86 95l-110 -95h-34l132 148h42z" />
    <glyph glyph-name="underscore" unicode="_" horiz-adv-x="467" 
d="M421 -66l-7 -39h-470l7 39h470z" />
    <glyph glyph-name="grave" unicode="`" horiz-adv-x="457" 
d="M355 552h-33l-116 140l70 15z" />
    <glyph glyph-name="a" unicode="a" horiz-adv-x="478" 
d="M338 164l44 256q-38 16 -83 16q-84 0 -146 -81t-62 -206q0 -58 19.5 -88.5t52.5 -30.5q29 0 66.5 29t108.5 105zM337 113q-60 -64 -100.5 -93.5t-77.5 -29.5q-54 0 -84.5 41.5t-30.5 114.5q0 138 76.5 234.5t185.5 96.5q63 0 125 -31l-50 -300v-146h-40z" />
    <glyph glyph-name="b" unicode="b" horiz-adv-x="479" 
d="M48 29l107 676l47 10l-54 -335q45 52 80.5 76t75.5 24q62 0 96.5 -47t34.5 -132q0 -133 -71.5 -220t-181.5 -87q-64 0 -134 35zM97 55q47 -21 91 -21q85 0 142.5 72t57.5 192q0 66 -24.5 104t-65.5 38q-31 0 -67 -27.5t-92 -92.5z" />
    <glyph glyph-name="c" unicode="c" horiz-adv-x="408" 
d="M389 440l-8 -48q-60 47 -112 47q-73 0 -125 -74.5t-52 -171.5q0 -77 34.5 -119.5t94.5 -42.5q54 0 118 45v-45q-57 -41 -122 -41q-77 0 -124.5 53.5t-47.5 147.5q0 117 66 203t160 86q63 0 118 -40z" />
    <glyph glyph-name="d" unicode="d" horiz-adv-x="481" 
d="M382 417q-46 19 -89 19q-86 0 -144 -72.5t-58 -191.5q0 -66 24.5 -104t65.5 -38q31 0 67 27.5t92 92.5zM474 715l-89 -567v-148h-40l-5 100q-51 -59 -87 -84.5t-78 -25.5q-62 0 -96.5 47t-34.5 132q0 133 71.5 220t179.5 87q47 0 94 -17l38 246z" />
    <glyph glyph-name="e" unicode="e" horiz-adv-x="439" 
d="M258 440q-50 0 -94.5 -44.5t-61.5 -119.5h248q9 78 -14.5 121t-77.5 43zM361 44q-75 -54 -148 -54q-81 0 -124.5 53t-43.5 144q0 129 65 211t150 82q67 0 103 -44t36 -125q0 -27 -7 -72h-297q-3 -24 -3 -50q0 -74 33 -116t91 -42q65 0 145 60v-47z" />
    <glyph glyph-name="f" unicode="f" horiz-adv-x="269" 
d="M324 665q-20 5 -43 5q-39 0 -58 -19.5t-25 -61.5l-19 -119h100v-39h-106l-95 -602l-47 -10l97 612h-73l5 39h74l20 127q17 115 127 115q23 0 43 -4v-43z" />
    <glyph glyph-name="g" unicode="g" horiz-adv-x="479" 
d="M382 415q-48 21 -91 21q-85 0 -142 -70.5t-57 -187.5q0 -64 24.5 -100.5t65.5 -36.5q31 0 66.5 28t92.5 92zM431 441l-69 -435q-14 -91 -64 -137.5t-130 -46.5q-69 0 -150 34l8 43q78 -35 147 -35q123 0 145 146l14 92q-45 -52 -80 -76.5t-75 -24.5q-62 0 -97 46t-35 128
q0 130 71 216t180 86q63 0 135 -36z" />
    <glyph glyph-name="h" unicode="h" horiz-adv-x="482" 
d="M429 376q0 -16 -4 -44l-53 -332h-46l53 334q4 28 4 40q0 30 -17 47t-49 17q-35 0 -75.5 -31.5t-105.5 -104.5l-47 -302h-46l112 705l47 10l-56 -351q53 58 94.5 87t80.5 29q52 0 80 -26.5t28 -77.5z" />
    <glyph glyph-name="i" unicode="i" horiz-adv-x="220" 
d="M213 638q0 -16 -12 -28t-28 -12q-15 0 -27 12t-12 28t12 28t27 12q17 0 28.5 -12t11.5 -28zM171 470l-76 -470h-46l76 470h46z" />
    <glyph glyph-name="j" unicode="j" horiz-adv-x="220" 
d="M213 638q0 -16 -12 -28t-28 -12q-15 0 -27 12t-12 28t12 28t27 12q17 0 28.5 -12t11.5 -28zM171 470l-89 -553q-9 -52 -35.5 -73.5t-72.5 -21.5q-17 0 -33 2v41q26 -2 35 -2q52 0 62 59l87 548h46z" />
    <glyph glyph-name="k" unicode="k" horiz-adv-x="422" 
d="M89 0h-46l112 705l47 10l-71 -451l231 206h65l-247 -214l190 -251l-50 -12l-191 260z" />
    <glyph glyph-name="l" unicode="l" horiz-adv-x="220" 
d="M208 715l-113 -715h-46l112 705z" />
    <glyph glyph-name="m" unicode="m" horiz-adv-x="755" 
d="M703 376q0 -16 -4 -44l-53 -332h-46l53 334q4 26 4 40q0 30 -16 47t-45 17q-35 0 -76 -32t-104 -104l-48 -302h-46l53 334q4 26 4 40q0 30 -16 47t-45 17q-35 0 -76 -32t-104 -104l-47 -302h-46l51 322v148h40l5 -114q55 62 98 93t85 31q101 0 101 -104q0 -7 -1 -14
q54 59 95.5 88.5t82.5 29.5q101 0 101 -104z" />
    <glyph glyph-name="n" unicode="n" horiz-adv-x="484" 
d="M431 376q0 -16 -4 -44l-53 -332h-46l53 334q4 28 4 40q0 30 -17 47t-49 17q-35 0 -75.5 -31.5t-105.5 -104.5l-47 -302h-46l51 322v148h40l5 -114q56 62 98.5 93t83.5 31q52 0 80 -26.5t28 -77.5z" />
    <glyph glyph-name="o" unicode="o" horiz-adv-x="468" 
d="M423 281q0 -118 -63.5 -204.5t-157.5 -86.5q-74 0 -115.5 54t-41.5 145q0 118 63.5 204.5t157.5 86.5q74 0 115.5 -54.5t41.5 -144.5zM376 279q0 78 -30.5 119.5t-81.5 41.5q-71 0 -121.5 -74.5t-50.5 -174.5q0 -78 31 -119.5t82 -41.5q71 0 121 74.5t50 174.5z" />
    <glyph glyph-name="p" unicode="p" horiz-adv-x="481" 
d="M99 53q46 -19 89 -19q86 0 144 72.5t58 191.5q0 66 -24.5 104t-65.5 38q-31 0 -67 -27.5t-92 -92.5zM16 -181l80 503v148h40l5 -100q51 59 87 84.5t78 25.5q62 0 96.5 -47t34.5 -132q0 -133 -71.5 -220t-179.5 -87q-47 0 -94 17l-29 -182z" />
    <glyph glyph-name="q" unicode="q" horiz-adv-x="479" 
d="M431 441l-97 -612l-47 -10l43 272q-45 -52 -80 -76.5t-75 -24.5q-62 0 -96.5 47.5t-34.5 131.5q0 134 71.5 221t180.5 87q63 0 135 -36zM382 415q-48 21 -91 21q-85 0 -142.5 -71.5t-57.5 -192.5q0 -66 24 -104t65 -38q31 0 66.5 28t92.5 92z" />
    <glyph glyph-name="r" unicode="r" horiz-adv-x="307" 
d="M317 430q-54 -5 -92.5 -39t-88.5 -106l-45 -285h-46l51 322v148h40l5 -125q41 64 83 98t93 34v-47z" />
    <glyph glyph-name="s" unicode="s" horiz-adv-x="375" 
d="M337 447l-9 -47q-60 41 -116 41q-41 0 -68.5 -23.5t-27.5 -58.5q0 -27 17.5 -45.5t64.5 -44.5q70 -38 94 -66t24 -74q0 -66 -43 -102.5t-110 -36.5q-85 0 -152 47l10 46q66 -54 146 -54q43 0 73.5 26t30.5 67q0 32 -18.5 52.5t-72.5 49.5q-60 32 -84.5 59t-24.5 68
q0 58 41.5 93.5t101.5 35.5q65 0 123 -33z" />
    <glyph glyph-name="t" unicode="t" horiz-adv-x="311" 
d="M298 431h-120l-46 -290q-6 -42 -6 -54q0 -55 60 -55q22 0 50 6v-39q-28 -7 -58 -7q-98 0 -98 89q0 28 5 58l47 292h-74l7 39h73l26 167l47 10l-27 -177h114v-39z" />
    <glyph glyph-name="u" unicode="u" horiz-adv-x="484" 
d="M53 94q0 16 4 44l53 332h46l-53 -334q-4 -28 -4 -40q0 -30 17 -47t49 -17q35 0 75.5 31.5t105.5 104.5l47 302h46l-51 -322v-148h-40l-5 114q-56 -62 -98.5 -93t-83.5 -31q-52 0 -80 26.5t-28 77.5z" />
    <glyph glyph-name="v" unicode="v" horiz-adv-x="436" 
d="M441 470l-245 -475h-36l-92 470l45 10l75 -415l203 410h50z" />
    <glyph glyph-name="w" unicode="w" horiz-adv-x="681" 
d="M686 470l-232 -475h-33l-55 399l-178 -399h-34l-82 473l43 10l66 -412l180 407h36l53 -407l189 404h47z" />
    <glyph glyph-name="x" unicode="x" horiz-adv-x="434" 
d="M317 -7l-104 216l-160 -209h-53l193 244l-110 222l45 12l95 -199l150 191h53l-183 -228l118 -238z" />
    <glyph glyph-name="y" unicode="y" horiz-adv-x="445" 
d="M450 470l-277 -548q-28 -55 -56.5 -77.5t-70.5 -22.5q-12 0 -26 2v41q14 -2 28 -2q29 0 48.5 16.5t40.5 56.5l33 63l-102 466l45 10l86 -419l201 414h50z" />
    <glyph glyph-name="z" unicode="z" horiz-adv-x="421" 
d="M405 470l-5 -35l-334 -396h273v-39h-334l5 36l334 395h-252v39h313z" />
    <glyph glyph-name="braceleft" unicode="{" horiz-adv-x="443" 
d="M453 690l-6 -37h-66q-116 0 -116 -118v-77q0 -79 -32.5 -117t-95.5 -50v-2q84 -16 84 -90q0 -31 -21 -103.5t-21 -98.5q0 -66 86 -66h65v-37h-71q-124 0 -124 100q0 28 21 101t21 101q0 41 -24.5 59.5t-78.5 18.5h-20v35h23q143 0 143 144v77q0 78 41.5 119t121.5 41h70z
" />
    <glyph glyph-name="bar" unicode="|" horiz-adv-x="266" 
d="M89 -183l-45 -8l149 939l45 7z" />
    <glyph glyph-name="braceright" unicode="}" horiz-adv-x="443" 
d="M8 -106l6 37h66q116 0 116 118v77q0 79 32.5 117t95.5 50v2q-84 16 -84 90q0 31 21 103.5t21 98.5q0 66 -86 66h-65v37h71q124 0 124 -100q0 -28 -21 -101t-21 -101q0 -41 24.5 -59.5t78.5 -18.5h20v-35h-23q-143 0 -143 -144v-77q0 -78 -41.5 -119t-121.5 -41h-70z" />
    <glyph glyph-name="asciitilde" unicode="~" horiz-adv-x="399" 
d="M357 323q-17 -46 -40.5 -70.5t-49.5 -24.5q-29 0 -72 27q-42 27 -59 27q-26 0 -48 -55l-33 7q17 46 40.5 70.5t49.5 24.5q29 0 72 -27q42 -27 59 -27q26 0 48 55z" />
    <glyph glyph-name="uni00A0" unicode="&#xa0;" horiz-adv-x="110" 
 />
    <glyph glyph-name="exclamdown" unicode="&#xa1;" horiz-adv-x="254" 
d="M229 690l-13 -81h-59l13 81h59zM184 511l-65 -511h-57l95 506z" />
    <glyph glyph-name="cent" unicode="&#xa2;" horiz-adv-x="459" 
d="M107 296q0 -107 77 -148l124 393h-8q-86 0 -139.5 -72.5t-53.5 -172.5zM247 97q-23 0 -40 4l-35 -111l-35 7l36 115q-50 20 -80 67t-30 114q0 118 68.5 201t172.5 83h15l34 108l35 -7l-34 -107q57 -12 94 -49l-15 -36q-41 38 -90 50l-125 -400q15 -3 31 -3q68 0 146 45
v-39q-73 -42 -148 -42z" />
    <glyph glyph-name="sterling" unicode="&#xa3;" horiz-adv-x="522" 
d="M458 39v-39h-420l6 32l119 281h-91l7 40h101l82 195q30 72 68.5 106.5t98.5 34.5q45 0 94 -19l-10 -40q-47 18 -87 18q-42 0 -71 -27.5t-53 -85.5l-76 -182h185v-40h-202l-115 -274h364z" />
    <glyph glyph-name="yen" unicode="&#xa5;" horiz-adv-x="580" 
d="M452 114h-159l-18 -114h-42l18 114h-160v38h166l16 104h-161l6 38h154l-164 376l41 13l155 -361l261 354h52l-289 -382h149v-38h-161l-17 -104h159z" />
    <glyph glyph-name="section" unicode="&#xa7;" horiz-adv-x="506" 
d="M469 359q0 -53 -42 -97l-37 12q34 43 34 80q0 23 -19 40t-70 35l-68 23q-57 19 -85 43.5t-28 68.5q0 53 43.5 86.5t109.5 33.5q76 0 149 -34l-13 -40q-73 35 -140 35q-47 0 -76.5 -22t-29.5 -55q0 -28 20.5 -45t66.5 -32l74 -25q59 -20 85 -45.5t26 -61.5zM71 317
q0 53 42 97l37 -12q-34 -43 -34 -80q0 -23 19 -40.5t70 -34.5l68 -23q57 -19 85 -43.5t28 -68.5q0 -53 -43.5 -86.5t-109.5 -33.5q-76 0 -149 34l13 40q73 -35 140 -35q47 0 76.5 22t29.5 55q0 28 -20.5 45t-66.5 32l-74 25q-59 20 -85 45.5t-26 61.5z" />
    <glyph glyph-name="dieresis" unicode="&#xa8;" horiz-adv-x="457" 
d="M233 566h-69l13 79h69zM400 566h-70l13 79h70z" />
    <glyph glyph-name="copyright" unicode="&#xa9;" horiz-adv-x="811" 
d="M766 345q0 -158 -94 -258t-249 -100t-250 100.5t-95 257.5q0 158 94.5 258t248.5 100q155 0 250 -100t95 -258zM739 345q0 148 -87 241t-231 93t-229.5 -93t-85.5 -241t86.5 -241t231.5 -93q144 0 229.5 93t85.5 241zM554 188q-58 -43 -126 -43q-76 0 -125 57t-49 146
q0 90 50 147t127 57q61 0 117 -36l-8 -43q-53 41 -110 41q-61 0 -97.5 -46t-36.5 -120q0 -73 37 -119.5t97 -46.5q58 0 119 47z" />
    <glyph glyph-name="ordfeminine" unicode="&#xaa;" horiz-adv-x="356" 
d="M284 454l13 74q-173 -13 -173 -94q0 -22 11.5 -34.5t32.5 -12.5q46 0 116 67zM141 616v38q62 26 111 26q110 0 92 -106l-23 -129l-4 -85h-34v54q-63 -60 -118 -60q-37 0 -59.5 21.5t-22.5 56.5q0 113 219 127l3 15q12 72 -57 72q-43 0 -107 -30zM303 245h-246l6 37h240
v-37z" />
    <glyph glyph-name="guillemotleft" unicode="&#xab;" horiz-adv-x="503" 
d="M283 470l-182 -239l106 -227l-34 -9l-130 241l201 234h39zM482 470l-182 -239l106 -227l-34 -9l-130 241l201 234h39z" />
    <glyph glyph-name="registered" unicode="&#xae;" horiz-adv-x="569" 
d="M548 465q0 -102 -62.5 -167t-163.5 -65t-164 65.5t-63 168.5q0 101 63 166t164 65t163.5 -65.5t62.5 -167.5zM527 465q0 93 -57 153t-149 60q-91 0 -147.5 -59.5t-56.5 -151.5q0 -94 56.5 -154t148.5 -60q91 0 148 60t57 152zM425 350l-34 -7l-77 109h-31v-107h-31v258
h64q41 0 64.5 -20t23.5 -54q0 -55 -57 -72zM373 527q0 48 -59 48h-32v-96h31q28 0 44 12.5t16 35.5z" />
    <glyph glyph-name="macron" unicode="&#xaf;" horiz-adv-x="457" 
d="M411 583h-255l7 43h255z" />
    <glyph glyph-name="degree" unicode="&#xb0;" horiz-adv-x="419" 
d="M409 530q0 -65 -43.5 -108.5t-108.5 -43.5q-64 0 -108 43.5t-44 108.5q0 64 44 107.5t108 43.5q65 0 108.5 -43.5t43.5 -107.5zM368 530q0 49 -31.5 83t-80.5 34q-48 0 -79 -34t-31 -83t32 -83.5t80 -34.5q49 0 79.5 34t30.5 84z" />
    <glyph glyph-name="plusminus" unicode="&#xb1;" horiz-adv-x="540" 
d="M312 386l-26 -164h-42l26 164h-161l6 39h161l26 162h42l-26 -162h161l-6 -39h-161zM464 128h-428l7 42h428z" />
    <glyph glyph-name="two.sup" unicode="&#xb2;" horiz-adv-x="360" 
d="M332 411h-241l4 29l164 146q63 57 63 104q0 26 -19 43.5t-52 17.5q-46 0 -98 -34v37q52 31 103 31q49 0 78 -26.5t29 -65.5q0 -36 -19.5 -65t-64.5 -68l-130 -113h183v-36z" />
    <glyph glyph-name="three.sup" unicode="&#xb3;" horiz-adv-x="360" 
d="M331 514q0 -51 -36.5 -81.5t-92.5 -30.5q-59 0 -114 35l16 33q50 -34 99 -34q38 0 62.5 21t24.5 54q0 37 -28 56.5t-79 19.5h-8v33h29q48 0 78 20.5t30 55.5q0 27 -19 41t-50 14q-50 0 -100 -34v38q47 30 104 30q46 0 76.5 -22.5t30.5 -62.5q0 -76 -95 -100
q72 -22 72 -86z" />
    <glyph glyph-name="acute" unicode="&#xb4;" horiz-adv-x="457" 
d="M395 692l-160 -140h-40l131 155z" />
    <glyph glyph-name="mu" unicode="&#xb5;" horiz-adv-x="512" 
d="M60 -171l-46 -10l104 651h46l-53 -334q-4 -24 -4 -37q0 -32 17 -49.5t49 -17.5q35 0 75.5 31.5t105.5 104.5l47 302h46l-57 -365q-4 -28 -4 -40q0 -32 28 -32q18 0 42 9v-41q-25 -9 -50 -9q-67 0 -67 68q0 24 4 45q-53 -58 -94 -86.5t-86 -28.5q-54 0 -75 43
q-4 -54 -17 -135z" />
    <glyph glyph-name="paragraph" unicode="&#xb6;" horiz-adv-x="492" 
d="M365 0h-42l101 641h-91l-23 -144l-54 -170q-80 5 -126.5 44t-46.5 110q0 86 62.5 140.5t173.5 54.5h153z" />
    <glyph glyph-name="periodcentered" unicode="&#xb7;" horiz-adv-x="203" 
d="M133 242h-61l13 81h60z" />
    <glyph glyph-name="cedilla" unicode="&#xb8;" horiz-adv-x="457" 
d="M231 -77l-140 -119h-36l111 135z" />
    <glyph glyph-name="one.sup" unicode="&#xb9;" horiz-adv-x="360" 
d="M324 411h-211l6 34h87l48 297l-97 -38l6 38l108 45h27l-54 -342h80v-34z" />
    <glyph glyph-name="ordmasculine" unicode="&#xba;" horiz-adv-x="368" 
d="M206 354q-54 0 -84.5 35t-30.5 98q0 77 45 135t112 58q54 0 84.5 -35t30.5 -97q0 -78 -45 -136t-112 -58zM246 643q-48 0 -80.5 -46.5t-32.5 -108.5q0 -51 22 -74t54 -23q48 0 80 46.5t32 108.5q0 51 -21.5 74t-53.5 23zM316 245h-257l6 37h251v-37z" />
    <glyph glyph-name="guillemotright" unicode="&#xbb;" horiz-adv-x="503" 
d="M21 0l182 239l-106 227l34 9l130 -241l-201 -234h-39zM220 0l182 239l-106 227l34 9l130 -241l-201 -234h-39z" />
    <glyph glyph-name="onequarter" unicode="&#xbc;" horiz-adv-x="810" 
d="M465 331l-261 -339l-34 9l272 350l261 339l33 -10zM315 311h-211l6 34h87l48 297l-97 -38l6 38l108 45h27l-54 -342h80v-34zM738 84h-55l-13 -86h-37l14 86h-171l4 25l203 259h45l-40 -252h55zM521 116h130l23 145l11 63h-1l-46 -60l-86 -108l-32 -39z" />
    <glyph glyph-name="onehalf" unicode="&#xbd;" horiz-adv-x="810" 
d="M445 331l-261 -339l-34 9l272 350l261 339l33 -10zM315 311h-211l6 34h87l48 297l-97 -38l6 38l108 45h27l-54 -342h80v-34zM723 0h-241l4 29l164 146q63 57 63 104q0 26 -19 43.5t-52 17.5q-46 0 -98 -34v37q52 31 103 31q49 0 78 -26.5t29 -65.5q0 -36 -19.5 -65
t-64.5 -68l-130 -113h183v-36z" />
    <glyph glyph-name="threequarters" unicode="&#xbe;" horiz-adv-x="810" 
d="M465 331l-261 -339l-34 9l272 350l261 339l33 -10zM322 414q0 -51 -36.5 -81.5t-92.5 -30.5q-59 0 -114 35l16 33q50 -34 99 -34q38 0 62.5 21t24.5 54q0 37 -28 56.5t-79 19.5h-8v33h29q48 0 78 20.5t30 55.5q0 27 -19 41t-50 14q-50 0 -100 -34v38q47 30 104 30
q46 0 76.5 -22.5t30.5 -62.5q0 -76 -95 -100q72 -22 72 -86zM738 84h-55l-13 -86h-37l14 86h-171l4 25l203 259h45l-40 -252h55zM521 116h130l23 145l11 63h-1l-46 -60l-86 -108l-32 -39z" />
    <glyph glyph-name="questiondown" unicode="&#xbf;" horiz-adv-x="438" 
d="M340 690l-12 -81h-59l13 81h58zM196 -13q-77 0 -121 40.5t-44 108.5q0 80 50 131.5t153 100.5l32 137l35 7l-18 -170l-20 -8q-94 -37 -139 -84t-45 -111q0 -52 33.5 -81.5t87.5 -29.5q78 0 173 60v-46q-86 -55 -177 -55z" />
    <glyph glyph-name="Agrave" unicode="&#xc0;" 
d="M422 762h-33l-116 140l70 15zM525 -7l-52 243h-295l-125 -236h-51l375 694h39l154 -690zM387 627l-187 -350h264z" />
    <glyph glyph-name="Aacute" unicode="&#xc1;" 
d="M583 902l-160 -140h-40l131 155zM525 -7l-52 243h-295l-125 -236h-51l375 694h39l154 -690zM387 627l-187 -350h264z" />
    <glyph glyph-name="Acircumflex" unicode="&#xc2;" 
d="M532 752h-26l-86 96l-110 -96h-34l132 149h42zM525 -7l-52 243h-295l-125 -236h-51l375 694h39l154 -690zM387 627l-187 -350h264z" />
    <glyph glyph-name="Atilde" unicode="&#xc3;" 
d="M571 866q-17 -46 -40.5 -70.5t-49.5 -24.5q-29 0 -72 27q-42 27 -59 27q-26 0 -48 -55l-33 7q17 46 40.5 70.5t49.5 24.5q29 0 72 -27q42 -27 59 -27q26 0 48 55zM525 -7l-52 243h-295l-125 -236h-51l375 694h39l154 -690zM387 627l-187 -350h264z" />
    <glyph glyph-name="Adieresis" unicode="&#xc4;" 
d="M361 776h-69l13 79h69zM528 776h-70l13 79h70zM525 -7l-52 243h-295l-125 -236h-51l375 694h39l154 -690zM387 627l-187 -350h264z" />
    <glyph glyph-name="Aring" unicode="&#xc5;" 
d="M525 -7l-52 243h-295l-125 -236h-51l354 656q-48 25 -48 81q0 39 27 66.5t67 27.5q39 0 66 -27.5t27 -66.5q0 -33 -19 -57t-50 -32l144 -644zM402 675q26 0 42.5 17.5t16.5 44.5t-17 45t-42 18q-26 0 -43 -18t-17 -45t17 -44.5t43 -17.5zM387 627l-187 -350h264z" />
    <glyph glyph-name="AE" unicode="&#xc6;" horiz-adv-x="855" 
d="M463 277l60 378l-284 -378h224zM419 0l38 236h-249l-177 -236h-51l519 690h359l-7 -42h-282l-42 -266h222v-42h-229l-48 -298h293l-7 -42h-339z" />
    <glyph glyph-name="Ccedilla" unicode="&#xc7;" horiz-adv-x="570" 
d="M575 645l-8 -54q-74 68 -162 68q-122 0 -204 -112t-82 -266q0 -115 55.5 -182.5t144.5 -67.5q91 0 178 59v-51q-88 -51 -182 -51q-107 0 -176.5 78t-69.5 215q0 170 97.5 295.5t237.5 125.5q98 0 171 -57zM337 -77l-140 -119h-36l111 135z" />
    <glyph glyph-name="Egrave" unicode="&#xc8;" horiz-adv-x="476" 
d="M356 752h-33l-116 140l70 15zM497 690l-7 -43h-282l-42 -264h222v-43h-229l-48 -297h293l-7 -43h-339l110 690h329z" />
    <glyph glyph-name="Eacute" unicode="&#xc9;" horiz-adv-x="476" 
d="M517 892l-160 -140h-40l131 155zM497 690l-7 -43h-282l-42 -264h222v-43h-229l-48 -297h293l-7 -43h-339l110 690h329z" />
    <glyph glyph-name="Ecircumflex" unicode="&#xca;" horiz-adv-x="476" 
d="M468 752h-26l-86 96l-110 -96h-34l132 149h42zM497 690l-7 -43h-282l-42 -264h222v-43h-229l-48 -297h293l-7 -43h-339l110 690h329z" />
    <glyph glyph-name="Edieresis" unicode="&#xcb;" horiz-adv-x="476" 
d="M295 766h-69l13 79h69zM462 766h-70l13 79h70zM497 690l-7 -43h-282l-42 -264h222v-43h-229l-48 -297h293l-7 -43h-339l110 690h329z" />
    <glyph glyph-name="Igrave" unicode="&#xcc;" horiz-adv-x="254" 
d="M224 752h-33l-116 140l70 15zM223 690l-110 -690h-47l110 690h47z" />
    <glyph glyph-name="Iacute" unicode="&#xcd;" horiz-adv-x="254" 
d="M385 892l-160 -140h-40l131 155zM223 690l-110 -690h-47l110 690h47z" />
    <glyph glyph-name="Icircumflex" unicode="&#xce;" horiz-adv-x="254" 
d="M336 752h-26l-86 96l-110 -96h-34l132 149h42zM223 690l-110 -690h-47l110 690h47z" />
    <glyph glyph-name="Idieresis" unicode="&#xcf;" horiz-adv-x="254" 
d="M163 766h-69l13 79h69zM330 766h-70l13 79h70zM223 690l-110 -690h-47l110 690h47z" />
    <glyph glyph-name="Eth" unicode="&#xd0;" horiz-adv-x="650" 
d="M241 0h-175l54 341h-83v41h90l49 308h155q138 0 211 -76.5t73 -209.5q0 -183 -117 -300q-104 -104 -257 -104zM120 42h124q126 0 215 87q106 106 106 275q0 114 -60.5 179t-179.5 65h-108l-43 -266h167l-6 -41h-167z" />
    <glyph glyph-name="Ntilde" unicode="&#xd1;" horiz-adv-x="662" 
d="M581 856q-17 -46 -40.5 -70.5t-49.5 -24.5q-29 0 -72 27q-42 27 -59 27q-26 0 -48 -55l-33 7q17 46 40.5 70.5t49.5 24.5q29 0 72 -27q42 -27 59 -27q26 0 48 55zM639 690l-110 -690h-28l-302 608l-96 -608h-45l110 690h42l291 -591l93 591h45z" />
    <glyph glyph-name="Ograve" unicode="&#xd2;" horiz-adv-x="698" 
d="M455 762h-33l-116 140l70 15zM326 -13q-117 0 -186.5 86.5t-69.5 217.5q0 96 34 179.5t94 143.5q89 89 209 89q117 0 186.5 -86.5t69.5 -217.5q0 -96 -34 -179.5t-94 -143.5q-89 -89 -209 -89zM328 30q97 0 174 77q111 111 111 292q0 116 -56.5 188.5t-151.5 72.5
q-97 0 -174 -77q-111 -111 -111 -292q0 -116 56.5 -188.5t151.5 -72.5z" />
    <glyph glyph-name="Oacute" unicode="&#xd3;" horiz-adv-x="698" 
d="M616 902l-160 -140h-40l131 155zM326 -13q-117 0 -186.5 86.5t-69.5 217.5q0 96 34 179.5t94 143.5q89 89 209 89q117 0 186.5 -86.5t69.5 -217.5q0 -96 -34 -179.5t-94 -143.5q-89 -89 -209 -89zM328 30q97 0 174 77q111 111 111 292q0 116 -56.5 188.5t-151.5 72.5
q-97 0 -174 -77q-111 -111 -111 -292q0 -116 56.5 -188.5t151.5 -72.5z" />
    <glyph glyph-name="Ocircumflex" unicode="&#xd4;" horiz-adv-x="698" 
d="M568 762h-26l-86 96l-110 -96h-34l132 149h42zM326 -13q-117 0 -186.5 86.5t-69.5 217.5q0 96 34 179.5t94 143.5q89 89 209 89q117 0 186.5 -86.5t69.5 -217.5q0 -96 -34 -179.5t-94 -143.5q-89 -89 -209 -89zM328 30q97 0 174 77q111 111 111 292q0 116 -56.5 188.5
t-151.5 72.5q-97 0 -174 -77q-111 -111 -111 -292q0 -116 56.5 -188.5t151.5 -72.5z" />
    <glyph glyph-name="Otilde" unicode="&#xd5;" horiz-adv-x="698" 
d="M604 866q-17 -46 -40.5 -70.5t-49.5 -24.5q-28 0 -72 27q-42 27 -59 27q-26 0 -48 -55l-33 7q17 46 40.5 70.5t49.5 24.5q28 0 72 -27q42 -27 59 -27q26 0 48 55zM326 -13q-117 0 -186.5 86.5t-69.5 217.5q0 96 34 179.5t94 143.5q89 89 209 89q117 0 186.5 -86.5
t69.5 -217.5q0 -96 -34 -179.5t-94 -143.5q-89 -89 -209 -89zM328 30q97 0 174 77q111 111 111 292q0 116 -56.5 188.5t-151.5 72.5q-97 0 -174 -77q-111 -111 -111 -292q0 -116 56.5 -188.5t151.5 -72.5z" />
    <glyph glyph-name="Odieresis" unicode="&#xd6;" horiz-adv-x="698" 
d="M394 776h-69l13 79h69zM561 776h-70l13 79h70zM326 -13q-117 0 -186.5 86.5t-69.5 217.5q0 96 34 179.5t94 143.5q89 89 209 89q117 0 186.5 -86.5t69.5 -217.5q0 -96 -34 -179.5t-94 -143.5q-89 -89 -209 -89zM328 30q97 0 174 77q111 111 111 292q0 116 -56.5 188.5
t-151.5 72.5q-97 0 -174 -77q-111 -111 -111 -292q0 -116 56.5 -188.5t151.5 -72.5z" />
    <glyph glyph-name="multiply" unicode="&#xd7;" horiz-adv-x="568" 
d="M440 139l-143 172l-197 -171l-25 29l198 170l-145 171l32 27l143 -172l197 171l25 -29l-198 -170l145 -171z" />
    <glyph glyph-name="Oslash" unicode="&#xd8;" horiz-adv-x="698" 
d="M326 -13q-109 0 -179 78l-63 -72l-43 9l82 94q-53 81 -53 195q0 96 34 179.5t94 143.5q89 89 209 89q111 0 180 -79l64 73l43 -9l-83 -95q52 -80 52 -194q0 -96 -34 -179.5t-94 -143.5q-89 -89 -209 -89zM120 291q0 -92 37 -158l399 455q-58 72 -151 72q-97 0 -174 -77
q-111 -111 -111 -292zM328 30q97 0 174 77q111 111 111 292q0 90 -36 157l-399 -456q57 -70 150 -70z" />
    <glyph glyph-name="Ugrave" unicode="&#xd9;" horiz-adv-x="675" 
d="M433 752h-33l-116 140l70 15zM661 690l-70 -444q-19 -119 -89.5 -187.5t-183.5 -68.5q-104 0 -166 59t-62 165q0 38 6 76l63 400h47l-65 -413q-5 -33 -5 -61q0 -86 48.5 -135.5t136.5 -49.5q93 0 149.5 57.5t73.5 163.5l70 438h47z" />
    <glyph glyph-name="Uacute" unicode="&#xda;" horiz-adv-x="675" 
d="M594 892l-160 -140h-40l131 155zM661 690l-70 -444q-19 -119 -89.5 -187.5t-183.5 -68.5q-104 0 -166 59t-62 165q0 38 6 76l63 400h47l-65 -413q-5 -33 -5 -61q0 -86 48.5 -135.5t136.5 -49.5q93 0 149.5 57.5t73.5 163.5l70 438h47z" />
    <glyph glyph-name="Ucircumflex" unicode="&#xdb;" horiz-adv-x="675" 
d="M545 752h-26l-86 96l-110 -96h-34l132 149h42zM661 690l-70 -444q-19 -119 -89.5 -187.5t-183.5 -68.5q-104 0 -166 59t-62 165q0 38 6 76l63 400h47l-65 -413q-5 -33 -5 -61q0 -86 48.5 -135.5t136.5 -49.5q93 0 149.5 57.5t73.5 163.5l70 438h47z" />
    <glyph glyph-name="Udieresis" unicode="&#xdc;" horiz-adv-x="675" 
d="M372 766h-69l13 79h69zM539 766h-70l13 79h70zM661 690l-70 -444q-19 -119 -89.5 -187.5t-183.5 -68.5q-104 0 -166 59t-62 165q0 38 6 76l63 400h47l-65 -413q-5 -33 -5 -61q0 -86 48.5 -135.5t136.5 -49.5q93 0 149.5 57.5t73.5 163.5l70 438h47z" />
    <glyph glyph-name="Yacute" unicode="&#xdd;" horiz-adv-x="576" 
d="M545 892l-160 -140h-40l131 155zM617 690l-294 -393l-47 -297h-47l47 296l-169 391l47 10l151 -361l258 354h54z" />
    <glyph glyph-name="Thorn" unicode="&#xde;" horiz-adv-x="500" 
d="M471 372q0 -94 -68.5 -154t-175.5 -60h-97l-25 -158h-47l110 690h47l-22 -142h78q96 0 148 -45.5t52 -130.5zM424 369q0 137 -158 137h-80l-49 -305h97q89 0 139.5 49.5t50.5 118.5z" />
    <glyph glyph-name="germandbls" unicode="&#xdf;" horiz-adv-x="558" 
d="M509 157q0 -75 -49.5 -120.5t-127.5 -45.5q-64 0 -134 35l8 43q68 -38 132 -38q53 0 88.5 33.5t35.5 86.5q0 59 -46.5 97t-149.5 67v27q74 74 105 125.5t31 109.5q0 44 -25 70t-65 26q-102 0 -123 -137l-111 -707l-47 -10l97 612h-73l5 39h74l11 74q12 78 56 123t114 45
q61 0 97.5 -35.5t36.5 -95.5q0 -67 -30.5 -118t-99.5 -120q190 -58 190 -186z" />
    <glyph glyph-name="agrave" unicode="&#xe0;" horiz-adv-x="478" 
d="M312 552h-33l-116 140l70 15zM338 164l44 256q-38 16 -83 16q-84 0 -146 -81t-62 -206q0 -58 19.5 -88.5t52.5 -30.5q29 0 66.5 29t108.5 105zM337 113q-60 -64 -100.5 -93.5t-77.5 -29.5q-54 0 -84.5 41.5t-30.5 114.5q0 138 76.5 234.5t185.5 96.5q63 0 125 -31
l-50 -300v-146h-40z" />
    <glyph glyph-name="aacute" unicode="&#xe1;" horiz-adv-x="478" 
d="M473 692l-160 -140h-40l131 155zM338 164l44 256q-38 16 -83 16q-84 0 -146 -81t-62 -206q0 -58 19.5 -88.5t52.5 -30.5q29 0 66.5 29t108.5 105zM337 113q-60 -64 -100.5 -93.5t-77.5 -29.5q-54 0 -84.5 41.5t-30.5 114.5q0 138 76.5 234.5t185.5 96.5q63 0 125 -31
l-50 -300v-146h-40z" />
    <glyph glyph-name="acircumflex" unicode="&#xe2;" horiz-adv-x="478" 
d="M424 552h-26l-86 96l-110 -96h-34l132 149h42zM338 164l44 256q-38 16 -83 16q-84 0 -146 -81t-62 -206q0 -58 19.5 -88.5t52.5 -30.5q29 0 66.5 29t108.5 105zM337 113q-60 -64 -100.5 -93.5t-77.5 -29.5q-54 0 -84.5 41.5t-30.5 114.5q0 138 76.5 234.5t185.5 96.5
q63 0 125 -31l-50 -300v-146h-40z" />
    <glyph glyph-name="atilde" unicode="&#xe3;" horiz-adv-x="478" 
d="M461 656q-17 -46 -40.5 -70.5t-49.5 -24.5q-29 0 -72 27q-42 27 -59 27q-26 0 -48 -55l-33 7q17 46 40.5 70.5t49.5 24.5q29 0 72 -27q42 -27 59 -27q26 0 48 55zM338 164l44 256q-38 16 -83 16q-84 0 -146 -81t-62 -206q0 -58 19.5 -88.5t52.5 -30.5q29 0 66.5 29
t108.5 105zM337 113q-60 -64 -100.5 -93.5t-77.5 -29.5q-54 0 -84.5 41.5t-30.5 114.5q0 138 76.5 234.5t185.5 96.5q63 0 125 -31l-50 -300v-146h-40z" />
    <glyph glyph-name="adieresis" unicode="&#xe4;" horiz-adv-x="478" 
d="M251 566h-69l13 79h69zM418 566h-70l13 79h70zM338 164l44 256q-38 16 -83 16q-84 0 -146 -81t-62 -206q0 -58 19.5 -88.5t52.5 -30.5q29 0 66.5 29t108.5 105zM337 113q-60 -64 -100.5 -93.5t-77.5 -29.5q-54 0 -84.5 41.5t-30.5 114.5q0 138 76.5 234.5t185.5 96.5
q63 0 125 -31l-50 -300v-146h-40z" />
    <glyph glyph-name="aring" unicode="&#xe5;" horiz-adv-x="478" 
d="M313 550q-40 0 -67 26t-27 66q0 39 27 66.5t67 27.5q39 0 66 -27.5t27 -66.5q0 -40 -26.5 -66t-66.5 -26zM313 580q26 0 42.5 17.5t16.5 44.5t-17 45t-42 18q-26 0 -43 -18t-17 -45t17 -44.5t43 -17.5zM338 164l44 256q-38 16 -83 16q-84 0 -146 -81t-62 -206
q0 -58 19.5 -88.5t52.5 -30.5q29 0 66.5 29t108.5 105zM337 113q-60 -64 -100.5 -93.5t-77.5 -29.5q-54 0 -84.5 41.5t-30.5 114.5q0 138 76.5 234.5t185.5 96.5q63 0 125 -31l-50 -300v-146h-40z" />
    <glyph glyph-name="ae" unicode="&#xe6;" horiz-adv-x="715" 
d="M675 311q0 -27 -7 -72h-297q-3 -22 -3 -46q0 -77 34 -119.5t92 -42.5q63 0 143 60v-47q-75 -54 -148 -54q-107 0 -148 94q-105 -93 -190 -93q-56 0 -92 31t-36 88q0 161 311 184l4 31q8 60 -12.5 88t-73.5 28q-58 0 -144 -42v43q80 38 147 38q115 0 128 -89q64 89 153 89
q67 0 103 -44t36 -125zM626 276q9 78 -14.5 121t-77.5 43q-51 0 -95 -45t-62 -119h249zM328 121q-7 39 -7 70q0 35 6 67q-257 -19 -257 -145q0 -40 23.5 -61t62.5 -21q69 0 172 90z" />
    <glyph glyph-name="ccedilla" unicode="&#xe7;" horiz-adv-x="408" 
d="M389 440l-8 -48q-60 47 -112 47q-73 0 -125 -74.5t-52 -171.5q0 -77 34.5 -119.5t94.5 -42.5q54 0 118 45v-45q-57 -41 -122 -41q-77 0 -124.5 53.5t-47.5 147.5q0 117 66 203t160 86q63 0 118 -40zM227 -77l-140 -119h-36l111 135z" />
    <glyph glyph-name="egrave" unicode="&#xe8;" horiz-adv-x="439" 
d="M293 552h-33l-116 140l70 15zM258 440q-50 0 -94.5 -44.5t-61.5 -119.5h248q9 78 -14.5 121t-77.5 43zM361 44q-75 -54 -148 -54q-81 0 -124.5 53t-43.5 144q0 129 65 211t150 82q67 0 103 -44t36 -125q0 -27 -7 -72h-297q-3 -24 -3 -50q0 -74 33 -116t91 -42
q65 0 145 60v-47z" />
    <glyph glyph-name="eacute" unicode="&#xe9;" horiz-adv-x="439" 
d="M454 692l-160 -140h-40l131 155zM258 440q-50 0 -94.5 -44.5t-61.5 -119.5h248q9 78 -14.5 121t-77.5 43zM361 44q-75 -54 -148 -54q-81 0 -124.5 53t-43.5 144q0 129 65 211t150 82q67 0 103 -44t36 -125q0 -27 -7 -72h-297q-3 -24 -3 -50q0 -74 33 -116t91 -42
q65 0 145 60v-47z" />
    <glyph glyph-name="ecircumflex" unicode="&#xea;" horiz-adv-x="439" 
d="M405 552h-26l-86 96l-110 -96h-34l132 149h42zM258 440q-50 0 -94.5 -44.5t-61.5 -119.5h248q9 78 -14.5 121t-77.5 43zM361 44q-75 -54 -148 -54q-81 0 -124.5 53t-43.5 144q0 129 65 211t150 82q67 0 103 -44t36 -125q0 -27 -7 -72h-297q-3 -24 -3 -50q0 -74 33 -116
t91 -42q65 0 145 60v-47z" />
    <glyph glyph-name="edieresis" unicode="&#xeb;" horiz-adv-x="439" 
d="M232 566h-69l13 79h69zM399 566h-70l13 79h70zM258 440q-50 0 -94.5 -44.5t-61.5 -119.5h248q9 78 -14.5 121t-77.5 43zM361 44q-75 -54 -148 -54q-81 0 -124.5 53t-43.5 144q0 129 65 211t150 82q67 0 103 -44t36 -125q0 -27 -7 -72h-297q-3 -24 -3 -50q0 -74 33 -116
t91 -42q65 0 145 60v-47z" />
    <glyph glyph-name="igrave" unicode="&#xec;" horiz-adv-x="220" 
d="M175 552h-33l-116 140l70 15zM171 470l-76 -470h-46l76 470h46z" />
    <glyph glyph-name="iacute" unicode="&#xed;" horiz-adv-x="220" 
d="M336 692l-160 -140h-40l131 155zM171 470l-76 -470h-46l76 470h46z" />
    <glyph glyph-name="icircumflex" unicode="&#xee;" horiz-adv-x="220" 
d="M287 552h-26l-86 96l-110 -96h-34l132 149h42zM171 470l-76 -470h-46l76 470h46z" />
    <glyph glyph-name="idieresis" unicode="&#xef;" horiz-adv-x="220" 
d="M114 566h-69l13 79h69zM281 566h-70l13 79h70zM171 470l-76 -470h-46l76 470h46z" />
    <glyph glyph-name="eth" unicode="&#xf0;" horiz-adv-x="481" 
d="M194 -10q-65 0 -108.5 48t-43.5 135q0 112 60.5 192t142.5 80q81 0 145 -80q1 11 1 32q0 126 -56 194l-57 -76h-40l74 100q-39 36 -102 59l13 41q69 -25 114 -66l49 66l35 -10l-60 -80q75 -82 75 -226q0 -234 -118 -354q-55 -55 -124 -55zM198 30q67 0 119.5 79.5
t68.5 201.5q-32 47 -65.5 70.5t-76.5 23.5q-63 0 -108.5 -69t-45.5 -166q0 -68 29.5 -104t78.5 -36z" />
    <glyph glyph-name="ntilde" unicode="&#xf1;" horiz-adv-x="484" 
d="M454 656q-17 -46 -40.5 -70.5t-49.5 -24.5q-28 0 -72 27q-42 27 -59 27q-26 0 -48 -55l-33 7q17 46 40.5 70.5t49.5 24.5q28 0 72 -27q42 -27 59 -27q26 0 48 55zM431 376q0 -16 -4 -44l-53 -332h-46l53 334q4 28 4 40q0 30 -17 47t-49 17q-35 0 -75.5 -31.5
t-105.5 -104.5l-47 -302h-46l51 322v148h40l5 -114q56 62 98.5 93t83.5 31q52 0 80 -26.5t28 -77.5z" />
    <glyph glyph-name="ograve" unicode="&#xf2;" horiz-adv-x="468" 
d="M299 552h-33l-116 140l70 15zM423 281q0 -118 -63.5 -204.5t-157.5 -86.5q-74 0 -115.5 54t-41.5 145q0 118 63.5 204.5t157.5 86.5q74 0 115.5 -54.5t41.5 -144.5zM376 279q0 78 -30.5 119.5t-81.5 41.5q-71 0 -121.5 -74.5t-50.5 -174.5q0 -78 31 -119.5t82 -41.5
q71 0 121 74.5t50 174.5z" />
    <glyph glyph-name="oacute" unicode="&#xf3;" horiz-adv-x="468" 
d="M460 692l-160 -140h-40l131 155zM423 281q0 -118 -63.5 -204.5t-157.5 -86.5q-74 0 -115.5 54t-41.5 145q0 118 63.5 204.5t157.5 86.5q74 0 115.5 -54.5t41.5 -144.5zM376 279q0 78 -30.5 119.5t-81.5 41.5q-71 0 -121.5 -74.5t-50.5 -174.5q0 -78 31 -119.5t82 -41.5
q71 0 121 74.5t50 174.5z" />
    <glyph glyph-name="ocircumflex" unicode="&#xf4;" horiz-adv-x="468" 
d="M411 552h-26l-86 96l-110 -96h-34l132 149h42zM423 281q0 -118 -63.5 -204.5t-157.5 -86.5q-74 0 -115.5 54t-41.5 145q0 118 63.5 204.5t157.5 86.5q74 0 115.5 -54.5t41.5 -144.5zM376 279q0 78 -30.5 119.5t-81.5 41.5q-71 0 -121.5 -74.5t-50.5 -174.5
q0 -78 31 -119.5t82 -41.5q71 0 121 74.5t50 174.5z" />
    <glyph glyph-name="otilde" unicode="&#xf5;" horiz-adv-x="468" 
d="M448 656q-17 -46 -40.5 -70.5t-49.5 -24.5q-28 0 -72 27q-42 27 -59 27q-26 0 -48 -55l-33 7q17 46 40.5 70.5t49.5 24.5q28 0 72 -27q42 -27 59 -27q26 0 48 55zM423 281q0 -118 -63.5 -204.5t-157.5 -86.5q-74 0 -115.5 54t-41.5 145q0 118 63.5 204.5t157.5 86.5
q74 0 115.5 -54.5t41.5 -144.5zM376 279q0 78 -30.5 119.5t-81.5 41.5q-71 0 -121.5 -74.5t-50.5 -174.5q0 -78 31 -119.5t82 -41.5q71 0 121 74.5t50 174.5z" />
    <glyph glyph-name="odieresis" unicode="&#xf6;" horiz-adv-x="468" 
d="M238 566h-69l13 79h69zM405 566h-70l13 79h70zM423 281q0 -118 -63.5 -204.5t-157.5 -86.5q-74 0 -115.5 54t-41.5 145q0 118 63.5 204.5t157.5 86.5q74 0 115.5 -54.5t41.5 -144.5zM376 279q0 78 -30.5 119.5t-81.5 41.5q-71 0 -121.5 -74.5t-50.5 -174.5
q0 -78 31 -119.5t82 -41.5q71 0 121 74.5t50 174.5z" />
    <glyph glyph-name="divide" unicode="&#xf7;" horiz-adv-x="568" 
d="M354 486h-59l12 76h59zM522 319h-448l6 38h448zM296 114h-59l12 76h59z" />
    <glyph glyph-name="oslash" unicode="&#xf8;" horiz-adv-x="468" 
d="M202 -10q-68 0 -110 47l-37 -44l-39 9l55 66q-26 49 -26 121q0 118 63.5 204.5t157.5 86.5q70 0 110 -48l39 46l39 -9l-57 -68q26 -49 26 -120q0 -118 -63.5 -204.5t-157.5 -86.5zM91 191q0 -48 13 -85l243 291q-31 43 -83 43q-71 0 -122 -75t-51 -174zM205 30
q71 0 121.5 74.5t50.5 174.5q0 47 -13 84l-242 -290q30 -43 83 -43z" />
    <glyph glyph-name="ugrave" unicode="&#xf9;" horiz-adv-x="484" 
d="M297 547h-33l-116 140l70 15zM53 94q0 16 4 44l53 332h46l-53 -334q-4 -28 -4 -40q0 -30 17 -47t49 -17q35 0 75.5 31.5t105.5 104.5l47 302h46l-51 -322v-148h-40l-5 114q-56 -62 -98.5 -93t-83.5 -31q-52 0 -80 26.5t-28 77.5z" />
    <glyph glyph-name="uacute" unicode="&#xfa;" horiz-adv-x="484" 
d="M458 687l-160 -140h-40l131 155zM53 94q0 16 4 44l53 332h46l-53 -334q-4 -28 -4 -40q0 -30 17 -47t49 -17q35 0 75.5 31.5t105.5 104.5l47 302h46l-51 -322v-148h-40l-5 114q-56 -62 -98.5 -93t-83.5 -31q-52 0 -80 26.5t-28 77.5z" />
    <glyph glyph-name="ucircumflex" unicode="&#xfb;" horiz-adv-x="484" 
d="M409 547h-26l-86 96l-110 -96h-34l132 149h42zM53 94q0 16 4 44l53 332h46l-53 -334q-4 -28 -4 -40q0 -30 17 -47t49 -17q35 0 75.5 31.5t105.5 104.5l47 302h46l-51 -322v-148h-40l-5 114q-56 -62 -98.5 -93t-83.5 -31q-52 0 -80 26.5t-28 77.5z" />
    <glyph glyph-name="udieresis" unicode="&#xfc;" horiz-adv-x="484" 
d="M236 561h-69l13 79h69zM403 561h-70l13 79h70zM53 94q0 16 4 44l53 332h46l-53 -334q-4 -28 -4 -40q0 -30 17 -47t49 -17q35 0 75.5 31.5t105.5 104.5l47 302h46l-51 -322v-148h-40l-5 114q-56 -62 -98.5 -93t-83.5 -31q-52 0 -80 26.5t-28 77.5z" />
    <glyph glyph-name="yacute" unicode="&#xfd;" horiz-adv-x="445" 
d="M453 687l-160 -140h-40l131 155zM450 470l-277 -548q-28 -55 -56.5 -77.5t-70.5 -22.5q-12 0 -26 2v41q14 -2 28 -2q29 0 48.5 16.5t40.5 56.5l33 63l-102 466l45 10l86 -419l201 414h50z" />
    <glyph glyph-name="thorn" unicode="&#xfe;" horiz-adv-x="479" 
d="M97 53q46 -19 89 -19q86 0 144.5 72.5t58.5 191.5q0 66 -25 104t-66 38q-31 0 -67 -27.5t-92 -92.5zM435 301q0 -133 -71.5 -220t-179.5 -87q-47 0 -94 17l-29 -182l-47 -10l141 886l47 10l-54 -335q45 52 80.5 76t75.5 24q62 0 96.5 -47t34.5 -132z" />
    <glyph glyph-name="ydieresis" unicode="&#xff;" horiz-adv-x="445" 
d="M231 561h-69l13 79h69zM398 561h-70l13 79h70zM450 470l-277 -548q-28 -55 -56.5 -77.5t-70.5 -22.5q-12 0 -26 2v41q14 -2 28 -2q29 0 48.5 16.5t40.5 56.5l33 63l-102 466l45 10l86 -419l201 414h50z" />
    <glyph glyph-name="Amacron" unicode="&#x100;" 
d="M540 793h-255l7 43h255zM525 -7l-52 243h-295l-125 -236h-51l375 694h39l154 -690zM387 627l-187 -350h264z" />
    <glyph glyph-name="amacron" unicode="&#x101;" horiz-adv-x="478" 
d="M430 583h-255l7 43h255zM338 164l44 256q-38 16 -83 16q-84 0 -146 -81t-62 -206q0 -58 19.5 -88.5t52.5 -30.5q29 0 66.5 29t108.5 105zM337 113q-60 -64 -100.5 -93.5t-77.5 -29.5q-54 0 -84.5 41.5t-30.5 114.5q0 138 76.5 234.5t185.5 96.5q63 0 125 -31l-50 -300
v-146h-40z" />
    <glyph glyph-name="Abreve" unicode="&#x102;" 
d="M549 876q-14 -45 -50 -77t-92 -32t-82 32t-24 77l36 5q4 -32 24.5 -49.5t53.5 -17.5q68 0 100 67zM525 -7l-52 243h-295l-125 -236h-51l375 694h39l154 -690zM387 627l-187 -350h264z" />
    <glyph glyph-name="abreve" unicode="&#x103;" horiz-adv-x="478" 
d="M439 666q-14 -45 -50 -77t-92 -32t-82 32t-24 77l36 5q4 -32 24.5 -49.5t53.5 -17.5q68 0 100 67zM338 164l44 256q-38 16 -83 16q-84 0 -146 -81t-62 -206q0 -58 19.5 -88.5t52.5 -30.5q29 0 66.5 29t108.5 105zM337 113q-60 -64 -100.5 -93.5t-77.5 -29.5
q-54 0 -84.5 41.5t-30.5 114.5q0 138 76.5 234.5t185.5 96.5q63 0 125 -31l-50 -300v-146h-40z" />
    <glyph glyph-name="Aogonek" unicode="&#x104;" 
d="M511 -173q-63 0 -63 52q0 48 54 98l22 21l-51 238h-295l-125 -236h-51l375 694h39l154 -690l-38 -38q-41 -41 -41 -74q0 -30 35 -30q20 0 36 5l-5 -32q-24 -8 -46 -8zM387 627l-187 -350h264z" />
    <glyph glyph-name="aogonek" unicode="&#x105;" horiz-adv-x="478" 
d="M338 164l44 256q-38 16 -83 16q-84 0 -146 -81t-62 -206q0 -58 19.5 -88.5t52.5 -30.5q29 0 66.5 29t108.5 105zM364 -165q-24 -8 -46 -8q-63 0 -63 52q0 48 54 98l32 30l-4 106q-60 -64 -100.5 -93.5t-77.5 -29.5q-54 0 -84.5 41.5t-30.5 114.5q0 138 76.5 234.5
t185.5 96.5q63 0 125 -31l-50 -300v-146h-8l-34 -34q-41 -41 -41 -74q0 -30 35 -30q20 0 36 5z" />
    <glyph glyph-name="Cacute" unicode="&#x106;" horiz-adv-x="570" 
d="M603 902l-160 -140h-40l131 155zM575 645l-8 -54q-74 68 -162 68q-122 0 -204 -112t-82 -266q0 -115 55.5 -182.5t144.5 -67.5q91 0 178 59v-51q-88 -51 -182 -51q-107 0 -176.5 78t-69.5 215q0 170 97.5 295.5t237.5 125.5q98 0 171 -57z" />
    <glyph glyph-name="cacute" unicode="&#x107;" horiz-adv-x="408" 
d="M461 692l-160 -140h-40l131 155zM389 440l-8 -48q-60 47 -112 47q-73 0 -125 -74.5t-52 -171.5q0 -77 34.5 -119.5t94.5 -42.5q54 0 118 45v-45q-57 -41 -122 -41q-77 0 -124.5 53.5t-47.5 147.5q0 117 66 203t160 86q63 0 118 -40z" />
    <glyph glyph-name="Cdotaccent" unicode="&#x10a;" horiz-adv-x="570" 
d="M465 771h-71l13 81h71zM575 645l-8 -54q-74 68 -162 68q-122 0 -204 -112t-82 -266q0 -115 55.5 -182.5t144.5 -67.5q91 0 178 59v-51q-88 -51 -182 -51q-107 0 -176.5 78t-69.5 215q0 170 97.5 295.5t237.5 125.5q98 0 171 -57z" />
    <glyph glyph-name="cdotaccent" unicode="&#x10b;" horiz-adv-x="408" 
d="M322 561h-71l13 81h71zM389 440l-8 -48q-60 47 -112 47q-73 0 -125 -74.5t-52 -171.5q0 -77 34.5 -119.5t94.5 -42.5q54 0 118 45v-45q-57 -41 -122 -41q-77 0 -124.5 53.5t-47.5 147.5q0 117 66 203t160 86q63 0 118 -40z" />
    <glyph glyph-name="Ccaron" unicode="&#x10c;" horiz-adv-x="570" 
d="M324 911h26l86 -96l110 96h34l-132 -149h-42zM575 645l-8 -54q-74 68 -162 68q-122 0 -204 -112t-82 -266q0 -115 55.5 -182.5t144.5 -67.5q91 0 178 59v-51q-88 -51 -182 -51q-107 0 -176.5 78t-69.5 215q0 170 97.5 295.5t237.5 125.5q98 0 171 -57z" />
    <glyph glyph-name="ccaron" unicode="&#x10d;" horiz-adv-x="408" 
d="M181 701h26l86 -96l110 96h34l-132 -149h-42zM389 440l-8 -48q-60 47 -112 47q-73 0 -125 -74.5t-52 -171.5q0 -77 34.5 -119.5t94.5 -42.5q54 0 118 45v-45q-57 -41 -122 -41q-77 0 -124.5 53.5t-47.5 147.5q0 117 66 203t160 86q63 0 118 -40z" />
    <glyph glyph-name="Dcaron" unicode="&#x10e;" horiz-adv-x="642" 
d="M281 901h26l86 -96l110 96h34l-132 -149h-42zM607 404q0 -183 -117 -300q-104 -104 -257 -104h-175l110 690h155q138 0 211 -76.5t73 -209.5zM557 404q0 114 -60.5 179t-179.5 65h-108l-97 -606h124q126 0 215 87q106 106 106 275z" />
    <glyph glyph-name="dcaron" unicode="&#x10f;" horiz-adv-x="481" 
d="M579 719q10 -27 10 -50q0 -73 -81 -138l-23 5q54 62 54 115q0 22 -10 57zM382 417q-46 19 -89 19q-86 0 -144 -72.5t-58 -191.5q0 -66 24.5 -104t65.5 -38q31 0 67 27.5t92 92.5zM474 715l-89 -567v-148h-40l-5 100q-51 -59 -87 -84.5t-78 -25.5q-62 0 -96.5 47
t-34.5 132q0 133 71.5 220t179.5 87q47 0 94 -17l38 246z" />
    <glyph glyph-name="Dcroat" unicode="&#x110;" horiz-adv-x="650" 
d="M241 0h-175l54 341h-83v41h90l49 308h155q138 0 211 -76.5t73 -209.5q0 -183 -117 -300q-104 -104 -257 -104zM120 42h124q126 0 215 87q106 106 106 275q0 114 -60.5 179t-179.5 65h-108l-43 -266h167l-6 -41h-167z" />
    <glyph glyph-name="dcroat" unicode="&#x111;" horiz-adv-x="481" 
d="M382 417q-46 19 -89 19q-86 0 -144 -72.5t-58 -191.5q0 -66 24.5 -104t65.5 -38q31 0 67 27.5t92 92.5zM340 100q-51 -59 -87 -84.5t-78 -25.5q-62 0 -96.5 47t-34.5 132q0 133 71.5 220t179.5 87q47 0 94 -17l20 132h-135v40h142l11 74l47 10l-13 -84h82l-6 -40h-82
l-70 -443v-148h-40z" />
    <glyph glyph-name="Emacron" unicode="&#x112;" horiz-adv-x="476" 
d="M474 783h-255l7 43h255zM497 690l-7 -43h-282l-42 -264h222v-43h-229l-48 -297h293l-7 -43h-339l110 690h329z" />
    <glyph glyph-name="emacron" unicode="&#x113;" horiz-adv-x="439" 
d="M410 583h-255l7 43h255zM258 440q-50 0 -94.5 -44.5t-61.5 -119.5h248q9 78 -14.5 121t-77.5 43zM361 44q-75 -54 -148 -54q-81 0 -124.5 53t-43.5 144q0 129 65 211t150 82q67 0 103 -44t36 -125q0 -27 -7 -72h-297q-3 -24 -3 -50q0 -74 33 -116t91 -42q65 0 145 60v-47
z" />
    <glyph glyph-name="Ebreve" unicode="&#x114;" horiz-adv-x="476" 
d="M483 866q-14 -45 -50 -77t-92 -32t-82 32t-24 77l36 5q4 -32 24.5 -49.5t53.5 -17.5q68 0 100 67zM497 690l-7 -43h-282l-42 -264h222v-43h-229l-48 -297h293l-7 -43h-339l110 690h329z" />
    <glyph glyph-name="ebreve" unicode="&#x115;" horiz-adv-x="439" 
d="M420 666q-14 -45 -50 -77t-92 -32t-82 32t-24 77l36 5q4 -32 24.5 -49.5t53.5 -17.5q68 0 100 67zM258 440q-50 0 -94.5 -44.5t-61.5 -119.5h248q9 78 -14.5 121t-77.5 43zM361 44q-75 -54 -148 -54q-81 0 -124.5 53t-43.5 144q0 129 65 211t150 82q67 0 103 -44t36 -125
q0 -27 -7 -72h-297q-3 -24 -3 -50q0 -74 33 -116t91 -42q65 0 145 60v-47z" />
    <glyph glyph-name="Edotaccent" unicode="&#x116;" horiz-adv-x="476" 
d="M378 761h-71l13 81h71zM497 690l-7 -43h-282l-42 -264h222v-43h-229l-48 -297h293l-7 -43h-339l110 690h329z" />
    <glyph glyph-name="edotaccent" unicode="&#x117;" horiz-adv-x="439" 
d="M315 561h-71l13 81h71zM258 440q-50 0 -94.5 -44.5t-61.5 -119.5h248q9 78 -14.5 121t-77.5 43zM361 44q-75 -54 -148 -54q-81 0 -124.5 53t-43.5 144q0 129 65 211t150 82q67 0 103 -44t36 -125q0 -27 -7 -72h-297q-3 -24 -3 -50q0 -74 33 -116t91 -42q65 0 145 60v-47z
" />
    <glyph glyph-name="Eogonek" unicode="&#x118;" horiz-adv-x="476" 
d="M373 -165q-24 -8 -46 -8q-63 0 -63 52q0 48 54 98l25 23h-285l110 690h329l-7 -43h-282l-42 -264h222v-43h-229l-48 -297h293l-7 -43h-15l-34 -34q-41 -41 -41 -74q0 -30 35 -30q20 0 36 5z" />
    <glyph glyph-name="eogonek" unicode="&#x119;" horiz-adv-x="439" 
d="M273 -173q-63 0 -63 51q0 25 12 45t44 55l23 26q-39 -14 -76 -14q-81 0 -124.5 53t-43.5 144q0 129 65 211t150 82q67 0 103 -44t36 -125q0 -27 -7 -72h-297q-3 -23 -3 -50q0 -74 33 -116t91 -42q65 0 145 60v-44l-67 -81q-41 -50 -41 -75q0 -29 35 -29q20 0 36 5l-5 -32
q-24 -8 -46 -8zM101 276h249q9 78 -14.5 121t-77.5 43q-52 0 -95 -44.5t-62 -119.5z" />
    <glyph glyph-name="Ecaron" unicode="&#x11a;" horiz-adv-x="476" 
d="M237 901h26l86 -96l110 96h34l-132 -149h-42zM497 690l-7 -43h-282l-42 -264h222v-43h-229l-48 -297h293l-7 -43h-339l110 690h329z" />
    <glyph glyph-name="ecaron" unicode="&#x11b;" horiz-adv-x="439" 
d="M174 701h26l86 -96l110 96h34l-132 -149h-42zM258 440q-50 0 -94.5 -44.5t-61.5 -119.5h248q9 78 -14.5 121t-77.5 43zM361 44q-75 -54 -148 -54q-81 0 -124.5 53t-43.5 144q0 129 65 211t150 82q67 0 103 -44t36 -125q0 -27 -7 -72h-297q-3 -24 -3 -50q0 -74 33 -116
t91 -42q65 0 145 60v-47z" />
    <glyph glyph-name="Gbreve" unicode="&#x11e;" horiz-adv-x="625" 
d="M563 876q-14 -45 -50 -77t-92 -32t-82 32t-24 77l36 5q4 -32 24.5 -49.5t53.5 -17.5q68 0 100 67zM572 350l-50 -303q-96 -59 -195 -59q-115 0 -186.5 81t-71.5 210q0 111 43.5 208t122 156t172.5 59q104 0 176 -60l-9 -53q-75 70 -166 70q-81 0 -148 -52.5t-104 -139.5
t-37 -188q0 -113 59.5 -181t151.5 -68q84 0 149 40l39 238h-175v42h229z" />
    <glyph glyph-name="gbreve" unicode="&#x11f;" horiz-adv-x="479" 
d="M453 666q-14 -45 -50 -77t-92 -32t-82 32t-24 77l36 5q4 -32 24.5 -49.5t53.5 -17.5q68 0 100 67zM382 415q-48 21 -91 21q-85 0 -142 -70.5t-57 -187.5q0 -64 24.5 -100.5t65.5 -36.5q31 0 66.5 28t92.5 92zM431 441l-69 -435q-14 -91 -64 -137.5t-130 -46.5
q-69 0 -150 34l8 43q78 -35 147 -35q123 0 145 146l14 92q-45 -52 -80 -76.5t-75 -24.5q-62 0 -97 46t-35 128q0 130 71 216t180 86q63 0 135 -36z" />
    <glyph glyph-name="Gdotaccent" unicode="&#x120;" horiz-adv-x="625" 
d="M458 771h-71l13 81h71zM572 350l-50 -303q-96 -59 -195 -59q-115 0 -186.5 81t-71.5 210q0 111 43.5 208t122 156t172.5 59q104 0 176 -60l-9 -53q-75 70 -166 70q-81 0 -148 -52.5t-104 -139.5t-37 -188q0 -113 59.5 -181t151.5 -68q84 0 149 40l39 238h-175v42h229z
" />
    <glyph glyph-name="gdotaccent" unicode="&#x121;" horiz-adv-x="479" 
d="M348 561h-71l13 81h71zM382 415q-48 21 -91 21q-85 0 -142 -70.5t-57 -187.5q0 -64 24.5 -100.5t65.5 -36.5q31 0 66.5 28t92.5 92zM431 441l-69 -435q-14 -91 -64 -137.5t-130 -46.5q-69 0 -150 34l8 43q78 -35 147 -35q123 0 145 146l14 92q-45 -52 -80 -76.5
t-75 -24.5q-62 0 -97 46t-35 128q0 130 71 216t180 86q63 0 135 -36z" />
    <glyph glyph-name="Gcommaaccent" unicode="&#x122;" horiz-adv-x="625" 
d="M572 350l-50 -303q-96 -59 -195 -59q-115 0 -186.5 81t-71.5 210q0 111 43.5 208t122 156t172.5 59q104 0 176 -60l-9 -53q-75 70 -166 70q-81 0 -148 -52.5t-104 -139.5t-37 -188q0 -113 59.5 -181t151.5 -68q84 0 149 40l39 238h-175v42h229zM242 -87l44 21
q37 -29 37 -67q0 -59 -92 -124l-32 4q78 65 78 108q0 27 -35 58z" />
    <glyph glyph-name="gcommaaccent" unicode="&#x123;" horiz-adv-x="479" 
d="M355 578l-44 -21q-37 29 -37 67q0 59 92 124l32 -4q-78 -64 -78 -108q0 -27 35 -58zM382 415q-48 21 -91 21q-85 0 -142 -70.5t-57 -187.5q0 -64 24.5 -100.5t65.5 -36.5q31 0 66.5 28t92.5 92zM431 441l-69 -435q-14 -91 -64 -137.5t-130 -46.5q-69 0 -150 34l8 43
q78 -35 147 -35q123 0 145 146l14 92q-45 -52 -80 -76.5t-75 -24.5q-62 0 -97 46t-35 128q0 130 71 216t180 86q63 0 135 -36z" />
    <glyph glyph-name="Hbar" unicode="&#x126;" horiz-adv-x="678" 
d="M174 382h377l25 157h-377zM167 340l-54 -340h-47l86 539h-84v41h90l18 110h47l-17 -110h377l17 110h47l-18 -110h88l-7 -41h-87l-86 -539h-47l54 340h-377z" />
    <glyph glyph-name="hbar" unicode="&#x127;" horiz-adv-x="482" 
d="M136 302l-47 -302h-46l94 591h-78v40h84l12 74l47 10l-13 -84h139l-6 -40h-140l-36 -227q53 58 94.5 87t80.5 29q52 0 80 -26.5t28 -77.5q0 -16 -4 -44l-53 -332h-46l53 334q4 28 4 40q0 30 -17 47t-49 17q-35 0 -75.5 -31.5t-105.5 -104.5z" />
    <glyph glyph-name="Imacron" unicode="&#x12a;" horiz-adv-x="254" 
d="M342 783h-255l7 43h255zM223 690l-110 -690h-47l110 690h47z" />
    <glyph glyph-name="imacron" unicode="&#x12b;" horiz-adv-x="220" 
d="M292 583h-255l7 43h255zM171 470l-76 -470h-46l76 470h46z" />
    <glyph glyph-name="Ibreve" unicode="&#x12c;" horiz-adv-x="254" 
d="M351 866q-14 -45 -50 -77t-92 -32t-82 32t-24 77l36 5q4 -32 24.5 -49.5t53.5 -17.5q68 0 100 67zM223 690l-110 -690h-47l110 690h47z" />
    <glyph glyph-name="ibreve" unicode="&#x12d;" horiz-adv-x="220" 
d="M302 666q-14 -45 -50 -77t-92 -32t-82 32t-24 77l36 5q4 -32 24.5 -49.5t53.5 -17.5q68 0 100 67zM171 470l-76 -470h-46l76 470h46z" />
    <glyph glyph-name="Iogonek" unicode="&#x12e;" horiz-adv-x="254" 
d="M101 -165q-24 -8 -46 -8q-63 0 -63 52q0 48 54 98l25 23h-5l110 690h47l-109 -686l-1 -4h-3l-34 -34q-41 -41 -41 -74q0 -30 35 -30q20 0 36 5z" />
    <glyph glyph-name="iogonek" unicode="&#x12f;" horiz-adv-x="220" 
d="M213 638q0 -16 -12 -28t-28 -12q-15 0 -27 12t-12 28t12 28t27 12q17 0 28.5 -12t11.5 -28zM83 -165q-24 -8 -46 -8q-63 0 -63 52q0 48 54 98l25 23h-4l76 470h46l-75 -466l-1 -4h-3l-34 -34q-41 -41 -41 -74q0 -30 35 -30q20 0 36 5z" />
    <glyph glyph-name="Idotaccent" unicode="&#x130;" horiz-adv-x="254" 
d="M246 761h-71l13 81h71zM223 690l-110 -690h-47l110 690h47z" />
    <glyph glyph-name="dotlessi" unicode="&#x131;" horiz-adv-x="220" 
d="M171 470l-76 -470h-46l76 470h46z" />
    <glyph glyph-name="Kcommaaccent" unicode="&#x136;" horiz-adv-x="565" 
d="M598 690l-381 -324l293 -361l-51 -12l-297 368l-57 -361h-47l110 690h47l-51 -318l369 318h65zM205 -87l44 21q37 -29 37 -67q0 -59 -92 -124l-32 4q78 65 78 108q0 27 -35 58z" />
    <glyph glyph-name="kcommaaccent" unicode="&#x137;" horiz-adv-x="422" 
d="M89 0h-46l112 705l47 10l-71 -451l231 206h65l-247 -214l190 -251l-50 -12l-191 260zM130 -87l44 21q37 -29 37 -67q0 -59 -92 -124l-32 4q78 65 78 108q0 27 -35 58z" />
    <glyph glyph-name="Lacute" unicode="&#x139;" horiz-adv-x="438" 
d="M387 882l-160 -140h-40l131 155zM375 0h-317l110 690h47l-104 -647h264v-43z" />
    <glyph glyph-name="lacute" unicode="&#x13a;" horiz-adv-x="220" 
d="M370 897l-160 -140h-40l131 155zM208 715l-113 -715h-46l112 705z" />
    <glyph glyph-name="Lcommaaccent" unicode="&#x13b;" horiz-adv-x="438" 
d="M375 0h-317l110 690h47l-104 -647h264v-43zM154 -87l44 21q37 -29 37 -67q0 -59 -92 -124l-32 4q78 65 78 108q0 27 -35 58z" />
    <glyph glyph-name="lcommaaccent" unicode="&#x13c;" horiz-adv-x="220" 
d="M208 715l-113 -715h-46l112 705zM13 -87l44 21q37 -29 37 -67q0 -59 -92 -124l-32 4q78 65 78 108q0 27 -35 58z" />
    <glyph glyph-name="Lcaron" unicode="&#x13d;" horiz-adv-x="438" 
d="M344 694q10 -27 10 -50q0 -73 -81 -138l-23 5q54 61 54 115q0 22 -10 57zM375 0h-317l110 690h47l-104 -647h264v-43z" />
    <glyph glyph-name="lcaron" unicode="&#x13e;" horiz-adv-x="231" 
d="M312 719q10 -27 10 -50q0 -73 -81 -138l-23 5q54 62 54 115q0 22 -10 57zM208 715l-113 -715h-46l112 705z" />
    <glyph glyph-name="Ldot" unicode="&#x13f;" horiz-adv-x="438" 
d="M375 0h-317l110 690h47l-104 -647h264v-43zM371 307h-67l13 77h67z" />
    <glyph glyph-name="ldot" unicode="&#x140;" horiz-adv-x="255" 
d="M208 715l-113 -715h-46l112 705zM277 317h-55l12 77h55z" />
    <glyph glyph-name="Lslash" unicode="&#x141;" horiz-adv-x="446" 
d="M383 0h-317l46 290l-91 -47v45l99 50l56 352h47l-52 -326l175 90l-8 -49l-175 -89l-44 -274h264v-42z" />
    <glyph glyph-name="lslash" unicode="&#x142;" horiz-adv-x="257" 
d="M114 0h-46l50 317l-90 -47v44l98 50l54 341l47 10l-52 -326l96 49l-7 -48l-96 -48z" />
    <glyph glyph-name="Nacute" unicode="&#x143;" horiz-adv-x="662" 
d="M593 892l-160 -140h-40l131 155zM639 690l-110 -690h-28l-302 608l-96 -608h-45l110 690h42l291 -591l93 591h45z" />
    <glyph glyph-name="nacute" unicode="&#x144;" horiz-adv-x="484" 
d="M466 692l-160 -140h-40l131 155zM431 376q0 -16 -4 -44l-53 -332h-46l53 334q4 28 4 40q0 30 -17 47t-49 17q-35 0 -75.5 -31.5t-105.5 -104.5l-47 -302h-46l51 322v148h40l5 -114q56 62 98.5 93t83.5 31q52 0 80 -26.5t28 -77.5z" />
    <glyph glyph-name="Ncommaaccent" unicode="&#x145;" horiz-adv-x="662" 
d="M639 690l-110 -690h-28l-302 608l-96 -608h-45l110 690h42l291 -591l93 591h45zM240 -87l44 21q37 -29 37 -67q0 -59 -92 -124l-32 4q78 65 78 108q0 27 -35 58z" />
    <glyph glyph-name="ncommaaccent" unicode="&#x146;" horiz-adv-x="484" 
d="M431 376q0 -16 -4 -44l-53 -332h-46l53 334q4 28 4 40q0 30 -17 47t-49 17q-35 0 -75.5 -31.5t-105.5 -104.5l-47 -302h-46l51 322v148h40l5 -114q56 62 98.5 93t83.5 31q52 0 80 -26.5t28 -77.5zM145 -87l44 21q37 -29 37 -67q0 -59 -92 -124l-32 4q78 65 78 108
q0 27 -35 58z" />
    <glyph glyph-name="Ncaron" unicode="&#x147;" horiz-adv-x="662" 
d="M313 901h26l86 -96l110 96h34l-132 -149h-42zM639 690l-110 -690h-28l-302 608l-96 -608h-45l110 690h42l291 -591l93 591h45z" />
    <glyph glyph-name="ncaron" unicode="&#x148;" horiz-adv-x="484" 
d="M186 701h26l86 -96l110 96h34l-132 -149h-42zM431 376q0 -16 -4 -44l-53 -332h-46l53 334q4 28 4 40q0 30 -17 47t-49 17q-35 0 -75.5 -31.5t-105.5 -104.5l-47 -302h-46l51 322v148h40l5 -114q56 62 98.5 93t83.5 31q52 0 80 -26.5t28 -77.5z" />
    <glyph glyph-name="Omacron" unicode="&#x14c;" horiz-adv-x="698" 
d="M573 793h-255l7 43h255zM326 -13q-117 0 -186.5 86.5t-69.5 217.5q0 96 34 179.5t94 143.5q89 89 209 89q117 0 186.5 -86.5t69.5 -217.5q0 -96 -34 -179.5t-94 -143.5q-89 -89 -209 -89zM328 30q97 0 174 77q111 111 111 292q0 116 -56.5 188.5t-151.5 72.5
q-97 0 -174 -77q-111 -111 -111 -292q0 -116 56.5 -188.5t151.5 -72.5z" />
    <glyph glyph-name="omacron" unicode="&#x14d;" horiz-adv-x="468" 
d="M416 583h-255l7 43h255zM423 281q0 -118 -63.5 -204.5t-157.5 -86.5q-74 0 -115.5 54t-41.5 145q0 118 63.5 204.5t157.5 86.5q74 0 115.5 -54.5t41.5 -144.5zM376 279q0 78 -30.5 119.5t-81.5 41.5q-71 0 -121.5 -74.5t-50.5 -174.5q0 -78 31 -119.5t82 -41.5
q71 0 121 74.5t50 174.5z" />
    <glyph glyph-name="Obreve" unicode="&#x14e;" horiz-adv-x="698" 
d="M583 876q-14 -45 -50 -77t-92 -32t-82 32t-24 77l36 5q4 -32 24.5 -49.5t53.5 -17.5q68 0 100 67zM326 -13q-117 0 -186.5 86.5t-69.5 217.5q0 96 34 179.5t94 143.5q89 89 209 89q117 0 186.5 -86.5t69.5 -217.5q0 -96 -34 -179.5t-94 -143.5q-89 -89 -209 -89zM328 30
q97 0 174 77q111 111 111 292q0 116 -56.5 188.5t-151.5 72.5q-97 0 -174 -77q-111 -111 -111 -292q0 -116 56.5 -188.5t151.5 -72.5z" />
    <glyph glyph-name="obreve" unicode="&#x14f;" horiz-adv-x="468" 
d="M426 666q-14 -45 -50 -77t-92 -32t-82 32t-24 77l36 5q4 -32 24.5 -49.5t53.5 -17.5q68 0 100 67zM423 281q0 -118 -63.5 -204.5t-157.5 -86.5q-74 0 -115.5 54t-41.5 145q0 118 63.5 204.5t157.5 86.5q74 0 115.5 -54.5t41.5 -144.5zM376 279q0 78 -30.5 119.5
t-81.5 41.5q-71 0 -121.5 -74.5t-50.5 -174.5q0 -78 31 -119.5t82 -41.5q71 0 121 74.5t50 174.5z" />
    <glyph glyph-name="Ohungarumlaut" unicode="&#x150;" horiz-adv-x="698" 
d="M531 906l-161 -140h-35l131 157zM692 906l-160 -140h-35l130 157zM326 -13q-117 0 -186.5 86.5t-69.5 217.5q0 96 34 179.5t94 143.5q89 89 209 89q117 0 186.5 -86.5t69.5 -217.5q0 -96 -34 -179.5t-94 -143.5q-89 -89 -209 -89zM328 30q97 0 174 77q111 111 111 292
q0 116 -56.5 188.5t-151.5 72.5q-97 0 -174 -77q-111 -111 -111 -292q0 -116 56.5 -188.5t151.5 -72.5z" />
    <glyph glyph-name="ohungarumlaut" unicode="&#x151;" horiz-adv-x="468" 
d="M374 696l-161 -140h-35l131 157zM535 696l-160 -140h-35l130 157zM423 281q0 -118 -63.5 -204.5t-157.5 -86.5q-74 0 -115.5 54t-41.5 145q0 118 63.5 204.5t157.5 86.5q74 0 115.5 -54.5t41.5 -144.5zM376 279q0 78 -30.5 119.5t-81.5 41.5q-71 0 -121.5 -74.5
t-50.5 -174.5q0 -78 31 -119.5t82 -41.5q71 0 121 74.5t50 174.5z" />
    <glyph glyph-name="OE" unicode="&#x152;" horiz-adv-x="869" 
d="M354 0q-138 0 -211 76.5t-73 209.5q0 183 117 300q104 104 257 104h446l-7 -42h-282l-42 -266h222v-42h-229l-48 -298h293l-7 -42h-436zM360 41h98l97 608h-114q-125 0 -215 -88q-106 -106 -106 -275q0 -114 60.5 -179.5t179.5 -65.5z" />
    <glyph glyph-name="oe" unicode="&#x153;" horiz-adv-x="764" 
d="M724 311q0 -27 -7 -72h-297q-3 -22 -3 -46q0 -76 34 -119t92 -43q63 0 143 60v-47q-75 -54 -148 -54q-61 0 -101 33t-55 92q-29 -58 -74.5 -91.5t-101.5 -33.5q-75 0 -118 53t-43 146q0 117 62 204t155 87q58 0 96.5 -31.5t52.5 -90.5q30 57 76 89.5t98 32.5
q67 0 103 -44t36 -125zM583 440q-51 0 -94.5 -45t-61.5 -119h248q9 78 -14.5 121t-77.5 43zM376 280q0 81 -34 120.5t-82 39.5q-71 0 -119.5 -76.5t-48.5 -172.5q0 -81 34 -121t83 -40q71 0 119 76.5t48 173.5z" />
    <glyph glyph-name="Racute" unicode="&#x154;" horiz-adv-x="534" 
d="M499 892l-160 -140h-40l131 155zM495 523q0 -81 -52 -136t-138 -69l177 -314l-48 -11l-181 318h-99l-49 -311h-47l110 690h128q94 0 146.5 -43.5t52.5 -123.5zM447 521q0 127 -156 127h-83l-47 -295h91q88 0 141.5 47.5t53.5 120.5z" />
    <glyph glyph-name="racute" unicode="&#x155;" horiz-adv-x="307" 
d="M374 692l-160 -140h-40l131 155zM317 430q-54 -5 -92.5 -39t-88.5 -106l-45 -285h-46l51 322v148h40l5 -125q41 64 83 98t93 34v-47z" />
    <glyph glyph-name="Rcommaaccent" unicode="&#x156;" horiz-adv-x="534" 
d="M495 523q0 -81 -52 -136t-138 -69l177 -314l-48 -11l-181 318h-99l-49 -311h-47l110 690h128q94 0 146.5 -43.5t52.5 -123.5zM447 521q0 127 -156 127h-83l-47 -295h91q88 0 141.5 47.5t53.5 120.5zM188 -87l44 21q37 -29 37 -67q0 -59 -92 -124l-32 4q78 65 78 108
q0 27 -35 58z" />
    <glyph glyph-name="rcommaaccent" unicode="&#x157;" horiz-adv-x="307" 
d="M317 430q-54 -5 -92.5 -39t-88.5 -106l-45 -285h-46l51 322v148h40l5 -125q41 64 83 98t93 34v-47zM18 -87l44 21q37 -29 37 -67q0 -59 -92 -124l-32 4q78 65 78 108q0 27 -35 58z" />
    <glyph glyph-name="Rcaron" unicode="&#x158;" horiz-adv-x="534" 
d="M220 901h26l86 -96l110 96h34l-132 -149h-42zM495 523q0 -81 -52 -136t-138 -69l177 -314l-48 -11l-181 318h-99l-49 -311h-47l110 690h128q94 0 146.5 -43.5t52.5 -123.5zM447 521q0 127 -156 127h-83l-47 -295h91q88 0 141.5 47.5t53.5 120.5z" />
    <glyph glyph-name="rcaron" unicode="&#x159;" horiz-adv-x="307" 
d="M95 701h26l86 -96l110 96h34l-132 -149h-42zM317 430q-54 -5 -92.5 -39t-88.5 -106l-45 -285h-46l51 322v148h40l5 -125q41 64 83 98t93 34v-47z" />
    <glyph glyph-name="Sacute" unicode="&#x15a;" horiz-adv-x="479" 
d="M500 902l-160 -140h-40l131 155zM459 660l-8 -51q-72 49 -148 49q-67 0 -107 -40t-40 -97q0 -41 27 -73t92 -70q84 -49 116 -90.5t32 -102.5q0 -85 -62 -139.5t-155 -54.5q-100 0 -180 53l8 50q82 -62 176 -62q70 0 117.5 41.5t47.5 105.5q0 48 -24.5 80.5t-92.5 72.5
q-85 50 -117 89t-32 96q0 77 55 129.5t143 52.5q80 0 152 -39z" />
    <glyph glyph-name="sacute" unicode="&#x15b;" horiz-adv-x="375" 
d="M408 692l-160 -140h-40l131 155zM337 447l-9 -47q-60 41 -116 41q-41 0 -68.5 -23.5t-27.5 -58.5q0 -27 17.5 -45.5t64.5 -44.5q70 -38 94 -66t24 -74q0 -66 -43 -102.5t-110 -36.5q-85 0 -152 47l10 46q66 -54 146 -54q43 0 73.5 26t30.5 67q0 32 -18.5 52.5t-72.5 49.5
q-60 32 -84.5 59t-24.5 68q0 58 41.5 93.5t101.5 35.5q65 0 123 -33z" />
    <glyph glyph-name="Scedilla" unicode="&#x15e;" horiz-adv-x="479" 
d="M459 660l-8 -51q-72 49 -148 49q-67 0 -107 -40t-40 -97q0 -41 27 -73t92 -70q84 -49 116 -90.5t32 -102.5q0 -85 -62 -139.5t-155 -54.5q-100 0 -180 53l8 50q82 -62 176 -62q70 0 117.5 41.5t47.5 105.5q0 48 -24.5 80.5t-92.5 72.5q-85 50 -117 89t-32 96
q0 77 55 129.5t143 52.5q80 0 152 -39zM234 -77l-140 -119h-36l111 135z" />
    <glyph glyph-name="scedilla" unicode="&#x15f;" horiz-adv-x="375" 
d="M337 447l-9 -47q-60 41 -116 41q-41 0 -68.5 -23.5t-27.5 -58.5q0 -27 17.5 -45.5t64.5 -44.5q70 -38 94 -66t24 -74q0 -66 -43 -102.5t-110 -36.5q-85 0 -152 47l10 46q66 -54 146 -54q43 0 73.5 26t30.5 67q0 32 -18.5 52.5t-72.5 49.5q-60 32 -84.5 59t-24.5 68
q0 58 41.5 93.5t101.5 35.5q65 0 123 -33zM174 -77l-140 -119h-36l111 135z" />
    <glyph glyph-name="Scaron" unicode="&#x160;" horiz-adv-x="479" 
d="M221 911h26l86 -96l110 96h34l-132 -149h-42zM459 660l-8 -51q-72 49 -148 49q-67 0 -107 -40t-40 -97q0 -41 27 -73t92 -70q84 -49 116 -90.5t32 -102.5q0 -85 -62 -139.5t-155 -54.5q-100 0 -180 53l8 50q82 -62 176 -62q70 0 117.5 41.5t47.5 105.5q0 48 -24.5 80.5
t-92.5 72.5q-85 50 -117 89t-32 96q0 77 55 129.5t143 52.5q80 0 152 -39z" />
    <glyph glyph-name="scaron" unicode="&#x161;" horiz-adv-x="375" 
d="M128 701h26l86 -96l110 96h34l-132 -149h-42zM337 447l-9 -47q-60 41 -116 41q-41 0 -68.5 -23.5t-27.5 -58.5q0 -27 17.5 -45.5t64.5 -44.5q70 -38 94 -66t24 -74q0 -66 -43 -102.5t-110 -36.5q-85 0 -152 47l10 46q66 -54 146 -54q43 0 73.5 26t30.5 67
q0 32 -18.5 52.5t-72.5 49.5q-60 32 -84.5 59t-24.5 68q0 58 41.5 93.5t101.5 35.5q65 0 123 -33z" />
    <glyph glyph-name="Tcommaaccent" unicode="&#x162;" horiz-adv-x="524" 
d="M567 647h-214l-103 -647h-47l103 647h-211l7 43h465v-43zM169 -87l44 21q37 -29 37 -67q0 -59 -92 -124l-32 4q78 65 78 108q0 27 -35 58z" />
    <glyph glyph-name="tcommaaccent" unicode="&#x163;" horiz-adv-x="311" 
d="M298 431h-120l-46 -290q-6 -42 -6 -54q0 -55 60 -55q22 0 50 6v-39q-28 -7 -58 -7q-98 0 -98 89q0 28 5 58l47 292h-74l7 39h73l26 167l47 10l-27 -177h114v-39zM87 -87l44 21q37 -29 37 -67q0 -59 -92 -124l-32 4q78 65 78 108q0 27 -35 58z" />
    <glyph glyph-name="Tcaron" unicode="&#x164;" horiz-adv-x="524" 
d="M242 901h26l86 -96l110 96h34l-132 -149h-42zM567 647h-214l-103 -647h-47l103 647h-211l7 43h465v-43z" />
    <glyph glyph-name="tcaron" unicode="&#x165;" horiz-adv-x="311" 
d="M338 725q10 -27 10 -50q0 -73 -81 -138l-23 5q54 62 54 115q0 22 -10 57zM298 431h-120l-46 -290q-6 -42 -6 -54q0 -55 60 -55q22 0 50 6v-39q-28 -7 -58 -7q-98 0 -98 89q0 28 5 58l47 292h-74l7 39h73l26 167l47 10l-27 -177h114v-39z" />
    <glyph glyph-name="Umacron" unicode="&#x16a;" horiz-adv-x="675" 
d="M550 783h-255l7 43h255zM661 690l-70 -444q-19 -119 -89.5 -187.5t-183.5 -68.5q-104 0 -166 59t-62 165q0 38 6 76l63 400h47l-65 -413q-5 -33 -5 -61q0 -86 48.5 -135.5t136.5 -49.5q93 0 149.5 57.5t73.5 163.5l70 438h47z" />
    <glyph glyph-name="umacron" unicode="&#x16b;" horiz-adv-x="484" 
d="M414 578h-255l7 43h255zM53 94q0 16 4 44l53 332h46l-53 -334q-4 -28 -4 -40q0 -30 17 -47t49 -17q35 0 75.5 31.5t105.5 104.5l47 302h46l-51 -322v-148h-40l-5 114q-56 -62 -98.5 -93t-83.5 -31q-52 0 -80 26.5t-28 77.5z" />
    <glyph glyph-name="Ubreve" unicode="&#x16c;" horiz-adv-x="675" 
d="M560 861q-14 -45 -50 -77t-92 -32t-82 32t-24 77l36 5q4 -32 24.5 -49.5t53.5 -17.5q68 0 100 67zM661 690l-70 -444q-19 -119 -89.5 -187.5t-183.5 -68.5q-104 0 -166 59t-62 165q0 38 6 76l63 400h47l-65 -413q-5 -33 -5 -61q0 -86 48.5 -135.5t136.5 -49.5
q93 0 149.5 57.5t73.5 163.5l70 438h47z" />
    <glyph glyph-name="ubreve" unicode="&#x16d;" horiz-adv-x="484" 
d="M424 656q-14 -45 -50 -77t-92 -32t-82 32t-24 77l36 5q4 -32 24.5 -49.5t53.5 -17.5q68 0 100 67zM53 94q0 16 4 44l53 332h46l-53 -334q-4 -28 -4 -40q0 -30 17 -47t49 -17q35 0 75.5 31.5t105.5 104.5l47 302h46l-51 -322v-148h-40l-5 114q-56 -62 -98.5 -93t-83.5 -31
q-52 0 -80 26.5t-28 77.5z" />
    <glyph glyph-name="Uring" unicode="&#x16e;" horiz-adv-x="675" 
d="M432 740q-40 0 -67 26t-27 66q0 39 27 66.5t67 27.5q39 0 66 -27.5t27 -66.5q0 -40 -26.5 -66t-66.5 -26zM432 770q26 0 42.5 17.5t16.5 44.5t-17 45t-42 18q-26 0 -43 -18t-17 -45t17 -44.5t43 -17.5zM661 690l-70 -444q-19 -119 -89.5 -187.5t-183.5 -68.5
q-104 0 -166 59t-62 165q0 38 6 76l63 400h47l-65 -413q-5 -33 -5 -61q0 -86 48.5 -135.5t136.5 -49.5q93 0 149.5 57.5t73.5 163.5l70 438h47z" />
    <glyph glyph-name="uring" unicode="&#x16f;" horiz-adv-x="482" 
d="M297 535q-40 0 -67 26t-27 66q0 39 27 66.5t67 27.5q39 0 66 -27.5t27 -66.5q0 -40 -26.5 -66t-66.5 -26zM297 565q26 0 42.5 17.5t16.5 44.5t-17 45t-42 18q-26 0 -43 -18t-17 -45t17 -44.5t43 -17.5zM53 94q0 16 4 44l53 332h46l-53 -334q-4 -28 -4 -40q0 -30 17 -47
t49 -17q35 0 75.5 31.5t105.5 104.5l47 302h46l-51 -322v-148h-40l-5 114q-56 -62 -98.5 -93t-83.5 -31q-52 0 -80 26.5t-28 77.5z" />
    <glyph glyph-name="Uhungarumlaut" unicode="&#x170;" horiz-adv-x="675" 
d="M508 896l-161 -140h-35l131 157zM669 896l-160 -140h-35l130 157zM661 690l-70 -444q-19 -119 -89.5 -187.5t-183.5 -68.5q-104 0 -166 59t-62 165q0 38 6 76l63 400h47l-65 -413q-5 -33 -5 -61q0 -86 48.5 -135.5t136.5 -49.5q93 0 149.5 57.5t73.5 163.5l70 438h47z
" />
    <glyph glyph-name="uhungarumlaut" unicode="&#x171;" horiz-adv-x="484" 
d="M372 691l-161 -140h-35l131 157zM533 691l-160 -140h-35l130 157zM53 94q0 16 4 44l53 332h46l-53 -334q-4 -28 -4 -40q0 -30 17 -47t49 -17q35 0 75.5 31.5t105.5 104.5l47 302h46l-51 -322v-148h-40l-5 114q-56 -62 -98.5 -93t-83.5 -31q-52 0 -80 26.5t-28 77.5z" />
    <glyph glyph-name="Uogonek" unicode="&#x172;" horiz-adv-x="675" 
d="M292 -173q-63 0 -63 52q0 48 54 98l15 14q-96 5 -152 63.5t-56 159.5q0 38 6 76l63 400h47l-65 -413q-5 -33 -5 -61q0 -86 48.5 -135.5t136.5 -49.5q93 0 149.5 57.5t73.5 163.5l70 438h47l-70 -444q-18 -114 -83.5 -181.5t-169.5 -73.5l-25 -25q-41 -41 -41 -74
q0 -30 35 -30q20 0 36 5l-5 -32q-24 -8 -46 -8z" />
    <glyph glyph-name="uogonek" unicode="&#x173;" horiz-adv-x="482" 
d="M371 -165q-24 -8 -46 -8q-63 0 -63 52q0 48 54 98l32 30l-5 107q-56 -62 -98.5 -93t-83.5 -31q-52 0 -80 26.5t-28 77.5q0 16 4 44l53 332h46l-53 -334q-4 -28 -4 -40q0 -30 17 -47t49 -17q35 0 75.5 31.5t105.5 104.5l47 302h46l-51 -322v-148h-8l-34 -34
q-41 -41 -41 -74q0 -30 35 -30q20 0 36 5z" />
    <glyph glyph-name="Wcircumflex" unicode="&#x174;" horiz-adv-x="985" 
d="M701 752h-26l-86 96l-110 -96h-34l132 149h42zM1009 690l-315 -690h-35l-107 618l-301 -618h-35l-95 686l48 11l79 -616l292 609h46l102 -609l271 609h50z" />
    <glyph glyph-name="wcircumflex" unicode="&#x175;" horiz-adv-x="681" 
d="M519 552h-26l-86 96l-110 -96h-34l132 149h42zM686 470l-232 -475h-33l-55 399l-178 -399h-34l-82 473l43 10l66 -412l180 407h36l53 -407l189 404h47z" />
    <glyph glyph-name="Ycircumflex" unicode="&#x176;" horiz-adv-x="576" 
d="M497 752h-26l-86 96l-110 -96h-34l132 149h42zM617 690l-294 -393l-47 -297h-47l47 296l-169 391l47 10l151 -361l258 354h54z" />
    <glyph glyph-name="ycircumflex" unicode="&#x177;" horiz-adv-x="445" 
d="M404 547h-26l-86 96l-110 -96h-34l132 149h42zM450 470l-277 -548q-28 -55 -56.5 -77.5t-70.5 -22.5q-12 0 -26 2v41q14 -2 28 -2q29 0 48.5 16.5t40.5 56.5l33 63l-102 466l45 10l86 -419l201 414h50z" />
    <glyph glyph-name="Ydieresis" unicode="&#x178;" horiz-adv-x="576" 
d="M323 766h-69l13 79h69zM490 766h-70l13 79h70zM617 690l-294 -393l-47 -297h-47l47 296l-169 391l47 10l151 -361l258 354h54z" />
    <glyph glyph-name="Zacute" unicode="&#x179;" horiz-adv-x="568" 
d="M542 892l-160 -140h-40l131 155zM577 690l-5 -32l-482 -617h387v-41h-454l5 32l483 617h-360v41h426z" />
    <glyph glyph-name="zacute" unicode="&#x17a;" horiz-adv-x="421" 
d="M431 692l-160 -140h-40l131 155zM405 470l-5 -35l-334 -396h273v-39h-334l5 36l334 395h-252v39h313z" />
    <glyph glyph-name="Zdotaccent" unicode="&#x17b;" horiz-adv-x="568" 
d="M403 761h-71l13 81h71zM577 690l-5 -32l-482 -617h387v-41h-454l5 32l483 617h-360v41h426z" />
    <glyph glyph-name="zdotaccent" unicode="&#x17c;" horiz-adv-x="421" 
d="M292 561h-71l13 81h71zM405 470l-5 -35l-334 -396h273v-39h-334l5 36l334 395h-252v39h313z" />
    <glyph glyph-name="Zcaron" unicode="&#x17d;" horiz-adv-x="568" 
d="M262 901h26l86 -96l110 96h34l-132 -149h-42zM577 690l-5 -32l-482 -617h387v-41h-454l5 32l483 617h-360v41h426z" />
    <glyph glyph-name="zcaron" unicode="&#x17e;" horiz-adv-x="421" 
d="M151 701h26l86 -96l110 96h34l-132 -149h-42zM405 470l-5 -35l-334 -396h273v-39h-334l5 36l334 395h-252v39h313z" />
    <glyph glyph-name="uni018F" unicode="&#x18f;" horiz-adv-x="653" 
d="M284 -13q-105 0 -158.5 68t-53.5 199q0 60 9 114h486q3 25 3 53q0 114 -55 176.5t-149 62.5q-105 0 -211 -68v50q105 61 215 61q115 0 181.5 -73.5t66.5 -206.5q0 -180 -97.5 -308t-236.5 -128zM287 30q98 0 175 84t100 213h-438q-4 -29 -4 -71q0 -226 167 -226z" />
    <glyph glyph-name="florin" unicode="&#x192;" horiz-adv-x="360" 
d="M286 414h-103l-67 -414h-45l67 414h-71l7 39h70l19 115q18 116 128 116q24 0 38 -3v-42q-15 4 -40 4q-70 0 -82 -79l-18 -111h97v-39z" />
    <glyph glyph-name="Aringacute" unicode="&#x1fa;" 
d="M587 999l-160 -140h-40l131 155zM525 -7l-52 243h-295l-125 -236h-51l354 656q-48 25 -48 81q0 39 27 66.5t67 27.5q39 0 66 -27.5t27 -66.5q0 -33 -19 -57t-50 -32l144 -644zM402 675q26 0 42.5 17.5t16.5 44.5t-17 45t-42 18q-26 0 -43 -18t-17 -45t17 -44.5t43 -17.5z
M387 627l-187 -350h264z" />
    <glyph glyph-name="aringacute" unicode="&#x1fb;" horiz-adv-x="478" 
d="M506 921l-160 -140h-40l131 155zM313 550q-40 0 -67 26t-27 66q0 39 27 66.5t67 27.5q39 0 66 -27.5t27 -66.5q0 -40 -26.5 -66t-66.5 -26zM313 580q26 0 42.5 17.5t16.5 44.5t-17 45t-42 18q-26 0 -43 -18t-17 -45t17 -44.5t43 -17.5zM338 164l44 256q-38 16 -83 16
q-84 0 -146 -81t-62 -206q0 -58 19.5 -88.5t52.5 -30.5q29 0 66.5 29t108.5 105zM337 113q-60 -64 -100.5 -93.5t-77.5 -29.5q-54 0 -84.5 41.5t-30.5 114.5q0 138 76.5 234.5t185.5 96.5q63 0 125 -31l-50 -300v-146h-40z" />
    <glyph glyph-name="AEacute" unicode="&#x1fc;" horiz-adv-x="855" 
d="M770 892l-160 -140h-40l131 155zM463 277l60 378l-284 -378h224zM419 0l38 236h-249l-177 -236h-51l519 690h359l-7 -42h-282l-42 -266h222v-42h-229l-48 -298h293l-7 -42h-339z" />
    <glyph glyph-name="aeacute" unicode="&#x1fd;" horiz-adv-x="715" 
d="M575 692l-160 -140h-40l131 155zM675 311q0 -27 -7 -72h-297q-3 -22 -3 -46q0 -77 34 -119.5t92 -42.5q63 0 143 60v-47q-75 -54 -148 -54q-107 0 -148 94q-105 -93 -190 -93q-56 0 -92 31t-36 88q0 161 311 184l4 31q8 60 -12.5 88t-73.5 28q-58 0 -144 -42v43
q80 38 147 38q115 0 128 -89q64 89 153 89q67 0 103 -44t36 -125zM626 276q9 78 -14.5 121t-77.5 43q-51 0 -95 -45t-62 -119h249zM328 121q-7 39 -7 70q0 35 6 67q-257 -19 -257 -145q0 -40 23.5 -61t62.5 -21q69 0 172 90z" />
    <glyph glyph-name="Oslashacute" unicode="&#x1fe;" horiz-adv-x="698" 
d="M616 902l-160 -140h-40l131 155zM326 -13q-109 0 -179 78l-63 -72l-43 9l82 94q-53 81 -53 195q0 96 34 179.5t94 143.5q89 89 209 89q111 0 180 -79l64 73l43 -9l-83 -95q52 -80 52 -194q0 -96 -34 -179.5t-94 -143.5q-89 -89 -209 -89zM120 291q0 -92 37 -158l399 455
q-58 72 -151 72q-97 0 -174 -77q-111 -111 -111 -292zM328 30q97 0 174 77q111 111 111 292q0 90 -36 157l-399 -456q57 -70 150 -70z" />
    <glyph glyph-name="oslashacute" unicode="&#x1ff;" horiz-adv-x="468" 
d="M460 692l-160 -140h-40l131 155zM202 -10q-68 0 -110 47l-37 -44l-39 9l55 66q-26 49 -26 121q0 118 63.5 204.5t157.5 86.5q70 0 110 -48l39 46l39 -9l-57 -68q26 -49 26 -120q0 -118 -63.5 -204.5t-157.5 -86.5zM91 191q0 -48 13 -85l243 291q-31 43 -83 43
q-71 0 -122 -75t-51 -174zM205 30q71 0 121.5 74.5t50.5 174.5q0 47 -13 84l-242 -290q30 -43 83 -43z" />
    <glyph glyph-name="Scommaaccent" unicode="&#x218;" horiz-adv-x="479" 
d="M459 660l-8 -51q-72 49 -148 49q-67 0 -107 -40t-40 -97q0 -41 27 -73t92 -70q84 -49 116 -90.5t32 -102.5q0 -85 -62 -139.5t-155 -54.5q-100 0 -180 53l8 50q82 -62 176 -62q70 0 117.5 41.5t47.5 105.5q0 48 -24.5 80.5t-92.5 72.5q-85 50 -117 89t-32 96
q0 77 55 129.5t143 52.5q80 0 152 -39zM146 -87l44 21q37 -29 37 -67q0 -59 -92 -124l-32 4q78 65 78 108q0 27 -35 58z" />
    <glyph glyph-name="scommaaccent" unicode="&#x219;" horiz-adv-x="375" 
d="M337 447l-9 -47q-60 41 -116 41q-41 0 -68.5 -23.5t-27.5 -58.5q0 -27 17.5 -45.5t64.5 -44.5q70 -38 94 -66t24 -74q0 -66 -43 -102.5t-110 -36.5q-85 0 -152 47l10 46q66 -54 146 -54q43 0 73.5 26t30.5 67q0 32 -18.5 52.5t-72.5 49.5q-60 32 -84.5 59t-24.5 68
q0 58 41.5 93.5t101.5 35.5q65 0 123 -33zM86 -87l44 21q37 -29 37 -67q0 -59 -92 -124l-32 4q78 65 78 108q0 27 -35 58z" />
    <glyph glyph-name="schwa" unicode="&#x259;" horiz-adv-x="439" 
d="M179 -10q-67 0 -103 44t-36 125q0 27 7 72h297q3 24 3 50q0 74 -33 116t-91 42q-65 0 -145 -60v47q75 54 148 54q81 0 124.5 -53t43.5 -144q0 -129 -65 -211t-150 -82zM181 30q50 0 94.5 44.5t61.5 119.5h-248q-9 -78 14.5 -121t77.5 -43z" />
    <glyph glyph-name="circumflex" unicode="&#x2c6;" horiz-adv-x="457" 
d="M404 552h-26l-86 96l-110 -96h-34l132 149h42z" />
    <glyph glyph-name="caron" unicode="&#x2c7;" horiz-adv-x="457" 
d="M174 701h26l86 -96l110 96h34l-132 -149h-42z" />
    <glyph glyph-name="breve" unicode="&#x2d8;" horiz-adv-x="457" 
d="M425 666q-14 -45 -50 -77t-92 -32t-82 32t-24 77l36 5q4 -32 24.5 -49.5t53.5 -17.5q68 0 100 67z" />
    <glyph glyph-name="dotaccent" unicode="&#x2d9;" horiz-adv-x="457" 
d="M316 561h-71l13 81h71z" />
    <glyph glyph-name="ring" unicode="&#x2da;" horiz-adv-x="457" 
d="M292 550q-40 0 -67 26t-27 66q0 39 27 66.5t67 27.5q39 0 66 -27.5t27 -66.5q0 -40 -26.5 -66t-66.5 -26zM292 580q26 0 42.5 17.5t16.5 44.5t-17 45t-42 18q-26 0 -43 -18t-17 -45t17 -44.5t43 -17.5z" />
    <glyph glyph-name="ogonek" unicode="&#x2db;" horiz-adv-x="457" 
d="M261 21l21 -17l-38 -38q-41 -41 -41 -74q0 -30 35 -30q20 0 36 5l-5 -32q-24 -8 -46 -8q-63 0 -63 52q0 48 54 98z" />
    <glyph glyph-name="tilde" unicode="&#x2dc;" horiz-adv-x="457" 
d="M440 656q-17 -46 -40.5 -70.5t-49.5 -24.5q-28 0 -72 27q-42 27 -59 27q-26 0 -48 -55l-33 7q17 46 40.5 70.5t49.5 24.5q28 0 72 -27q42 -27 59 -27q26 0 48 55z" />
    <glyph glyph-name="hungarumlaut" unicode="&#x2dd;" horiz-adv-x="457" 
d="M303 696l-161 -140h-35l131 157zM464 696l-160 -140h-35l130 157z" />
    <glyph glyph-name="commaaccent" unicode="&#x326;" horiz-adv-x="454" 
d="M152 -87l44 21q37 -29 37 -67q0 -59 -92 -124l-32 4q78 65 78 108q0 27 -35 58z" />
    <glyph glyph-name="uni0384" unicode="&#x384;" horiz-adv-x="457" 
d="M341 703l-85 -151h-30l54 151h61z" />
    <glyph glyph-name="uni0385" unicode="&#x385;" horiz-adv-x="457" 
d="M360 703l-86 -151h-28l54 151h60zM211 566h-67l12 79h67zM420 566h-68l12 79h68z" />
    <glyph glyph-name="uni0386" unicode="&#x386;" 
d="M201 694l-79 -168h-30l45 168h64zM525 -7l-52 243h-295l-125 -236h-51l375 694h39l154 -690zM387 627l-187 -350h264z" />
    <glyph glyph-name="uni0387" unicode="&#x387;" horiz-adv-x="212" 
d="M172 470l-13 -80h-60l13 80h60z" />
    <glyph glyph-name="uni0388" unicode="&#x388;" horiz-adv-x="476" 
d="M94 690l-79 -168h-30l45 168h64zM497 690l-7 -43h-282l-42 -264h222v-43h-229l-48 -297h293l-7 -43h-339l110 690h329z" />
    <glyph glyph-name="uni0389" unicode="&#x389;" horiz-adv-x="662" 
d="M94 690l-79 -168h-30l45 168h64zM639 690l-110 -690h-47l54 340h-377l-54 -340h-47l110 690h47l-49 -308h377l49 308h47z" />
    <glyph glyph-name="uni038A" unicode="&#x38a;" horiz-adv-x="254" 
d="M94 690l-79 -168h-30l45 168h64zM223 690l-110 -690h-47l110 690h47z" />
    <glyph glyph-name="uni038C" unicode="&#x38c;" horiz-adv-x="686" 
d="M101 703l-79 -168h-30l45 168h64zM311 -13q-117 0 -186.5 86.5t-69.5 217.5q0 96 34 179.5t94 143.5q89 89 209 89q117 0 186.5 -86.5t69.5 -217.5q0 -96 -34 -179.5t-94 -143.5q-89 -89 -209 -89zM313 30q97 0 174 77q111 111 111 292q0 116 -56.5 188.5t-151.5 72.5
q-97 0 -174 -77q-111 -111 -111 -292q0 -116 56.5 -188.5t151.5 -72.5z" />
    <glyph glyph-name="uni038E" unicode="&#x38e;" horiz-adv-x="576" 
d="M84 697l-79 -168h-30l45 168h64zM617 690l-294 -393l-47 -297h-47l47 296l-169 391l47 10l151 -361l258 354h54z" />
    <glyph glyph-name="uni038F" unicode="&#x38f;" horiz-adv-x="671" 
d="M102 703l-79 -168h-30l45 168h64zM281 40l-12 -40h-225l7 42l169 -1l-37 41q-101 113 -101 260q0 151 99 256t239 105q123 0 192 -74.5t69 -193.5q0 -105 -49.5 -190.5t-148.5 -166.5l-45 -37l164 1l-6 -42h-225v40l76 63q91 76 137.5 155t46.5 173q0 103 -55 166
t-157 63q-119 0 -203 -94.5t-84 -224.5q0 -132 97 -242z" />
    <glyph glyph-name="uni0390" unicode="&#x390;" horiz-adv-x="234" 
d="M249 703l-86 -151h-28l54 151h60zM100 566h-67l12 79h67zM309 566h-68l12 79h68zM173 1q-25 -9 -50 -9q-67 0 -67 68q0 16 5 48l59 362h46l-59 -365q-4 -28 -4 -40q0 -32 28 -32q18 0 42 9v-41z" />
    <glyph glyph-name="uni0391" unicode="&#x391;" 
d="M525 -7l-52 243h-295l-125 -236h-51l375 694h39l154 -690zM387 627l-187 -350h264z" />
    <glyph glyph-name="uni0392" unicode="&#x392;" horiz-adv-x="525" 
d="M486 536q0 -63 -38.5 -107t-99.5 -66q119 -46 119 -153q0 -96 -65.5 -153t-169.5 -57h-174l110 690h142q80 0 128 -40.5t48 -113.5zM437 534q0 54 -34.5 84t-98.5 30h-96l-42 -266h92q75 0 127 44t52 108zM418 209q0 61 -46 96.5t-123 35.5h-90l-48 -299h124q83 0 133 46
t50 121z" />
    <glyph glyph-name="uni0393" unicode="&#x393;" horiz-adv-x="430" 
d="M168 690h303v-43h-263l-103 -647h-47z" />
    <glyph glyph-name="uni0394" unicode="&#x394;" horiz-adv-x="663" 
d="M582 0h-575v32l370 662h51l164 -662zM396 644l-333 -604h478z" />
    <glyph glyph-name="uni0395" unicode="&#x395;" horiz-adv-x="476" 
d="M497 690l-7 -43h-282l-42 -264h222v-43h-229l-48 -297h293l-7 -43h-339l110 690h329z" />
    <glyph glyph-name="uni0396" unicode="&#x396;" horiz-adv-x="568" 
d="M577 690l-5 -32l-482 -617h387v-41h-454l5 32l483 617h-360v41h426z" />
    <glyph glyph-name="uni0397" unicode="&#x397;" horiz-adv-x="662" 
d="M639 690l-110 -690h-47l54 340h-377l-54 -340h-47l110 690h47l-49 -308h377l49 308h47z" />
    <glyph glyph-name="uni0398" unicode="&#x398;" horiz-adv-x="698" 
d="M326 -13q-117 0 -186.5 86.5t-69.5 217.5q0 96 34 179.5t94 143.5q89 89 209 89q117 0 186.5 -86.5t69.5 -217.5q0 -96 -34 -179.5t-94 -143.5q-89 -89 -209 -89zM328 30q97 0 174 77q111 111 111 292q0 116 -56.5 188.5t-151.5 72.5q-97 0 -174 -77q-111 -111 -111 -292
q0 -116 56.5 -188.5t151.5 -72.5zM531 322h-336l7 45h336z" />
    <glyph glyph-name="uni0399" unicode="&#x399;" horiz-adv-x="254" 
d="M223 690l-110 -690h-47l110 690h47z" />
    <glyph glyph-name="uni039A" unicode="&#x39a;" horiz-adv-x="565" 
d="M598 690l-381 -324l293 -361l-51 -12l-297 368l-57 -361h-47l110 690h47l-51 -318l369 318h65z" />
    <glyph glyph-name="uni039B" unicode="&#x39b;" horiz-adv-x="642" 
d="M416 694l152 -690l-45 -11l-137 635l-333 -628h-51l374 694h40z" />
    <glyph glyph-name="uni039C" unicode="&#x39c;" horiz-adv-x="867" 
d="M803 690l-54 -690h-45l50 617l-345 -621h-27l-149 621l-145 -617h-44l166 690h54l142 -618l338 618h59z" />
    <glyph glyph-name="uni039D" unicode="&#x39d;" horiz-adv-x="662" 
d="M639 690l-110 -690h-28l-302 608l-96 -608h-45l110 690h42l291 -591l93 591h45z" />
    <glyph glyph-name="uni039E" unicode="&#x39e;" horiz-adv-x="517" 
d="M529 647h-411l7 43h411zM446 340h-338l7 43h331v-43zM432 0h-421l7 43h421z" />
    <glyph glyph-name="uni039F" unicode="&#x39f;" horiz-adv-x="698" 
d="M326 -13q-117 0 -186.5 86.5t-69.5 217.5q0 96 34 179.5t94 143.5q89 89 209 89q117 0 186.5 -86.5t69.5 -217.5q0 -96 -34 -179.5t-94 -143.5q-89 -89 -209 -89zM328 30q97 0 174 77q111 111 111 292q0 116 -56.5 188.5t-151.5 72.5q-97 0 -174 -77q-111 -111 -111 -292
q0 -116 56.5 -188.5t151.5 -72.5z" />
    <glyph glyph-name="uni03A0" unicode="&#x3a0;" horiz-adv-x="659" 
d="M636 690l-110 -690h-47l104 648h-375l-103 -648h-47l110 690h468z" />
    <glyph glyph-name="uni03A1" unicode="&#x3a1;" horiz-adv-x="493" 
d="M499 518q0 -98 -70.5 -158t-182.5 -60h-93l-48 -300h-47l110 690h136q93 0 144 -45.5t51 -126.5zM451 516q0 132 -153 132h-90l-49 -306h88q93 0 148.5 47.5t55.5 126.5z" />
    <glyph glyph-name="uni03A3" unicode="&#x3a3;" horiz-adv-x="549" 
d="M324 363l-197 295l5 32h441l-7 -41h-383l197 -289l-297 -319h394v-41h-464l5 32z" />
    <glyph glyph-name="uni03A4" unicode="&#x3a4;" horiz-adv-x="524" 
d="M567 647h-214l-103 -647h-47l103 647h-211l7 43h465v-43z" />
    <glyph glyph-name="uni03A5" unicode="&#x3a5;" horiz-adv-x="576" 
d="M617 690l-294 -393l-47 -297h-47l47 296l-169 391l47 10l151 -361l258 354h54z" />
    <glyph glyph-name="uni03A6" unicode="&#x3a6;" horiz-adv-x="830" 
d="M400 -13h-46l13 84q-141 5 -222 70.5t-81 180.5q0 129 108.5 215t282.5 86l13 80h46l-14 -81q140 -6 220 -71.5t80 -179.5q0 -129 -108 -215t-279 -86zM113 324q0 -98 67 -152.5t195 -59.5l74 469q-151 -1 -243.5 -74.5t-92.5 -182.5zM751 369q0 97 -66 151.5t-192 59.5
l-75 -468q150 2 241.5 75t91.5 182z" />
    <glyph glyph-name="uni03A7" unicode="&#x3a7;" horiz-adv-x="595" 
d="M468 -5l-158 330l-254 -325h-55l290 362l-160 322l48 10l142 -298l229 294h55l-263 -332l174 -353z" />
    <glyph glyph-name="uni03A8" unicode="&#x3a8;" horiz-adv-x="752" 
d="M362 0h-47l36 233q-245 9 -245 195q0 25 5 60l33 202h47l-33 -207q-4 -28 -4 -54q0 -75 48.5 -113t155.5 -42l66 416h47l-66 -416q124 2 188 52.5t77 151.5l34 212h47l-33 -217q-34 -240 -320 -240z" />
    <glyph glyph-name="uni03A9" unicode="&#x3a9;" horiz-adv-x="714" 
d="M281 40l-12 -40h-225l7 42l169 -1l-37 41q-101 113 -101 260q0 151 99 256t239 105q123 0 192 -74.5t69 -193.5q0 -105 -49.5 -190.5t-148.5 -166.5l-45 -37l164 1l-6 -42h-225v40l76 63q91 76 137.5 155t46.5 173q0 103 -55 166t-157 63q-119 0 -203 -94.5t-84 -224.5
q0 -132 97 -242z" />
    <glyph glyph-name="uni03AA" unicode="&#x3aa;" horiz-adv-x="254" 
d="M163 766h-69l13 79h69zM330 766h-70l13 79h70zM223 690l-110 -690h-47l110 690h47z" />
    <glyph glyph-name="uni03AB" unicode="&#x3ab;" horiz-adv-x="576" 
d="M323 766h-69l13 79h69zM490 766h-70l13 79h70zM617 690l-294 -393l-47 -297h-47l47 296l-169 391l47 10l151 -361l258 354h54z" />
    <glyph glyph-name="uni03AC" unicode="&#x3ac;" horiz-adv-x="560" 
d="M425 703l-85 -151h-30l54 151h61zM167 30q34 0 71.5 36.5t106.5 148.5l9 14l-5 28q-19 104 -43 143.5t-66 39.5q-62 0 -106.5 -84t-44.5 -194q0 -132 78 -132zM381 76l-16 99q-69 -109 -111 -147t-91 -38q-59 0 -90 45t-31 125q0 129 56.5 224.5t144.5 95.5q61 0 92 -44
t52 -158l120 192h50l-158 -245l26 -139q6 -31 16.5 -42t34.5 -11q17 0 40 7l-12 -41q-23 -7 -43 -7q-34 0 -53 19.5t-27 64.5z" />
    <glyph glyph-name="uni03AD" unicode="&#x3ad;" horiz-adv-x="431" 
d="M372 703l-85 -151h-30l54 151h61zM364 37q-89 -46 -168 -46q-76 0 -118 32t-42 89q0 48 35.5 82.5t97.5 47.5q-86 29 -86 108q0 55 46 92t125 37q86 0 164 -45l-17 -40q-75 44 -151 44q-55 0 -87.5 -24.5t-32.5 -61.5q0 -42 34 -67t101 -25h49v-41h-59q-80 0 -126 -29
t-46 -75q0 -40 30.5 -61.5t84.5 -21.5q76 0 166 50v-45z" />
    <glyph glyph-name="uni03AE" unicode="&#x3ae;" horiz-adv-x="484" 
d="M381 703l-85 -151h-30l54 151h61zM431 376q0 -16 -4 -44l-81 -503l-47 -10l82 515q4 28 4 40q0 30 -17 47t-49 17q-35 0 -75.5 -31.5t-105.5 -104.5l-47 -302h-46l51 322v148h40l5 -114q56 62 98.5 93t83.5 31q52 0 80 -26.5t28 -77.5z" />
    <glyph glyph-name="uni03AF" unicode="&#x3af;" horiz-adv-x="234" 
d="M255 703l-85 -151h-30l54 151h61zM173 1q-25 -9 -50 -9q-67 0 -67 68q0 16 5 48l59 362h46l-59 -365q-4 -28 -4 -40q0 -32 28 -32q18 0 42 9v-41z" />
    <glyph glyph-name="uni03B0" unicode="&#x3b0;" horiz-adv-x="479" 
d="M367 698l-86 -151h-28l54 151h60zM218 561h-67l12 79h67zM427 561h-68l12 79h68zM398 178q-14 -91 -62 -139.5t-125 -48.5q-70 0 -109.5 41.5t-39.5 113.5q0 27 6 65l41 260h46l-42 -267q-4 -28 -4 -55q0 -55 27 -86t78 -31q115 0 139 154l45 285h46z" />
    <glyph glyph-name="uni03B1" unicode="&#x3b1;" horiz-adv-x="560" 
d="M167 30q34 0 71.5 36.5t106.5 148.5l9 14l-5 28q-19 104 -43 143.5t-66 39.5q-62 0 -106.5 -84t-44.5 -194q0 -132 78 -132zM381 76l-16 99q-69 -109 -111 -147t-91 -38q-59 0 -90 45t-31 125q0 129 56.5 224.5t144.5 95.5q61 0 92 -44t52 -158l120 192h50l-158 -245
l26 -139q6 -31 16.5 -42t34.5 -11q17 0 40 7l-12 -41q-23 -7 -43 -7q-34 0 -53 19.5t-27 64.5z" />
    <glyph glyph-name="uni03B2" unicode="&#x3b2;" horiz-adv-x="518" 
d="M268 31q64 0 105 40t41 96q0 60 -38 100.5t-126 73.5v32q194 44 194 175q0 54 -34.5 88.5t-88.5 34.5q-60 0 -100 -41.5t-51 -110.5l-67 -424q79 -64 165 -64zM61 -172l-47 -9l112 707q13 84 65 135t131 51q76 0 122 -46t46 -117q0 -74 -50.5 -123t-132.5 -72
q78 -32 116 -76t38 -111q0 -74 -54.5 -125t-140.5 -51q-87 0 -170 58z" />
    <glyph glyph-name="uni03B3" unicode="&#x3b3;" horiz-adv-x="446" 
d="M451 470l-48 -90q-128 -239 -164.5 -320.5t-48.5 -153.5l-12 -77l-47 -10l14 91q11 88 1 171.5t-54 276.5l-24 107l45 10l22 -104q50 -235 52 -347q25 67 55.5 132.5t122.5 243.5l36 70h50z" />
    <glyph glyph-name="uni03B4" unicode="&#x3b4;" horiz-adv-x="474" 
d="M430 228q0 -100 -59.5 -169t-150.5 -69q-81 0 -128.5 55.5t-47.5 144.5q0 183 206 276q-40 38 -57.5 67t-17.5 65q0 50 39.5 82t110.5 32q70 0 146 -32l-7 -46q-74 37 -141 37q-48 0 -75 -20t-27 -52q0 -29 17 -53t69 -73q67 -62 95 -117t28 -128zM221 30q70 0 116 58
t46 140q0 61 -23 107.5t-79 101.5q-190 -85 -190 -247q0 -69 36 -114.5t94 -45.5z" />
    <glyph glyph-name="uni03B5" unicode="&#x3b5;" horiz-adv-x="431" 
d="M364 37q-89 -46 -168 -46q-76 0 -118 32t-42 89q0 48 35.5 82.5t97.5 47.5q-86 29 -86 108q0 55 46 92t125 37q86 0 164 -45l-17 -40q-75 44 -151 44q-55 0 -87.5 -24.5t-32.5 -61.5q0 -42 34 -67t101 -25h49v-41h-59q-80 0 -126 -29t-46 -75q0 -40 30.5 -61.5
t84.5 -21.5q76 0 166 50v-45z" />
    <glyph glyph-name="uni03B6" unicode="&#x3b6;" horiz-adv-x="415" 
d="M42 163q0 48 31 98t128 161l217 248h-258l6 39h305v-35l-238 -277q-85 -100 -114.5 -147.5t-29.5 -85.5q0 -41 30.5 -65t104.5 -52q81 -30 107 -51t26 -54q0 -24 -16 -49.5t-63 -73.5l-46 8q50 53 64.5 73.5t14.5 37.5t-19.5 30t-85.5 38q-91 34 -127.5 67t-36.5 90z" />
    <glyph glyph-name="uni03B7" unicode="&#x3b7;" horiz-adv-x="484" 
d="M431 376q0 -16 -4 -44l-81 -503l-47 -10l82 515q4 28 4 40q0 30 -17 47t-49 17q-35 0 -75.5 -31.5t-105.5 -104.5l-47 -302h-46l51 322v148h40l5 -114q56 62 98.5 93t83.5 31q52 0 80 -26.5t28 -77.5z" />
    <glyph glyph-name="uni03B8" unicode="&#x3b8;" horiz-adv-x="550" 
d="M241 -13q-86 0 -131 73.5t-45 192.5q0 124 35 229t94 164q66 66 143 66q86 0 131 -73.5t45 -192.5q0 -124 -35 -229t-94 -164q-66 -66 -143 -66zM228 620q-81 -82 -107 -244h343q3 33 3 68q0 106 -33.5 167t-97.5 61q-58 0 -108 -52zM242 27q58 0 108 52q83 84 109 255
h-344q-4 -35 -4 -79q0 -106 33.5 -167t97.5 -61z" />
    <glyph glyph-name="uni03B9" unicode="&#x3b9;" horiz-adv-x="234" 
d="M173 1q-25 -9 -50 -9q-67 0 -67 68q0 16 5 48l59 362h46l-59 -365q-4 -28 -4 -40q0 -32 28 -32q18 0 42 9v-41z" />
    <glyph glyph-name="uni03BA" unicode="&#x3ba;" horiz-adv-x="422" 
d="M321 -7l-194 251l-38 -244h-46l75 470h46l-35 -216l169 155q66 60 127 63v-45q-50 -4 -101 -50l-147 -130l193 -242z" />
    <glyph glyph-name="uni03BB" unicode="&#x3bb;" horiz-adv-x="447" 
d="M339 -5l-78 414l-213 -409h-50l225 423l25 47l-26 131q-8 40 -23 54.5t-43 14.5q-12 0 -29 -3l7 42q14 3 29 3q45 0 68.5 -22t33.5 -77l119 -608z" />
    <glyph glyph-name="uni03BC" unicode="&#x3bc;" horiz-adv-x="512" 
d="M60 -171l-46 -10l104 651h46l-53 -334q-4 -24 -4 -37q0 -32 17 -49.5t49 -17.5q35 0 75.5 31.5t105.5 104.5l47 302h46l-57 -365q-4 -28 -4 -40q0 -32 28 -32q18 0 42 9v-41q-25 -9 -50 -9q-67 0 -67 68q0 24 4 45q-53 -58 -94 -86.5t-86 -28.5q-54 0 -75 43
q-4 -54 -17 -135z" />
    <glyph glyph-name="uni03BD" unicode="&#x3bd;" horiz-adv-x="444" 
d="M372 470h47q-12 -262 -227 -475h-39l-83 470l45 10l71 -428q176 183 186 423z" />
    <glyph glyph-name="uni03BE" unicode="&#x3be;" horiz-adv-x="423" 
d="M359 -59q0 -25 -16 -48.5t-63 -73.5l-46 8q48 51 63.5 72.5t15.5 37.5q0 17 -19 29.5t-92 41.5q-88 35 -124.5 73t-36.5 93q0 72 55.5 123t161.5 71q-115 31 -115 136q0 53 35 97t99 69h-142l6 39h329v-37h-25q-114 0 -184.5 -47.5t-70.5 -120.5q0 -56 44.5 -87.5
t127.5 -31.5h26v-42h-17q-135 0 -209 -47t-74 -119q0 -44 31 -73t101 -56q88 -34 113.5 -54t25.5 -53z" />
    <glyph glyph-name="uni03BF" unicode="&#x3bf;" horiz-adv-x="468" 
d="M423 281q0 -118 -63.5 -204.5t-157.5 -86.5q-74 0 -115.5 54t-41.5 145q0 118 63.5 204.5t157.5 86.5q74 0 115.5 -54.5t41.5 -144.5zM376 279q0 78 -30.5 119.5t-81.5 41.5q-71 0 -121.5 -74.5t-50.5 -174.5q0 -78 31 -119.5t82 -41.5q71 0 121 74.5t50 174.5z" />
    <glyph glyph-name="uni03C0" unicode="&#x3c0;" horiz-adv-x="565" 
d="M473 3q-26 -11 -52 -11q-70 0 -70 70q0 15 6 53l50 316h-203l-68 -431h-46l68 431h-97v39h495l-6 -39h-97l-51 -327q-4 -26 -4 -39q0 -32 31 -32q17 0 44 10v-40z" />
    <glyph glyph-name="uni03C1" unicode="&#x3c1;" horiz-adv-x="475" 
d="M120 257l-31 -198q48 -25 93 -25q83 0 142 72.5t59 183.5q0 71 -28.5 110.5t-81.5 39.5q-58 0 -98.5 -49t-54.5 -134zM5 -181l71 446q18 101 68.5 158t130.5 57q74 0 114.5 -50.5t40.5 -137.5q0 -128 -72 -213t-176 -85q-50 0 -100 23l-30 -188z" />
    <glyph glyph-name="uni03C2" unicode="&#x3c2;" horiz-adv-x="423" 
d="M210 1q-89 37 -126 83t-37 123q0 115 67 194t155 79q78 0 138 -52l-16 -45q-58 56 -124 56q-69 0 -121 -68.5t-52 -160.5q0 -61 29 -98t107 -71q69 -31 89 -48t20 -47q0 -29 -15.5 -52.5t-63.5 -74.5l-46 8q48 51 63.5 73t15.5 39q0 16 -15 27t-68 35z" />
    <glyph glyph-name="uni03C3" unicode="&#x3c3;" horiz-adv-x="470" 
d="M197 -10q-72 0 -114 52t-42 141q0 127 81 207t212 80h118v-39h-79q40 -82 40 -171q0 -108 -64 -189t-152 -81zM197 30q69 0 119 69.5t50 164.5q0 89 -40 166q-108 -1 -173 -70.5t-65 -176.5q0 -73 30 -113t79 -40z" />
    <glyph glyph-name="uni03C4" unicode="&#x3c4;" horiz-adv-x="424" 
d="M413 431h-165l-45 -283q-6 -40 -6 -61q0 -55 55 -55q34 0 71 16v-41q-37 -15 -75 -15q-47 0 -72.5 24t-25.5 68q0 24 8 72l44 275h-151l6 39h356v-39z" />
    <glyph glyph-name="uni03C5" unicode="&#x3c5;" horiz-adv-x="479" 
d="M398 178q-14 -91 -62 -139.5t-125 -48.5q-70 0 -109.5 41.5t-39.5 113.5q0 27 6 65l41 260h46l-42 -267q-4 -28 -4 -55q0 -55 27 -86t78 -31q115 0 139 154l45 285h46z" />
    <glyph glyph-name="uni03C6" unicode="&#x3c6;" horiz-adv-x="617" 
d="M214 -181l27 174q-92 8 -142.5 63t-50.5 144q0 150 139 278l50 -10q-142 -129 -142 -267q0 -75 39 -118.5t114 -50.5l46 294q12 71 49.5 112.5t97.5 41.5q61 0 96 -43.5t35 -116.5q0 -141 -84.5 -234.5t-200.5 -93.5l-26 -163zM339 322l-46 -291q98 5 166 86.5t68 201.5
q0 59 -24 90.5t-63 31.5q-41 0 -66.5 -32t-34.5 -87z" />
    <glyph glyph-name="uni03C7" unicode="&#x3c7;" horiz-adv-x="461" 
d="M338 -181l-120 311l-213 -306h-54l247 348l-119 294l44 12l105 -270l180 262h55l-215 -304l134 -335z" />
    <glyph glyph-name="uni03C8" unicode="&#x3c8;" horiz-adv-x="656" 
d="M285 -171l-47 -10l28 177q-96 4 -148 50t-54 126q0 33 8 79l35 219h46l-35 -220q-6 -42 -6 -75q1 -130 161 -139l106 669l47 10l-108 -679q96 1 150 46t69 140l39 248h46l-40 -255q-34 -220 -268 -220h-3z" />
    <glyph glyph-name="uni03C9" unicode="&#x3c9;" horiz-adv-x="734" 
d="M497 -10q-66 0 -99 44.5t-39 111.5q-56 -156 -178 -156q-65 0 -101.5 47t-36.5 124q0 154 150 319l38 -21q-141 -157 -141 -297q0 -59 25.5 -95t67.5 -36q62 0 106.5 62.5t63.5 188.5l15 98h46l-14 -93q-6 -43 -6 -89q0 -77 28.5 -122t76.5 -45q60 0 97.5 59.5
t37.5 148.5q0 110 -53 223l42 19q58 -124 58 -240q0 -107 -51.5 -179t-132.5 -72z" />
    <glyph glyph-name="uni03CA" unicode="&#x3ca;" horiz-adv-x="234" 
d="M118 566h-69l13 79h69zM285 566h-70l13 79h70zM173 1q-25 -9 -50 -9q-67 0 -67 68q0 16 5 48l59 362h46l-59 -365q-4 -28 -4 -40q0 -32 28 -32q18 0 42 9v-41z" />
    <glyph glyph-name="uni03CB" unicode="&#x3cb;" horiz-adv-x="479" 
d="M236 561h-69l13 79h69zM403 561h-70l13 79h70zM398 178q-14 -91 -62 -139.5t-125 -48.5q-70 0 -109.5 41.5t-39.5 113.5q0 27 6 65l41 260h46l-42 -267q-4 -28 -4 -55q0 -55 27 -86t78 -31q115 0 139 154l45 285h46z" />
    <glyph glyph-name="uni03CC" unicode="&#x3cc;" horiz-adv-x="468" 
d="M374 703l-85 -151h-30l54 151h61zM423 281q0 -118 -63.5 -204.5t-157.5 -86.5q-74 0 -115.5 54t-41.5 145q0 118 63.5 204.5t157.5 86.5q74 0 115.5 -54.5t41.5 -144.5zM376 279q0 78 -30.5 119.5t-81.5 41.5q-71 0 -121.5 -74.5t-50.5 -174.5q0 -78 31 -119.5t82 -41.5
q71 0 121 74.5t50 174.5z" />
    <glyph glyph-name="uni03CD" unicode="&#x3cd;" horiz-adv-x="479" 
d="M372 698l-85 -151h-30l54 151h61zM398 178q-14 -91 -62 -139.5t-125 -48.5q-70 0 -109.5 41.5t-39.5 113.5q0 27 6 65l41 260h46l-42 -267q-4 -28 -4 -55q0 -55 27 -86t78 -31q115 0 139 154l45 285h46z" />
    <glyph glyph-name="uni03CE" unicode="&#x3ce;" horiz-adv-x="734" 
d="M510 698l-85 -151h-30l54 151h61zM497 -10q-66 0 -99 44.5t-39 111.5q-56 -156 -178 -156q-65 0 -101.5 47t-36.5 124q0 154 150 319l38 -21q-141 -157 -141 -297q0 -59 25.5 -95t67.5 -36q62 0 106.5 62.5t63.5 188.5l15 98h46l-14 -93q-6 -43 -6 -89q0 -77 28.5 -122
t76.5 -45q60 0 97.5 59.5t37.5 148.5q0 110 -53 223l42 19q58 -124 58 -240q0 -107 -51.5 -179t-132.5 -72z" />
    <glyph glyph-name="uni0400" unicode="&#x400;" horiz-adv-x="476" 
d="M356 752h-33l-116 140l70 15zM497 690l-7 -43h-282l-42 -264h222v-43h-229l-48 -297h293l-7 -43h-339l110 690h329z" />
    <glyph glyph-name="uni0401" unicode="&#x401;" horiz-adv-x="476" 
d="M295 766h-69l13 79h69zM462 766h-70l13 79h70zM497 690l-7 -43h-282l-42 -264h222v-43h-229l-48 -297h293l-7 -43h-339l110 690h329z" />
    <glyph glyph-name="uni0402" unicode="&#x402;" horiz-adv-x="711" 
d="M426 -4v43q86 15 136.5 66t50.5 132q0 68 -39.5 108.5t-113.5 40.5q-73 0 -157 -34l-56 -352h-47l103 647h-208l7 43h462v-43h-214l-40 -249q80 30 152 30q94 0 147 -51.5t53 -137.5q0 -99 -64.5 -164t-171.5 -79z" />
    <glyph glyph-name="uni0403" unicode="&#x403;" horiz-adv-x="430" 
d="M497 892l-160 -140h-40l131 155zM168 690h303v-43h-263l-103 -647h-47z" />
    <glyph glyph-name="uni0404" unicode="&#x404;" horiz-adv-x="570" 
d="M497 39q-88 -51 -182 -51q-107 0 -176.5 78t-69.5 215q0 170 97.5 295.5t237.5 125.5q98 0 171 -57l-8 -54q-73 67 -162 67q-103 0 -180 -82.5t-99 -207.5h344l-7 -43h-343q-2 -28 -2 -44q0 -115 56 -182t145 -67q92 0 178 58v-51z" />
    <glyph glyph-name="uni0405" unicode="&#x405;" horiz-adv-x="479" 
d="M459 660l-8 -51q-72 49 -148 49q-67 0 -107 -40t-40 -97q0 -41 27 -73t92 -70q84 -49 116 -90.5t32 -102.5q0 -85 -62 -139.5t-155 -54.5q-100 0 -180 53l8 50q82 -62 176 -62q70 0 117.5 41.5t47.5 105.5q0 48 -24.5 80.5t-92.5 72.5q-85 50 -117 89t-32 96
q0 77 55 129.5t143 52.5q80 0 152 -39z" />
    <glyph glyph-name="uni0406" unicode="&#x406;" horiz-adv-x="254" 
d="M223 690l-110 -690h-47l110 690h47z" />
    <glyph glyph-name="uni0407" unicode="&#x407;" horiz-adv-x="254" 
d="M163 766h-69l13 79h69zM330 766h-70l13 79h70zM223 690l-110 -690h-47l110 690h47z" />
    <glyph glyph-name="uni0408" unicode="&#x408;" horiz-adv-x="342" 
d="M324 690l-81 -514q-28 -182 -185 -182q-19 0 -62 8v45q37 -11 65 -11q57 0 90.5 34t45.5 108l80 512h47z" />
    <glyph glyph-name="uni0409" unicode="&#x409;" horiz-adv-x="933" 
d="M-11 -4v46q52 6 87.5 36.5t72 110t80.5 230.5l79 271h336l-48 -300h89q93 0 144 -45.5t51 -126.5q0 -98 -70.5 -158t-182.5 -60h-140l103 648h-246l-70 -240q-49 -168 -90 -253.5t-83.5 -117.5t-111.5 -41zM832 216q0 132 -153 132h-90l-49 -306h88q93 0 148.5 47.5
t55.5 126.5z" />
    <glyph glyph-name="uni040A" unicode="&#x40a;" horiz-adv-x="918" 
d="M105 0h-47l110 690h47l-48 -301h367l48 301h47l-48 -301h89q93 0 144 -45t51 -126q0 -98 -70.5 -158t-182.5 -60h-140l55 348h-367zM817 216q0 132 -153 132h-90l-49 -306h88q93 0 148.5 47.5t55.5 126.5z" />
    <glyph glyph-name="uni040B" unicode="&#x40b;" horiz-adv-x="719" 
d="M444 385q-61 0 -138 -17l-59 -368h-47l103 647h-208l7 43h462v-43h-214l-37 -236q78 16 134 16q199 0 199 -171q0 -32 -7 -78l-29 -178h-47l29 179q7 45 7 75q0 131 -155 131z" />
    <glyph glyph-name="uni040C" unicode="&#x40c;" horiz-adv-x="565" 
d="M548 892l-160 -140h-40l131 155zM598 690l-381 -324l293 -361l-51 -12l-297 368l-57 -361h-47l110 690h47l-51 -318l369 318h65z" />
    <glyph glyph-name="uni040D" unicode="&#x40d;" horiz-adv-x="662" 
d="M427 752h-33l-116 140l70 15zM58 0l110 690h46l-96 -601l469 601h52l-110 -690h-46l99 618l-483 -618h-41z" />
    <glyph glyph-name="uni040E" unicode="&#x40e;" horiz-adv-x="588" 
d="M525 866q-14 -45 -50 -77t-92 -32t-82 32t-24 77l36 5q4 -32 24.5 -49.5t53.5 -17.5q68 0 100 67zM62 -9v47q67 4 108.5 31t84.5 96l37 59l-174 462l46 11l157 -429l255 422h54l-338 -547q-50 -81 -105 -115.5t-125 -36.5z" />
    <glyph glyph-name="uni040F" unicode="&#x40f;" horiz-adv-x="659" 
d="M526 0h-209l-28 -159h-45l28 159h-214l110 690h47l-104 -648h375l103 648h47z" />
    <glyph glyph-name="uni0410" unicode="&#x410;" 
d="M525 -7l-52 243h-295l-125 -236h-51l375 694h39l154 -690zM387 627l-187 -350h264z" />
    <glyph glyph-name="uni0411" unicode="&#x411;" horiz-adv-x="506" 
d="M168 690h309v-43h-269l-41 -257h93q93 0 144 -45.5t51 -126.5q0 -98 -70.5 -158t-182.5 -60h-144zM407 216q0 132 -153 132h-94l-49 -306h92q93 0 148.5 47.5t55.5 126.5z" />
    <glyph glyph-name="uni0412" unicode="&#x412;" horiz-adv-x="525" 
d="M486 536q0 -63 -38.5 -107t-99.5 -66q119 -46 119 -153q0 -96 -65.5 -153t-169.5 -57h-174l110 690h142q80 0 128 -40.5t48 -113.5zM437 534q0 54 -34.5 84t-98.5 30h-96l-42 -266h92q75 0 127 44t52 108zM418 209q0 61 -46 96.5t-123 35.5h-90l-48 -299h124q83 0 133 46
t50 121z" />
    <glyph glyph-name="uni0413" unicode="&#x413;" horiz-adv-x="430" 
d="M168 690h303v-43h-263l-103 -647h-47z" />
    <glyph glyph-name="uni0414" unicode="&#x414;" horiz-adv-x="684" 
d="M-28 -159l34 214q109 89 181 205t120 292l38 138h312l-103 -648h53l-30 -197l-46 -7l26 162h-515l-25 -159h-45zM507 41l97 608h-224l-29 -106q-49 -180 -123.5 -298t-175.5 -204h455z" />
    <glyph glyph-name="uni0415" unicode="&#x415;" horiz-adv-x="476" 
d="M497 690l-7 -43h-282l-42 -264h222v-43h-229l-48 -297h293l-7 -43h-339l110 690h329z" />
    <glyph glyph-name="uni0416" unicode="&#x416;" horiz-adv-x="841" 
d="M733 -7l-270 366l-56 -359h-47l58 359l-371 -359h-62l387 368l-249 318l48 12l249 -328l50 320h47l-52 -319l338 319h62l-354 -328l270 -357z" />
    <glyph glyph-name="uni0417" unicode="&#x417;" horiz-adv-x="521" 
d="M450 191q0 -83 -66.5 -143t-170.5 -59q-99 1 -199 61l15 45q98 -64 186 -64q81 0 134 46t53 113q0 68 -52.5 109.5t-136.5 41.5h-51v43h59q105 0 164 43t59 112q0 53 -36.5 86.5t-103.5 33.5q-83 0 -185 -60v49q93 53 187 53q88 0 137.5 -45.5t49.5 -114.5
q0 -72 -47.5 -118t-128.5 -66q133 -43 133 -166z" />
    <glyph glyph-name="uni0418" unicode="&#x418;" horiz-adv-x="662" 
d="M58 0l110 690h46l-96 -601l469 601h52l-110 -690h-46l99 618l-483 -618h-41z" />
    <glyph glyph-name="uni0419" unicode="&#x419;" horiz-adv-x="662" 
d="M554 866q-14 -45 -50 -77t-92 -32t-82 32t-24 77l36 5q4 -32 24.5 -49.5t53.5 -17.5q68 0 100 67zM58 0l110 690h46l-96 -601l469 601h52l-110 -690h-46l99 618l-483 -618h-41z" />
    <glyph glyph-name="uni041A" unicode="&#x41a;" horiz-adv-x="565" 
d="M598 690l-381 -324l293 -361l-51 -12l-297 368l-57 -361h-47l110 690h47l-51 -318l369 318h65z" />
    <glyph glyph-name="uni041B" unicode="&#x41b;" horiz-adv-x="667" 
d="M644 690l-110 -690h-47l104 648h-247l-70 -240q-49 -168 -90 -253.5t-83.5 -117.5t-111.5 -41v46q52 6 87.5 36.5t72 110t80.5 230.5l79 271h336z" />
    <glyph glyph-name="uni041C" unicode="&#x41c;" horiz-adv-x="867" 
d="M803 690l-54 -690h-45l50 617l-345 -621h-27l-149 621l-145 -617h-44l166 690h54l142 -618l338 618h59z" />
    <glyph glyph-name="uni041D" unicode="&#x41d;" horiz-adv-x="662" 
d="M639 690l-110 -690h-47l54 340h-377l-54 -340h-47l110 690h47l-49 -308h377l49 308h47z" />
    <glyph glyph-name="uni041E" unicode="&#x41e;" horiz-adv-x="698" 
d="M326 -13q-117 0 -186.5 86.5t-69.5 217.5q0 96 34 179.5t94 143.5q89 89 209 89q117 0 186.5 -86.5t69.5 -217.5q0 -96 -34 -179.5t-94 -143.5q-89 -89 -209 -89zM328 30q97 0 174 77q111 111 111 292q0 116 -56.5 188.5t-151.5 72.5q-97 0 -174 -77q-111 -111 -111 -292
q0 -116 56.5 -188.5t151.5 -72.5z" />
    <glyph glyph-name="uni041F" unicode="&#x41f;" horiz-adv-x="659" 
d="M636 690l-110 -690h-47l104 648h-375l-103 -648h-47l110 690h468z" />
    <glyph glyph-name="uni0420" unicode="&#x420;" horiz-adv-x="493" 
d="M499 518q0 -98 -70.5 -158t-182.5 -60h-93l-48 -300h-47l110 690h136q93 0 144 -45.5t51 -126.5zM451 516q0 132 -153 132h-90l-49 -306h88q93 0 148.5 47.5t55.5 126.5z" />
    <glyph glyph-name="uni0421" unicode="&#x421;" horiz-adv-x="570" 
d="M575 645l-8 -54q-74 68 -162 68q-122 0 -204 -112t-82 -266q0 -115 55.5 -182.5t144.5 -67.5q91 0 178 59v-51q-88 -51 -182 -51q-107 0 -176.5 78t-69.5 215q0 170 97.5 295.5t237.5 125.5q98 0 171 -57z" />
    <glyph glyph-name="uni0422" unicode="&#x422;" horiz-adv-x="524" 
d="M567 647h-214l-103 -647h-47l103 647h-211l7 43h465v-43z" />
    <glyph glyph-name="uni0423" unicode="&#x423;" horiz-adv-x="588" 
d="M62 -9v47q67 4 108.5 31t84.5 96l37 59l-174 462l46 11l157 -429l255 422h54l-338 -547q-50 -81 -105 -115.5t-125 -36.5z" />
    <glyph glyph-name="uni0424" unicode="&#x424;" horiz-adv-x="830" 
d="M400 -13h-46l13 84q-141 5 -222 70.5t-81 180.5q0 129 108.5 215t282.5 86l13 80h46l-14 -81q140 -6 220 -71.5t80 -179.5q0 -129 -108 -215t-279 -86zM113 324q0 -98 67 -152.5t195 -59.5l74 469q-151 -1 -243.5 -74.5t-92.5 -182.5zM751 369q0 97 -66 151.5t-192 59.5
l-75 -468q150 2 241.5 75t91.5 182z" />
    <glyph glyph-name="uni0425" unicode="&#x425;" horiz-adv-x="595" 
d="M468 -5l-158 330l-254 -325h-55l290 362l-160 322l48 10l142 -298l229 294h55l-263 -332l174 -353z" />
    <glyph glyph-name="uni0426" unicode="&#x426;" horiz-adv-x="662" 
d="M509 -162l26 162h-477l110 690h47l-104 -648h374l103 648h47l-103 -648h53l-30 -197z" />
    <glyph glyph-name="uni0427" unicode="&#x427;" horiz-adv-x="576" 
d="M443 0h-47l44 279q-78 -16 -134 -16q-199 0 -199 171q0 32 7 78l29 178h47l-29 -179q-7 -45 -7 -75q0 -131 155 -131q61 0 138 17l59 368h47z" />
    <glyph glyph-name="uni0428" unicode="&#x428;" horiz-adv-x="926" 
d="M112 42h297l103 648h47l-103 -648h297l103 648h47l-110 -690h-735l110 690h47z" />
    <glyph glyph-name="uni0429" unicode="&#x429;" horiz-adv-x="928" 
d="M775 -162l26 162h-743l110 690h47l-103 -648h296l103 648h47l-103 -648h296l103 648h47l-103 -648h53l-30 -197z" />
    <glyph glyph-name="uni042A" unicode="&#x42a;" horiz-adv-x="639" 
d="M333 0h-140l103 647h-208l7 43h255l-48 -300h89q93 0 144 -45.5t51 -126.5q0 -98 -70.5 -158t-182.5 -60zM538 216q0 132 -153 132h-90l-49 -306h88q93 0 148.5 47.5t55.5 126.5z" />
    <glyph glyph-name="uni042B" unicode="&#x42b;" horiz-adv-x="720" 
d="M215 690l-48 -300h89q93 0 144 -45.5t51 -126.5q0 -98 -70.5 -158t-182.5 -60h-140l110 690h47zM693 690l-110 -690h-47l110 690h47zM403 216q0 132 -153 132h-90l-49 -306h88q93 0 148.5 47.5t55.5 126.5z" />
    <glyph glyph-name="uni042C" unicode="&#x42c;" horiz-adv-x="504" 
d="M215 690l-48 -300h89q93 0 144 -45.5t51 -126.5q0 -98 -70.5 -158t-182.5 -60h-140l110 690h47zM403 216q0 132 -153 132h-90l-49 -306h88q93 0 148.5 47.5t55.5 126.5z" />
    <glyph glyph-name="uni042D" unicode="&#x42d;" horiz-adv-x="570" 
d="M201 -13q-104 0 -180 66l8 52q84 -74 171 -74q104 0 181 83.5t99 210.5h-320v43h325q2 26 2 40q0 115 -56 182t-145 67q-85 0 -169 -55v50q84 49 173 49q107 0 176.5 -78t69.5 -215q0 -96 -34 -183t-93 -146q-92 -92 -208 -92z" />
    <glyph glyph-name="uni042E" unicode="&#x42e;" horiz-adv-x="913" 
d="M550 -13q-106 0 -169 82t-62 220q0 13 2 37h-164l-52 -326h-47l110 690h47l-51 -322h162q25 152 124 251q84 84 195 84q106 0 169 -82t62 -220q-1 -99 -37 -185.5t-94 -144.5q-84 -84 -195 -84zM643 660q-87 0 -158 -71q-52 -52 -84 -130.5t-33 -170.5q-1 -118 49.5 -188
t134.5 -70q87 0 158 71q51 51 83 130t33 171q1 118 -49 188t-134 70z" />
    <glyph glyph-name="uni042F" unicode="&#x42f;" horiz-adv-x="540" 
d="M173 481q0 -61 41 -95.5t120 -34.5h82l47 297h-84q-95 0 -150.5 -46t-55.5 -121zM330 310q-22 0 -32 1l-260 -318l-48 11l259 316q-59 17 -91.5 58t-32.5 102q0 93 69.5 151.5t186.5 58.5h136l-110 -690h-47l50 310h-80z" />
    <glyph glyph-name="uni0430" unicode="&#x430;" horiz-adv-x="478" 
d="M338 164l44 256q-38 16 -83 16q-84 0 -146 -81t-62 -206q0 -58 19.5 -88.5t52.5 -30.5q29 0 66.5 29t108.5 105zM337 113q-60 -64 -100.5 -93.5t-77.5 -29.5q-54 0 -84.5 41.5t-30.5 114.5q0 138 76.5 234.5t185.5 96.5q63 0 125 -31l-50 -300v-146h-40z" />
    <glyph glyph-name="uni0431" unicode="&#x431;" horiz-adv-x="485" 
d="M213 -10q-75 0 -113 56.5t-38 155.5q0 140 29.5 255t85.5 172q50 51 126 64l134 22l7 -42l-135 -22q-60 -10 -99 -50q-61 -62 -87 -217q59 52 100 74t84 22q66 0 99.5 -46t31.5 -130q-3 -133 -68 -223.5t-157 -90.5zM216 30q70 0 122 78t53 191q2 141 -88 141
q-36 0 -79 -24.5t-109 -84.5q-7 -60 -7 -133q0 -76 27.5 -122t80.5 -46z" />
    <glyph glyph-name="uni0432" unicode="&#x432;" horiz-adv-x="460" 
d="M191 -10q-76 0 -147 28l70 437q77 25 153 25q75 0 112.5 -32.5t37.5 -81.5q0 -44 -27.5 -75t-72.5 -46q82 -26 82 -105q0 -68 -57 -109t-151 -41zM236 265q60 0 98 28t38 68q0 36 -27.5 58t-81.5 22q-53 0 -108 -16l-26 -160h107zM195 29q69 0 114 30t45 79
q0 41 -30.5 65.5t-87.5 24.5h-113l-29 -183q50 -16 101 -16z" />
    <glyph glyph-name="uni0433" unicode="&#x433;" horiz-adv-x="381" 
d="M104 438q76 42 141 42q51 0 81 -24.5t30 -70.5q0 -52 -34 -85.5t-116 -71.5q-78 -35 -107.5 -62.5t-29.5 -67.5q0 -31 22 -50t60 -19q71 0 156 55l-6 -47q-82 -47 -155 -47q-56 0 -89 28.5t-33 76.5q0 56 36 91.5t129 78.5q68 32 94.5 56t27.5 61q0 26 -19 42.5t-52 16.5
q-56 0 -142 -50z" />
    <glyph glyph-name="uni0434" unicode="&#x434;" horiz-adv-x="496" 
d="M195 -9q-71 0 -111 48t-40 128q0 126 71 219t174 93q59 0 126 -40q2 42 2 64q0 91 -23 130t-83 39q-33 0 -65 -9l8 40q29 9 65 9q79 0 111.5 -50.5t32.5 -153.5q0 -145 -35 -269t-99 -188q-60 -60 -134 -60zM197 30q50 0 99 49q43 43 73.5 127t41.5 189q-65 44 -125 44
q-79 0 -137 -83t-58 -186q0 -66 28 -103t78 -37z" />
    <glyph glyph-name="uni0435" unicode="&#x435;" horiz-adv-x="439" 
d="M258 440q-50 0 -94.5 -44.5t-61.5 -119.5h248q9 78 -14.5 121t-77.5 43zM361 44q-75 -54 -148 -54q-81 0 -124.5 53t-43.5 144q0 129 65 211t150 82q67 0 103 -44t36 -125q0 -27 -7 -72h-297q-3 -24 -3 -50q0 -74 33 -116t91 -42q65 0 145 60v-47z" />
    <glyph glyph-name="uni0436" unicode="&#x436;" horiz-adv-x="643" 
d="M535 -5l-191 251l-37 -246h-46l41 245l-253 -245h-58l266 253l-179 213l48 9l178 -221l32 216h46l-36 -216l238 216h58l-251 -223l192 -243z" />
    <glyph glyph-name="uni0437" unicode="&#x437;" horiz-adv-x="431" 
d="M176 -9q-88 0 -170 45l15 41q80 -45 159 -45q61 0 98.5 27t37.5 69q0 92 -137 92h-60v41h65q77 0 118.5 28t41.5 73q0 34 -26.5 55t-79.5 21q-72 0 -157 -44v45q83 40 161 40q72 0 110.5 -32t38.5 -82q0 -49 -32 -81t-90 -45q45 -10 69.5 -39.5t24.5 -68.5
q0 -63 -51.5 -101.5t-135.5 -38.5z" />
    <glyph glyph-name="uni0438" unicode="&#x438;" horiz-adv-x="484" 
d="M53 94q0 16 4 44l53 332h46l-53 -334q-4 -28 -4 -40q0 -30 17 -47t49 -17q35 0 75.5 31.5t105.5 104.5l47 302h46l-51 -322v-148h-40l-5 114q-56 -62 -98.5 -93t-83.5 -31q-52 0 -80 26.5t-28 77.5z" />
    <glyph glyph-name="uni0439" unicode="&#x439;" horiz-adv-x="484" 
d="M424 661q-14 -45 -50 -77t-92 -32t-82 32t-24 77l36 5q4 -32 24.5 -49.5t53.5 -17.5q68 0 100 67zM53 94q0 16 4 44l53 332h46l-53 -334q-4 -28 -4 -40q0 -30 17 -47t49 -17q35 0 75.5 31.5t105.5 104.5l47 302h46l-51 -322v-148h-40l-5 114q-56 -62 -98.5 -93t-83.5 -31
q-52 0 -80 26.5t-28 77.5z" />
    <glyph glyph-name="uni043A" unicode="&#x43a;" horiz-adv-x="422" 
d="M321 -7l-194 251l-38 -244h-46l75 470h46l-35 -216l233 216h64l-249 -223l193 -242z" />
    <glyph glyph-name="uni043B" unicode="&#x43b;" horiz-adv-x="514" 
d="M2 -2v41q36 3 59 20t42 62l95 223q56 134 180 134q49 0 93 -17l-73 -461h-46l69 433q-19 6 -45 6q-47 0 -80 -26.5t-58 -84.5l-94 -222q-25 -58 -57.5 -82t-84.5 -26z" />
    <glyph glyph-name="uni043C" unicode="&#x43c;" horiz-adv-x="672" 
d="M576 0h-46l34 410l-245 -413h-38l-114 414l-94 -411h-45l111 470h56l114 -415l246 415h57z" />
    <glyph glyph-name="uni043D" unicode="&#x43d;" horiz-adv-x="502" 
d="M338 0l36 227h-249l-36 -227h-46l75 470h46l-32 -202h249l32 202h46l-75 -470h-46z" />
    <glyph glyph-name="uni043E" unicode="&#x43e;" horiz-adv-x="468" 
d="M423 281q0 -118 -63.5 -204.5t-157.5 -86.5q-74 0 -115.5 54t-41.5 145q0 118 63.5 204.5t157.5 86.5q74 0 115.5 -54.5t41.5 -144.5zM376 279q0 78 -30.5 119.5t-81.5 41.5q-71 0 -121.5 -74.5t-50.5 -174.5q0 -78 31 -119.5t82 -41.5q71 0 121 74.5t50 174.5z" />
    <glyph glyph-name="uni043F" unicode="&#x43f;" horiz-adv-x="484" 
d="M431 376q0 -16 -4 -44l-53 -332h-46l53 334q4 28 4 40q0 30 -17 47t-49 17q-35 0 -75.5 -31.5t-105.5 -104.5l-47 -302h-46l51 322v148h40l5 -114q56 62 98.5 93t83.5 31q52 0 80 -26.5t28 -77.5z" />
    <glyph glyph-name="uni0440" unicode="&#x440;" horiz-adv-x="481" 
d="M99 53q46 -19 89 -19q86 0 144 72.5t58 191.5q0 66 -24.5 104t-65.5 38q-31 0 -67 -27.5t-92 -92.5zM16 -181l80 503v148h40l5 -100q51 59 87 84.5t78 25.5q62 0 96.5 -47t34.5 -132q0 -133 -71.5 -220t-179.5 -87q-47 0 -94 17l-29 -182z" />
    <glyph glyph-name="uni0441" unicode="&#x441;" horiz-adv-x="408" 
d="M389 440l-8 -48q-60 47 -112 47q-73 0 -125 -74.5t-52 -171.5q0 -77 34.5 -119.5t94.5 -42.5q54 0 118 45v-45q-57 -41 -122 -41q-77 0 -124.5 53.5t-47.5 147.5q0 117 66 203t160 86q63 0 118 -40z" />
    <glyph glyph-name="uni0442" unicode="&#x442;" horiz-adv-x="755" 
d="M703 376q0 -16 -4 -44l-53 -332h-46l53 334q4 26 4 40q0 30 -16 47t-45 17q-35 0 -76 -32t-104 -104l-48 -302h-46l53 334q4 26 4 40q0 30 -16 47t-45 17q-35 0 -76 -32t-104 -104l-47 -302h-46l51 322v148h40l5 -114q55 62 98 93t85 31q101 0 101 -104q0 -7 -1 -14
q54 59 95.5 88.5t82.5 29.5q101 0 101 -104z" />
    <glyph glyph-name="uni0443" unicode="&#x443;" horiz-adv-x="445" 
d="M450 470l-277 -548q-28 -55 -56.5 -77.5t-70.5 -22.5q-12 0 -26 2v41q14 -2 28 -2q29 0 48.5 16.5t40.5 56.5l33 63l-102 466l45 10l86 -419l201 414h50z" />
    <glyph glyph-name="uni0444" unicode="&#x444;" horiz-adv-x="671" 
d="M177 31q27 0 54 17.5t62 60.5l42 269q-34 61 -82 61q-65 0 -113.5 -78.5t-48.5 -186.5q0 -69 24 -106t62 -37zM418 31q65 0 113.5 78.5t48.5 186.5q0 69 -24 106t-62 37q-27 0 -53.5 -17.5t-62.5 -60.5l-43 -268q36 -62 83 -62zM199 -178q-17 0 -33 2v41q26 -2 35 -2
q52 0 62 59l21 130q-58 -61 -112 -61q-58 0 -93 48t-35 132q0 127 60.5 217.5t147.5 90.5q56 0 91 -51l27 169q17 115 127 115q23 0 43 -4v-43q-20 5 -43 5q-39 0 -57.5 -19.5t-25.5 -61.5l-27 -172q55 62 112 62q58 0 93 -48t35 -132q0 -127 -60.5 -217.5t-147.5 -90.5
q-58 0 -92 52l-20 -126q-9 -52 -35.5 -73.5t-72.5 -21.5z" />
    <glyph glyph-name="uni0445" unicode="&#x445;" horiz-adv-x="434" 
d="M317 -7l-104 216l-160 -209h-53l193 244l-110 222l45 12l95 -199l150 191h53l-183 -228l118 -238z" />
    <glyph glyph-name="uni0446" unicode="&#x446;" horiz-adv-x="484" 
d="M346 -153l25 153h-46l18 114q-56 -62 -98.5 -93t-83.5 -31q-52 0 -80 26.5t-28 77.5q0 16 4 44l53 332h46l-53 -334q-4 -28 -4 -40q0 -30 17 -47t49 -17q35 0 75.5 31.5t105.5 104.5l47 302h46l-68 -430h50l-30 -185z" />
    <glyph glyph-name="uni0447" unicode="&#x447;" horiz-adv-x="458" 
d="M340 0h-46l29 183q-49 -13 -99 -13q-74 0 -114 32.5t-40 94.5q0 22 6 55l19 118h46l-19 -119q-5 -30 -5 -52q0 -86 116 -86q48 0 97 13l39 244h46z" />
    <glyph glyph-name="uni0448" unicode="&#x448;" horiz-adv-x="755" 
d="M52 94q0 16 4 44l53 332h46l-53 -334q-4 -26 -4 -40q0 -30 16 -47t45 -17q35 0 76 32t104 104l48 302h46l-53 -334q-4 -26 -4 -40q0 -30 16 -47t45 -17q35 0 76 32t104 104l47 302h46l-51 -322v-148h-40l-5 114q-55 -62 -98 -93t-85 -31q-101 0 -101 104q0 7 1 14
q-54 -59 -95.5 -88.5t-82.5 -29.5q-101 0 -101 104z" />
    <glyph glyph-name="uni0449" unicode="&#x449;" horiz-adv-x="755" 
d="M617 -153l25 153h-46l18 114q-55 -62 -98 -93t-85 -31q-101 0 -101 104q0 7 1 14q-54 -59 -95.5 -88.5t-82.5 -29.5q-101 0 -101 104q0 16 4 44l53 332h46l-53 -334q-4 -26 -4 -40q0 -30 16 -47t45 -17q35 0 76 32t104 104l48 302h45l-52 -334q-4 -26 -4 -40
q0 -30 16 -47t45 -17q35 0 76 32t104 104l47 302h46l-68 -430h50l-30 -185z" />
    <glyph glyph-name="uni044A" unicode="&#x44a;" horiz-adv-x="505" 
d="M250 -10q-65 0 -120 26l66 414h-145l6 40h191l-29 -181q43 9 78 9q75 0 117.5 -34t42.5 -97q0 -78 -58.5 -127.5t-148.5 -49.5zM410 164q0 44 -29.5 69.5t-86.5 25.5q-41 0 -81 -10l-33 -208q32 -12 73 -12q69 0 113 38.5t44 96.5z" />
    <glyph glyph-name="uni044B" unicode="&#x44b;" horiz-adv-x="611" 
d="M564 470l-76 -470h-46l76 470h46zM45 16l72 454h46l-29 -181q43 9 78 9q75 0 117.5 -34t42.5 -97q0 -78 -58.5 -127.5t-148.5 -49.5q-65 0 -120 26zM325 164q0 44 -29.5 69.5t-86.5 25.5q-41 0 -81 -10l-33 -208q31 -12 73 -12q69 0 113 38.5t44 96.5z" />
    <glyph glyph-name="uni044C" unicode="&#x44c;" horiz-adv-x="420" 
d="M45 16l72 454h46l-29 -181q43 9 78 9q75 0 117.5 -34t42.5 -97q0 -78 -58.5 -127.5t-148.5 -49.5q-65 0 -120 26zM325 164q0 44 -29.5 69.5t-86.5 25.5q-41 0 -81 -10l-33 -208q31 -12 73 -12q69 0 113 38.5t44 96.5z" />
    <glyph glyph-name="uni044D" unicode="&#x44d;" horiz-adv-x="408" 
d="M134 -10q-68 0 -121 43l8 44q56 -47 114 -47q63 0 112 53.5t64 132.5h-198v41h203q1 6 1 20q0 77 -34 120t-92 43q-55 0 -115 -41v44q57 37 119 37q75 0 121.5 -53.5t46.5 -147.5q0 -117 -66 -203t-163 -86z" />
    <glyph glyph-name="uni044E" unicode="&#x44e;" horiz-adv-x="639" 
d="M377 -10q-71 0 -111 53.5t-40 142.5q0 14 2 42h-103l-36 -228h-46l75 470h46l-32 -202h103q20 91 76.5 151.5t131.5 60.5q71 0 111 -54t40 -142q0 -116 -62 -205t-155 -89zM547 282q0 76 -28.5 117t-76.5 41q-70 0 -119.5 -76.5t-49.5 -175.5q0 -76 28.5 -117t77.5 -41
q70 0 119 76.5t49 175.5z" />
    <glyph glyph-name="uni044F" unicode="&#x44f;" horiz-adv-x="473" 
d="M348 229l32 199q-34 12 -84 12q-74 0 -118.5 -35.5t-44.5 -86.5q0 -89 120 -89h95zM245 190h-14l-183 -195l-50 10l185 193q-45 12 -71 43t-26 76q0 71 59 117t156 46q73 0 129 -26l-73 -454h-46l31 190h-97z" />
    <glyph glyph-name="uni0450" unicode="&#x450;" horiz-adv-x="439" 
d="M293 552h-33l-116 140l70 15zM258 440q-50 0 -94.5 -44.5t-61.5 -119.5h248q9 78 -14.5 121t-77.5 43zM361 44q-75 -54 -148 -54q-81 0 -124.5 53t-43.5 144q0 129 65 211t150 82q67 0 103 -44t36 -125q0 -27 -7 -72h-297q-3 -24 -3 -50q0 -74 33 -116t91 -42
q65 0 145 60v-47z" />
    <glyph glyph-name="uni0451" unicode="&#x451;" horiz-adv-x="439" 
d="M232 566h-69l13 79h69zM399 566h-70l13 79h70zM258 440q-50 0 -94.5 -44.5t-61.5 -119.5h248q9 78 -14.5 121t-77.5 43zM361 44q-75 -54 -148 -54q-81 0 -124.5 53t-43.5 144q0 129 65 211t150 82q67 0 103 -44t36 -125q0 -27 -7 -72h-297q-3 -24 -3 -50q0 -74 33 -116
t91 -42q65 0 145 60v-47z" />
    <glyph glyph-name="uni0452" unicode="&#x452;" horiz-adv-x="480" 
d="M422 240q0 -86 -42 -183t-140 -238l-47 9q97 139 139.5 236t42.5 174q0 53 -31.5 82t-89.5 29q-50 0 -107 -16l-53 -333h-46l86 544h-93v41h100l19 120l47 10l-20 -130h165l-7 -41h-165l-26 -168q54 16 109 16q77 0 118 -41t41 -111z" />
    <glyph glyph-name="uni0453" unicode="&#x453;" horiz-adv-x="381" 
d="M416 692l-160 -140h-40l131 155zM104 438q76 42 141 42q51 0 81 -24.5t30 -70.5q0 -52 -34 -85.5t-116 -71.5q-78 -35 -107.5 -62.5t-29.5 -67.5q0 -31 22 -50t60 -19q71 0 156 55l-6 -47q-82 -47 -155 -47q-56 0 -89 28.5t-33 76.5q0 56 36 91.5t129 78.5q68 32 94.5 56
t27.5 61q0 26 -19 42.5t-52 16.5q-56 0 -142 -50z" />
    <glyph glyph-name="uni0454" unicode="&#x454;" horiz-adv-x="408" 
d="M339 31q-57 -41 -122 -41q-77 0 -124.5 53.5t-47.5 147.5q0 117 66 203t160 86q63 0 118 -40l-8 -47q-60 47 -112 47q-59 0 -107 -52.5t-64 -130.5h200v-41h-206q-1 -8 -1 -23q0 -77 35 -120t95 -43q54 0 118 45v-44z" />
    <glyph glyph-name="uni0455" unicode="&#x455;" horiz-adv-x="375" 
d="M337 447l-9 -47q-60 41 -116 41q-41 0 -68.5 -23.5t-27.5 -58.5q0 -27 17.5 -45.5t64.5 -44.5q70 -38 94 -66t24 -74q0 -66 -43 -102.5t-110 -36.5q-85 0 -152 47l10 46q66 -54 146 -54q43 0 73.5 26t30.5 67q0 32 -18.5 52.5t-72.5 49.5q-60 32 -84.5 59t-24.5 68
q0 58 41.5 93.5t101.5 35.5q65 0 123 -33z" />
    <glyph glyph-name="uni0456" unicode="&#x456;" horiz-adv-x="220" 
d="M213 638q0 -16 -12 -28t-28 -12q-15 0 -27 12t-12 28t12 28t27 12q17 0 28.5 -12t11.5 -28zM171 470l-76 -470h-46l76 470h46z" />
    <glyph glyph-name="uni0457" unicode="&#x457;" horiz-adv-x="220" 
d="M114 566h-69l13 79h69zM281 566h-70l13 79h70zM171 470l-76 -470h-46l76 470h46z" />
    <glyph glyph-name="uni0458" unicode="&#x458;" horiz-adv-x="220" 
d="M213 638q0 -16 -12 -28t-28 -12q-15 0 -27 12t-12 28t12 28t27 12q17 0 28.5 -12t11.5 -28zM171 470l-89 -553q-9 -52 -35.5 -73.5t-72.5 -21.5q-17 0 -33 2v41q26 -2 35 -2q52 0 62 59l87 548h46z" />
    <glyph glyph-name="uni0459" unicode="&#x459;" horiz-adv-x="729" 
d="M2 -2v41q36 3 59 20t42 62l95 223q56 134 180 134q47 0 93 -16l-28 -173q43 9 78 9q75 0 117.5 -34t42.5 -97q0 -78 -58.5 -127.5t-148.5 -49.5q-65 0 -120 26l66 417q-19 6 -44 6q-47 0 -80 -26.5t-58 -84.5l-94 -222q-25 -58 -57.5 -82t-84.5 -26zM634 164
q0 44 -29.5 69.5t-86.5 25.5q-41 0 -81 -10l-33 -208q32 -12 73 -12q69 0 113 38.5t44 96.5z" />
    <glyph glyph-name="uni045A" unicode="&#x45a;" horiz-adv-x="711" 
d="M456 -10q-65 0 -120 26l33 211h-244l-36 -227h-46l75 470h46l-32 -202h244l32 202h46l-29 -181q43 9 78 9q75 0 117.5 -34t42.5 -97q0 -78 -58.5 -127.5t-148.5 -49.5zM419 249l-33 -208q32 -12 73 -12q69 0 113 38.5t44 96.5q0 44 -29.5 69.5t-86.5 25.5q-41 0 -81 -10z
" />
    <glyph glyph-name="uni045B" unicode="&#x45b;" horiz-adv-x="485" 
d="M255 349q-51 0 -108 -16l-53 -333h-46l86 544h-93v41h100l19 120l47 10l-20 -130h165l-7 -41h-165l-26 -168q55 16 110 16q74 0 114 -32.5t40 -94.5q0 -22 -6 -55l-35 -210h-46l35 211q5 30 5 52q0 86 -116 86z" />
    <glyph glyph-name="uni045C" unicode="&#x45c;" horiz-adv-x="422" 
d="M441 687l-160 -140h-40l131 155zM321 -7l-194 251l-38 -244h-46l75 470h46l-35 -216l233 216h64l-249 -223l193 -242z" />
    <glyph glyph-name="uni045D" unicode="&#x45d;" horiz-adv-x="484" 
d="M297 547h-33l-116 140l70 15zM53 94q0 16 4 44l53 332h46l-53 -334q-4 -28 -4 -40q0 -30 17 -47t49 -17q35 0 75.5 31.5t105.5 104.5l47 302h46l-51 -322v-148h-40l-5 114q-56 -62 -98.5 -93t-83.5 -31q-52 0 -80 26.5t-28 77.5z" />
    <glyph glyph-name="uni045E" unicode="&#x45e;" horiz-adv-x="445" 
d="M419 661q-14 -45 -50 -77t-92 -32t-82 32t-24 77l36 5q4 -32 24.5 -49.5t53.5 -17.5q68 0 100 67zM450 470l-277 -548q-28 -55 -56.5 -77.5t-70.5 -22.5q-12 0 -26 2v41q14 -2 28 -2q29 0 48.5 16.5t40.5 56.5l33 63l-102 466l45 10l86 -419l201 414h50z" />
    <glyph glyph-name="uni045F" unicode="&#x45f;" horiz-adv-x="484" 
d="M53 94q0 16 4 44l53 332h46l-53 -334q-4 -28 -4 -40q0 -30 17 -47t49 -17q35 0 75.5 31.5t105.5 104.5l47 302h46l-51 -322v-148h-40l-5 114q-56 -62 -98.5 -93t-83.5 -31q-52 0 -80 26.5t-28 77.5zM141 -181l32 130h40l-21 -122z" />
    <glyph glyph-name="uni0462" unicode="&#x462;" 
d="M594 207q0 -93 -67 -150t-175 -57h-159l87 539h-209l7 43h209l19 121h47l-20 -121h209v-43h-216l-27 -169h107q91 0 139.5 -43t48.5 -120zM546 206q0 58 -35.5 89.5t-107.5 31.5h-111l-46 -285h108q88 0 140 44t52 120z" />
    <glyph glyph-name="uni0463" unicode="&#x463;" horiz-adv-x="690" 
d="M324 480q101 0 101 -104q0 -16 -4 -44l-7 -41q39 7 68 7q75 0 117.5 -34t42.5 -97q0 -78 -58.5 -127.5t-148.5 -49.5q-57 0 -111 22l51 322q4 26 4 40q0 30 -16 47t-45 17q-35 0 -76 -32t-104 -104l-47 -302h-46l51 322v148h40l5 -114q55 62 98 93t85 31zM479 259
q-36 0 -71 -8l-34 -214q24 -8 64 -8q69 0 113 38.5t44 96.5q0 44 -29.5 69.5t-86.5 25.5z" />
    <glyph glyph-name="uni0472" unicode="&#x472;" horiz-adv-x="698" 
d="M326 -13q-117 0 -186.5 86.5t-69.5 217.5q0 96 34 179.5t94 143.5q89 89 209 89q117 0 186.5 -86.5t69.5 -217.5q0 -96 -34 -179.5t-94 -143.5q-89 -89 -209 -89zM230 583q-85 -85 -106 -217h490q1 11 1 33q0 115 -57.5 188t-152.5 73q-98 0 -175 -77zM328 30
q98 0 175 77q85 85 106 218h-490q-1 -11 -1 -34q0 -115 57.5 -188t152.5 -73z" />
    <glyph glyph-name="uni0473" unicode="&#x473;" horiz-adv-x="468" 
d="M423 281q0 -118 -63.5 -204.5t-157.5 -86.5q-74 0 -115.5 54t-41.5 145q0 118 63.5 204.5t157.5 86.5q74 0 115.5 -54.5t41.5 -144.5zM264 441q-59 0 -105.5 -52.5t-62.5 -131.5h281q1 7 1 22q0 79 -31.5 120.5t-82.5 41.5zM205 29q60 0 106 53.5t61 134.5h-281
q-1 -9 -1 -26q0 -79 31.5 -120.5t83.5 -41.5z" />
    <glyph glyph-name="uni0474" unicode="&#x474;" horiz-adv-x="654" 
d="M717 652q-44 -8 -79.5 -45t-85.5 -130l-258 -481h-36l-151 690l44 11l135 -635l229 436q57 109 98 149.5t104 50.5v-46z" />
    <glyph glyph-name="uni0475" unicode="&#x475;" horiz-adv-x="454" 
d="M196 -5h-36l-92 470l45 10l75 -415l129 260q40 82 76 116.5t92 41.5v-44q-41 -7 -68 -35t-64 -100z" />
    <glyph glyph-name="uni0490" unicode="&#x490;" horiz-adv-x="430" 
d="M469 648h-261l-103 -648h-47l110 690h262l21 130h47z" />
    <glyph glyph-name="uni0491" unicode="&#x491;" horiz-adv-x="364" 
d="M365 429h-208l-68 -429h-46l75 470h209l25 147h46z" />
    <glyph glyph-name="uni0492" unicode="&#x492;" horiz-adv-x="442" 
d="M320 348h-148l-55 -348h-47l55 348h-86v38h93l48 304h303v-43h-263l-42 -261h148z" />
    <glyph glyph-name="uni0493" unicode="&#x493;" horiz-adv-x="380" 
d="M268 214h-129l-34 -214h-46l34 214h-69v39h75l35 217h252v-41h-213l-28 -176h129z" />
    <glyph glyph-name="uni0496" unicode="&#x496;" horiz-adv-x="849" 
d="M733 -162l26 162h-31l-265 359l-56 -359h-47l58 359l-371 -359h-62l387 368l-249 318l48 12l249 -328l50 320h47l-52 -319l338 319h62l-354 -328l243 -321h55l-30 -196z" />
    <glyph glyph-name="uni0497" unicode="&#x497;" horiz-adv-x="648" 
d="M533 -153l25 153h-27l-187 246l-37 -246h-46l41 245l-253 -245h-58l266 253l-179 213l48 9l178 -221l32 216h46l-36 -216l238 216h58l-251 -223l163 -207h54l-30 -185z" />
    <glyph glyph-name="uni0498" unicode="&#x498;" horiz-adv-x="521" 
d="M151 -162l26 153q-78 9 -163 59l15 45q98 -64 186 -64q81 0 134 46t53 113q0 68 -52.5 109.5t-136.5 41.5h-51v43h59q105 0 164 43t59 112q0 53 -36.5 86.5t-103.5 33.5q-83 0 -185 -60v49q93 53 187 53q88 0 137.5 -45.5t49.5 -114.5q0 -72 -47.5 -118t-128.5 -66
q133 -43 133 -166q0 -81 -63.5 -141t-164.5 -61l-25 -144z" />
    <glyph glyph-name="uni0499" unicode="&#x499;" horiz-adv-x="431" 
d="M128 -153l25 145q-80 7 -147 44l15 41q80 -45 159 -45q61 0 98.5 27t37.5 69q0 92 -137 92h-60v41h65q77 0 118.5 28t41.5 73q0 34 -26.5 55t-79.5 21q-72 0 -157 -44v45q83 40 161 40q72 0 110.5 -32t38.5 -82q0 -49 -32 -81t-90 -45q45 -10 69.5 -39.5t24.5 -68.5
q0 -59 -45.5 -96.5t-120.5 -42.5l-24 -137z" />
    <glyph glyph-name="uni049A" unicode="&#x49a;" horiz-adv-x="573" 
d="M459 -162l26 162h-31l-292 361l-57 -361h-47l110 690h47l-51 -318l369 318h65l-381 -324l264 -325h54l-30 -196z" />
    <glyph glyph-name="uni049B" unicode="&#x49b;" horiz-adv-x="427" 
d="M318 -153l25 153h-27l-189 244l-38 -244h-46l75 470h46l-35 -216l233 216h64l-249 -223l165 -207h51l-30 -185z" />
    <glyph glyph-name="uni049C" unicode="&#x49c;" horiz-adv-x="587" 
d="M471 -7l-194 349l-28 -173h-38l28 178h-79l-55 -347h-47l110 690h47l-48 -302h79l28 176h38l-27 -170l264 296h60l-296 -327l207 -358z" />
    <glyph glyph-name="uni049D" unicode="&#x49d;" horiz-adv-x="451" 
d="M348 -5l-132 227l-19 -119h-37l19 122h-56l-35 -225h-45l75 470h45l-33 -205h56l19 122h37l-18 -118l172 201h58l-201 -226l141 -239z" />
    <glyph glyph-name="uni04A0" unicode="&#x4a0;" horiz-adv-x="700" 
d="M594 -7l-297 368l-57 -361h-47l103 647h-208l7 43h255l-51 -318l369 318h65l-381 -324l293 -361z" />
    <glyph glyph-name="uni04A1" unicode="&#x4a1;" horiz-adv-x="498" 
d="M406 -7l-194 251l-38 -244h-46l69 430h-146l6 40h192l-35 -216l233 216h64l-249 -223l193 -242z" />
    <glyph glyph-name="uni04A2" unicode="&#x4a2;" horiz-adv-x="666" 
d="M513 -162l26 162h-57l54 340h-377l-54 -340h-47l110 690h47l-49 -308h377l49 308h47l-103 -649h53l-30 -196z" />
    <glyph glyph-name="uni04A3" unicode="&#x4a3;" horiz-adv-x="504" 
d="M365 -153l25 153h-52l36 227h-249l-36 -227h-46l75 470h46l-32 -202h249l32 202h46l-69 -430h50l-30 -185z" />
    <glyph glyph-name="uni04A4" unicode="&#x4a4;" horiz-adv-x="834" 
d="M105 0h-47l110 690h47l-49 -308h367l49 308h293v-42h-253l-103 -648h-47l54 341h-367z" />
    <glyph glyph-name="uni04A5" unicode="&#x4a5;" horiz-adv-x="649" 
d="M338 0l36 228h-249l-36 -228h-46l75 470h46l-32 -202h249l32 202h242v-42h-203l-68 -428h-46z" />
    <glyph glyph-name="uni04AA" unicode="&#x4aa;" horiz-adv-x="570" 
d="M293 -155l-46 -7l26 153q-91 16 -147.5 91.5t-56.5 198.5q0 170 97.5 295.5t237.5 125.5q98 0 171 -57l-8 -54q-74 68 -162 68q-122 0 -204 -112t-82 -266q0 -115 55.5 -182.5t144.5 -67.5q91 0 178 59v-51q-88 -51 -179 -51z" />
    <glyph glyph-name="uni04AB" unicode="&#x4ab;" horiz-adv-x="408" 
d="M198 -145l-45 -8l25 147q-61 12 -97 63.5t-36 133.5q0 117 66 203t160 86q63 0 118 -40l-8 -48q-60 47 -112 47q-73 0 -125 -74.5t-52 -171.5q0 -77 34.5 -119.5t94.5 -42.5q54 0 118 45v-45q-57 -41 -117 -41z" />
    <glyph glyph-name="uni04AE" unicode="&#x4ae;" horiz-adv-x="576" 
d="M617 690l-294 -393l-47 -297h-47l47 296l-169 391l47 10l151 -361l258 354h54z" />
    <glyph glyph-name="uni04AF" unicode="&#x4af;" horiz-adv-x="446" 
d="M451 470l-245 -465l-28 -176l-47 -10l30 192l-93 454l45 10l80 -415l208 410h50z" />
    <glyph glyph-name="uni04B0" unicode="&#x4b0;" horiz-adv-x="576" 
d="M443 194h-136l-31 -194h-47l31 194h-140l6 38h140l10 64l-169 391l47 10l151 -361l258 354h54l-294 -393l-10 -65h130v-38z" />
    <glyph glyph-name="uni04B1" unicode="&#x4b1;" horiz-adv-x="446" 
d="M178 -171l-47 -10l22 143h-112l6 38h112l2 11l-93 454l45 10l80 -415l208 410h50l-245 -465l-1 -5h111v-38h-117z" />
    <glyph glyph-name="uni04B2" unicode="&#x4b2;" horiz-adv-x="603" 
d="M470 -162l26 162h-30l-156 325l-254 -325h-55l290 362l-160 322l48 10l142 -298l229 294h55l-263 -332l156 -317h48l-30 -196z" />
    <glyph glyph-name="uni04B3" unicode="&#x4b3;" horiz-adv-x="439" 
d="M316 -153l25 153h-27l-101 209l-160 -209h-53l193 244l-110 222l45 12l95 -199l150 191h53l-183 -228l100 -202h48l-30 -185z" />
    <glyph glyph-name="uni04B6" unicode="&#x4b6;" horiz-adv-x="580" 
d="M427 -162l26 162h-57l44 279q-78 -16 -134 -16q-199 0 -199 171q0 32 7 78l29 178h47l-29 -179q-7 -45 -7 -75q0 -131 155 -131q61 0 138 17l59 368h47l-103 -649h53l-30 -196z" />
    <glyph glyph-name="uni04B7" unicode="&#x4b7;" horiz-adv-x="460" 
d="M321 -153l25 153h-52l29 183q-49 -13 -99 -13q-74 0 -114 32.5t-40 94.5q0 22 6 55l19 118h46l-19 -119q-5 -30 -5 -52q0 -86 116 -86q48 0 97 13l39 244h46l-69 -430h50l-30 -185z" />
    <glyph glyph-name="uni04B8" unicode="&#x4b8;" horiz-adv-x="576" 
d="M443 0h-47l44 279q-78 -16 -134 -16h-6l-25 -160h-38l26 162q-156 18 -156 169q0 32 7 78l29 178h47l-29 -179q-7 -45 -7 -75q0 -113 115 -129l30 191h38l-30 -193h2q61 0 138 17l59 368h47z" />
    <glyph glyph-name="uni04B9" unicode="&#x4b9;" horiz-adv-x="458" 
d="M340 0h-46l29 183q-49 -13 -99 -13h-3l-19 -121h-37l20 124q-115 16 -115 124q0 22 6 55l19 118h46l-19 -119q-5 -30 -5 -52q0 -69 75 -83l21 133h37l-22 -136h5q48 0 97 13l39 244h46z" />
    <glyph glyph-name="uni04BA" unicode="&#x4ba;" horiz-adv-x="576" 
d="M302 385q-61 0 -138 -17l-59 -368h-47l110 690h47l-44 -279q78 16 134 16q199 0 199 -171q0 -32 -7 -78l-29 -178h-47l29 179q7 45 7 75q0 131 -155 131z" />
    <glyph glyph-name="uni04BB" unicode="&#x4bb;" horiz-adv-x="482" 
d="M429 376q0 -16 -4 -44l-53 -332h-46l53 334q4 28 4 40q0 30 -17 47t-49 17q-35 0 -75.5 -31.5t-105.5 -104.5l-47 -302h-46l112 705l47 10l-56 -351q53 58 94.5 87t80.5 29q52 0 80 -26.5t28 -77.5z" />
    <glyph glyph-name="uni04C0" unicode="&#x4c0;" horiz-adv-x="254" 
d="M223 690l-110 -690h-47l110 690h47z" />
    <glyph glyph-name="uni04C1" unicode="&#x4c1;" horiz-adv-x="841" 
d="M644 866q-14 -45 -50 -77t-92 -32t-82 32t-24 77l36 5q4 -32 24.5 -49.5t53.5 -17.5q68 0 100 67zM733 -7l-270 366l-56 -359h-47l58 359l-371 -359h-62l387 368l-249 318l48 12l249 -328l50 320h47l-52 -319l338 319h62l-354 -328l270 -357z" />
    <glyph glyph-name="uni04C2" unicode="&#x4c2;" horiz-adv-x="643" 
d="M515 666q-14 -45 -50 -77t-92 -32t-82 32t-24 77l36 5q4 -32 24.5 -49.5t53.5 -17.5q68 0 100 67zM535 -5l-191 251l-37 -246h-46l41 245l-253 -245h-58l266 253l-179 213l48 9l178 -221l32 216h46l-36 -216l238 216h58l-251 -223l192 -243z" />
    <glyph glyph-name="uni04CF" unicode="&#x4cf;" horiz-adv-x="220" 
d="M208 715l-113 -715h-46l112 705z" />
    <glyph glyph-name="uni04D0" unicode="&#x4d0;" 
d="M549 876q-14 -45 -50 -77t-92 -32t-82 32t-24 77l36 5q4 -32 24.5 -49.5t53.5 -17.5q68 0 100 67zM525 -7l-52 243h-295l-125 -236h-51l375 694h39l154 -690zM387 627l-187 -350h264z" />
    <glyph glyph-name="uni04D1" unicode="&#x4d1;" horiz-adv-x="478" 
d="M439 666q-14 -45 -50 -77t-92 -32t-82 32t-24 77l36 5q4 -32 24.5 -49.5t53.5 -17.5q68 0 100 67zM338 164l44 256q-38 16 -83 16q-84 0 -146 -81t-62 -206q0 -58 19.5 -88.5t52.5 -30.5q29 0 66.5 29t108.5 105zM337 113q-60 -64 -100.5 -93.5t-77.5 -29.5
q-54 0 -84.5 41.5t-30.5 114.5q0 138 76.5 234.5t185.5 96.5q63 0 125 -31l-50 -300v-146h-40z" />
    <glyph glyph-name="uni04D2" unicode="&#x4d2;" 
d="M361 776h-69l13 79h69zM528 776h-70l13 79h70zM525 -7l-52 243h-295l-125 -236h-51l375 694h39l154 -690zM387 627l-187 -350h264z" />
    <glyph glyph-name="uni04D3" unicode="&#x4d3;" horiz-adv-x="478" 
d="M251 566h-69l13 79h69zM418 566h-70l13 79h70zM338 164l44 256q-38 16 -83 16q-84 0 -146 -81t-62 -206q0 -58 19.5 -88.5t52.5 -30.5q29 0 66.5 29t108.5 105zM337 113q-60 -64 -100.5 -93.5t-77.5 -29.5q-54 0 -84.5 41.5t-30.5 114.5q0 138 76.5 234.5t185.5 96.5
q63 0 125 -31l-50 -300v-146h-40z" />
    <glyph glyph-name="uni04D4" unicode="&#x4d4;" horiz-adv-x="855" 
d="M463 277l60 378l-284 -378h224zM419 0l38 236h-249l-177 -236h-51l519 690h359l-7 -42h-282l-42 -266h222v-42h-229l-48 -298h293l-7 -42h-339z" />
    <glyph glyph-name="uni04D5" unicode="&#x4d5;" horiz-adv-x="715" 
d="M675 311q0 -27 -7 -72h-297q-3 -22 -3 -46q0 -77 34 -119.5t92 -42.5q63 0 143 60v-47q-75 -54 -148 -54q-107 0 -148 94q-105 -93 -190 -93q-56 0 -92 31t-36 88q0 161 311 184l4 31q8 60 -12.5 88t-73.5 28q-58 0 -144 -42v43q80 38 147 38q115 0 128 -89q64 89 153 89
q67 0 103 -44t36 -125zM626 276q9 78 -14.5 121t-77.5 43q-51 0 -95 -45t-62 -119h249zM328 121q-7 39 -7 70q0 35 6 67q-257 -19 -257 -145q0 -40 23.5 -61t62.5 -21q69 0 172 90z" />
    <glyph glyph-name="uni04D6" unicode="&#x4d6;" horiz-adv-x="476" 
d="M483 866q-14 -45 -50 -77t-92 -32t-82 32t-24 77l36 5q4 -32 24.5 -49.5t53.5 -17.5q68 0 100 67zM497 690l-7 -43h-282l-42 -264h222v-43h-229l-48 -297h293l-7 -43h-339l110 690h329z" />
    <glyph glyph-name="uni04D7" unicode="&#x4d7;" horiz-adv-x="439" 
d="M420 666q-14 -45 -50 -77t-92 -32t-82 32t-24 77l36 5q4 -32 24.5 -49.5t53.5 -17.5q68 0 100 67zM258 440q-50 0 -94.5 -44.5t-61.5 -119.5h248q9 78 -14.5 121t-77.5 43zM361 44q-75 -54 -148 -54q-81 0 -124.5 53t-43.5 144q0 129 65 211t150 82q67 0 103 -44t36 -125
q0 -27 -7 -72h-297q-3 -24 -3 -50q0 -74 33 -116t91 -42q65 0 145 60v-47z" />
    <glyph glyph-name="uni04D8" unicode="&#x4d8;" horiz-adv-x="653" 
d="M284 -13q-105 0 -158.5 68t-53.5 199q0 60 9 114h486q3 25 3 53q0 114 -55 176.5t-149 62.5q-105 0 -211 -68v50q105 61 215 61q115 0 181.5 -73.5t66.5 -206.5q0 -180 -97.5 -308t-236.5 -128zM287 30q98 0 175 84t100 213h-438q-4 -29 -4 -71q0 -226 167 -226z" />
    <glyph glyph-name="uni04D9" unicode="&#x4d9;" horiz-adv-x="439" 
d="M179 -10q-67 0 -103 44t-36 125q0 27 7 72h297q3 24 3 50q0 74 -33 116t-91 42q-65 0 -145 -60v47q75 54 148 54q81 0 124.5 -53t43.5 -144q0 -129 -65 -211t-150 -82zM181 30q50 0 94.5 44.5t61.5 119.5h-248q-9 -78 14.5 -121t77.5 -43z" />
    <glyph glyph-name="uni04DC" unicode="&#x4dc;" horiz-adv-x="841" 
d="M456 766h-69l13 79h69zM623 766h-70l13 79h70zM733 -7l-270 366l-56 -359h-47l58 359l-371 -359h-62l387 368l-249 318l48 12l249 -328l50 320h47l-52 -319l338 319h62l-354 -328l270 -357z" />
    <glyph glyph-name="uni04DD" unicode="&#x4dd;" horiz-adv-x="643" 
d="M327 566h-69l13 79h69zM494 566h-70l13 79h70zM535 -5l-191 251l-37 -246h-46l41 245l-253 -245h-58l266 253l-179 213l48 9l178 -221l32 216h46l-36 -216l238 216h58l-251 -223l192 -243z" />
    <glyph glyph-name="uni04DE" unicode="&#x4de;" horiz-adv-x="521" 
d="M284 776h-69l13 79h69zM451 776h-70l13 79h70zM450 191q0 -83 -66.5 -143t-170.5 -59q-99 1 -199 61l15 45q98 -64 186 -64q81 0 134 46t53 113q0 68 -52.5 109.5t-136.5 41.5h-51v43h59q105 0 164 43t59 112q0 53 -36.5 86.5t-103.5 33.5q-83 0 -185 -60v49
q93 53 187 53q88 0 137.5 -45.5t49.5 -114.5q0 -72 -47.5 -118t-128.5 -66q133 -43 133 -166z" />
    <glyph glyph-name="uni04DF" unicode="&#x4df;" horiz-adv-x="431" 
d="M207 566h-69l13 79h69zM374 566h-70l13 79h70zM176 -9q-88 0 -170 45l15 41q80 -45 159 -45q61 0 98.5 27t37.5 69q0 92 -137 92h-60v41h65q77 0 118.5 28t41.5 73q0 34 -26.5 55t-79.5 21q-72 0 -157 -44v45q83 40 161 40q72 0 110.5 -32t38.5 -82q0 -49 -32 -81
t-90 -45q45 -10 69.5 -39.5t24.5 -68.5q0 -63 -51.5 -101.5t-135.5 -38.5z" />
    <glyph glyph-name="uni04E2" unicode="&#x4e2;" horiz-adv-x="662" 
d="M545 783h-255l7 43h255zM58 0l110 690h46l-96 -601l469 601h52l-110 -690h-46l99 618l-483 -618h-41z" />
    <glyph glyph-name="uni04E3" unicode="&#x4e3;" horiz-adv-x="484" 
d="M414 578h-255l7 43h255zM53 94q0 16 4 44l53 332h46l-53 -334q-4 -28 -4 -40q0 -30 17 -47t49 -17q35 0 75.5 31.5t105.5 104.5l47 302h46l-51 -322v-148h-40l-5 114q-56 -62 -98.5 -93t-83.5 -31q-52 0 -80 26.5t-28 77.5z" />
    <glyph glyph-name="uni04E4" unicode="&#x4e4;" horiz-adv-x="662" 
d="M366 766h-69l13 79h69zM533 766h-70l13 79h70zM58 0l110 690h46l-96 -601l469 601h52l-110 -690h-46l99 618l-483 -618h-41z" />
    <glyph glyph-name="uni04E5" unicode="&#x4e5;" horiz-adv-x="484" 
d="M236 561h-69l13 79h69zM403 561h-70l13 79h70zM53 94q0 16 4 44l53 332h46l-53 -334q-4 -28 -4 -40q0 -30 17 -47t49 -17q35 0 75.5 31.5t105.5 104.5l47 302h46l-51 -322v-148h-40l-5 114q-56 -62 -98.5 -93t-83.5 -31q-52 0 -80 26.5t-28 77.5z" />
    <glyph glyph-name="uni04E6" unicode="&#x4e6;" horiz-adv-x="698" 
d="M394 776h-69l13 79h69zM561 776h-70l13 79h70zM326 -13q-117 0 -186.5 86.5t-69.5 217.5q0 96 34 179.5t94 143.5q89 89 209 89q117 0 186.5 -86.5t69.5 -217.5q0 -96 -34 -179.5t-94 -143.5q-89 -89 -209 -89zM328 30q97 0 174 77q111 111 111 292q0 116 -56.5 188.5
t-151.5 72.5q-97 0 -174 -77q-111 -111 -111 -292q0 -116 56.5 -188.5t151.5 -72.5z" />
    <glyph glyph-name="uni04E7" unicode="&#x4e7;" horiz-adv-x="468" 
d="M238 566h-69l13 79h69zM405 566h-70l13 79h70zM423 281q0 -118 -63.5 -204.5t-157.5 -86.5q-74 0 -115.5 54t-41.5 145q0 118 63.5 204.5t157.5 86.5q74 0 115.5 -54.5t41.5 -144.5zM376 279q0 78 -30.5 119.5t-81.5 41.5q-71 0 -121.5 -74.5t-50.5 -174.5
q0 -78 31 -119.5t82 -41.5q71 0 121 74.5t50 174.5z" />
    <glyph glyph-name="uni04E8" unicode="&#x4e8;" horiz-adv-x="698" 
d="M326 -13q-117 0 -186.5 86.5t-69.5 217.5q0 96 34 179.5t94 143.5q89 89 209 89q117 0 186.5 -86.5t69.5 -217.5q0 -96 -34 -179.5t-94 -143.5q-89 -89 -209 -89zM230 583q-85 -85 -106 -217h490q1 11 1 33q0 115 -57.5 188t-152.5 73q-98 0 -175 -77zM328 30
q98 0 175 77q85 85 106 218h-490q-1 -11 -1 -34q0 -115 57.5 -188t152.5 -73z" />
    <glyph glyph-name="uni04E9" unicode="&#x4e9;" horiz-adv-x="468" 
d="M423 281q0 -118 -63.5 -204.5t-157.5 -86.5q-74 0 -115.5 54t-41.5 145q0 118 63.5 204.5t157.5 86.5q74 0 115.5 -54.5t41.5 -144.5zM264 441q-59 0 -105.5 -52.5t-62.5 -131.5h281q1 7 1 22q0 79 -31.5 120.5t-82.5 41.5zM205 29q60 0 106 53.5t61 134.5h-281
q-1 -9 -1 -26q0 -79 31.5 -120.5t83.5 -41.5z" />
    <glyph glyph-name="uni04EE" unicode="&#x4ee;" horiz-adv-x="588" 
d="M515 783h-255l7 43h255zM62 -9v47q67 4 108.5 31t84.5 96l37 59l-174 462l46 11l157 -429l255 422h54l-338 -547q-50 -81 -105 -115.5t-125 -36.5z" />
    <glyph glyph-name="uni04EF" unicode="&#x4ef;" horiz-adv-x="445" 
d="M409 578h-255l7 43h255zM450 470l-277 -548q-28 -55 -56.5 -77.5t-70.5 -22.5q-12 0 -26 2v41q14 -2 28 -2q29 0 48.5 16.5t40.5 56.5l33 63l-102 466l45 10l86 -419l201 414h50z" />
    <glyph glyph-name="uni04F0" unicode="&#x4f0;" horiz-adv-x="588" 
d="M336 766h-69l13 79h69zM503 766h-70l13 79h70zM62 -9v47q67 4 108.5 31t84.5 96l37 59l-174 462l46 11l157 -429l255 422h54l-338 -547q-50 -81 -105 -115.5t-125 -36.5z" />
    <glyph glyph-name="uni04F1" unicode="&#x4f1;" horiz-adv-x="445" 
d="M231 561h-69l13 79h69zM398 561h-70l13 79h70zM450 470l-277 -548q-28 -55 -56.5 -77.5t-70.5 -22.5q-12 0 -26 2v41q14 -2 28 -2q29 0 48.5 16.5t40.5 56.5l33 63l-102 466l45 10l86 -419l201 414h50z" />
    <glyph glyph-name="uni04F2" unicode="&#x4f2;" horiz-adv-x="588" 
d="M473 896l-161 -140h-35l131 157zM634 896l-160 -140h-35l130 157zM62 -9v47q67 4 108.5 31t84.5 96l37 59l-174 462l46 11l157 -429l255 422h54l-338 -547q-50 -81 -105 -115.5t-125 -36.5z" />
    <glyph glyph-name="uni04F3" unicode="&#x4f3;" horiz-adv-x="445" 
d="M367 691l-161 -140h-35l131 157zM528 691l-160 -140h-35l130 157zM450 470l-277 -548q-28 -55 -56.5 -77.5t-70.5 -22.5q-12 0 -26 2v41q14 -2 28 -2q29 0 48.5 16.5t40.5 56.5l33 63l-102 466l45 10l86 -419l201 414h50z" />
    <glyph glyph-name="uni04F4" unicode="&#x4f4;" horiz-adv-x="576" 
d="M312 766h-69l13 79h69zM479 766h-70l13 79h70zM443 0h-47l44 279q-78 -16 -134 -16q-199 0 -199 171q0 32 7 78l29 178h47l-29 -179q-7 -45 -7 -75q0 -131 155 -131q61 0 138 17l59 368h47z" />
    <glyph glyph-name="uni04F5" unicode="&#x4f5;" horiz-adv-x="458" 
d="M219 561h-69l13 79h69zM386 561h-70l13 79h70zM340 0h-46l29 183q-49 -13 -99 -13q-74 0 -114 32.5t-40 94.5q0 22 6 55l19 118h46l-19 -119q-5 -30 -5 -52q0 -86 116 -86q48 0 97 13l39 244h46z" />
    <glyph glyph-name="uni04F8" unicode="&#x4f8;" horiz-adv-x="720" 
d="M393 766h-69l13 79h69zM560 766h-70l13 79h70zM215 690l-48 -300h89q93 0 144 -45.5t51 -126.5q0 -98 -70.5 -158t-182.5 -60h-140l110 690h47zM693 690l-110 -690h-47l110 690h47zM403 216q0 132 -153 132h-90l-49 -306h88q93 0 148.5 47.5t55.5 126.5z" />
    <glyph glyph-name="uni04F9" unicode="&#x4f9;" horiz-adv-x="611" 
d="M308 561h-69l13 79h69zM475 561h-70l13 79h70zM564 470l-76 -470h-46l76 470h46zM45 16l72 454h46l-29 -181q43 9 78 9q75 0 117.5 -34t42.5 -97q0 -78 -58.5 -127.5t-148.5 -49.5q-65 0 -120 26zM325 164q0 44 -29.5 69.5t-86.5 25.5q-41 0 -81 -10l-33 -208
q31 -12 73 -12q69 0 113 38.5t44 96.5z" />
    <glyph glyph-name="Wgrave" unicode="&#x1e80;" horiz-adv-x="985" 
d="M588 752h-33l-116 140l70 15zM1009 690l-315 -690h-35l-107 618l-301 -618h-35l-95 686l48 11l79 -616l292 609h46l102 -609l271 609h50z" />
    <glyph glyph-name="wgrave" unicode="&#x1e81;" horiz-adv-x="681" 
d="M406 552h-33l-116 140l70 15zM686 470l-232 -475h-33l-55 399l-178 -399h-34l-82 473l43 10l66 -412l180 407h36l53 -407l189 404h47z" />
    <glyph glyph-name="Wacute" unicode="&#x1e82;" horiz-adv-x="985" 
d="M749 892l-160 -140h-40l131 155zM1009 690l-315 -690h-35l-107 618l-301 -618h-35l-95 686l48 11l79 -616l292 609h46l102 -609l271 609h50z" />
    <glyph glyph-name="wacute" unicode="&#x1e83;" horiz-adv-x="681" 
d="M567 692l-160 -140h-40l131 155zM686 470l-232 -475h-33l-55 399l-178 -399h-34l-82 473l43 10l66 -412l180 407h36l53 -407l189 404h47z" />
    <glyph glyph-name="Wdieresis" unicode="&#x1e84;" horiz-adv-x="985" 
d="M527 766h-69l13 79h69zM694 766h-70l13 79h70zM1009 690l-315 -690h-35l-107 618l-301 -618h-35l-95 686l48 11l79 -616l292 609h46l102 -609l271 609h50z" />
    <glyph glyph-name="wdieresis" unicode="&#x1e85;" horiz-adv-x="681" 
d="M345 566h-69l13 79h69zM512 566h-70l13 79h70zM686 470l-232 -475h-33l-55 399l-178 -399h-34l-82 473l43 10l66 -412l180 407h36l53 -407l189 404h47z" />
    <glyph glyph-name="Ygrave" unicode="&#x1ef2;" horiz-adv-x="576" 
d="M384 752h-33l-116 140l70 15zM617 690l-294 -393l-47 -297h-47l47 296l-169 391l47 10l151 -361l258 354h54z" />
    <glyph glyph-name="ygrave" unicode="&#x1ef3;" horiz-adv-x="445" 
d="M292 547h-33l-116 140l70 15zM450 470l-277 -548q-28 -55 -56.5 -77.5t-70.5 -22.5q-12 0 -26 2v41q14 -2 28 -2q29 0 48.5 16.5t40.5 56.5l33 63l-102 466l45 10l86 -419l201 414h50z" />
    <glyph glyph-name="enspace" unicode="&#x2002;" horiz-adv-x="500" 
 />
    <glyph glyph-name="emspace" unicode="&#x2003;" horiz-adv-x="1000" 
 />
    <glyph glyph-name="threeperemspace" unicode="&#x2004;" horiz-adv-x="333" 
 />
    <glyph glyph-name="fourperemspace" unicode="&#x2005;" horiz-adv-x="250" 
 />
    <glyph glyph-name="thinspace" unicode="&#x2009;" horiz-adv-x="133" 
 />
    <glyph glyph-name="hairspace" unicode="&#x200a;" horiz-adv-x="75" 
 />
    <glyph glyph-name="endash" unicode="&#x2013;" horiz-adv-x="457" 
d="M399 259h-333l7 47h333z" />
    <glyph glyph-name="emdash" unicode="&#x2014;" horiz-adv-x="915" 
d="M856 259h-790l7 47h791z" />
    <glyph glyph-name="quoteleft" unicode="&#x2018;" horiz-adv-x="203" 
d="M91 480l108 214l24 -6l-71 -208h-61z" />
    <glyph glyph-name="quoteright" unicode="&#x2019;" horiz-adv-x="203" 
d="M223 690l-108 -214l-24 6l71 208h61z" />
    <glyph glyph-name="quotesinglbase" unicode="&#x201a;" horiz-adv-x="203" 
d="M119 81l-108 -214l-24 6l71 208h61z" />
    <glyph glyph-name="quotedblleft" unicode="&#x201c;" horiz-adv-x="355" 
d="M243 480l108 214l24 -6l-71 -208h-61zM91 480l108 214l24 -6l-71 -208h-61z" />
    <glyph glyph-name="quotedblright" unicode="&#x201d;" horiz-adv-x="355" 
d="M375 690l-108 -214l-24 6l71 208h61zM223 690l-108 -214l-24 6l71 208h61z" />
    <glyph glyph-name="quotedblbase" unicode="&#x201e;" horiz-adv-x="355" 
d="M271 81l-108 -214l-24 6l71 208h61zM119 81l-108 -214l-24 6l71 208h61z" />
    <glyph glyph-name="dagger" unicode="&#x2020;" horiz-adv-x="498" 
d="M322 568l-30 -97h-13v91l20 128h42zM256 442l-103 -16h-67l6 43h67l99 -16zM472 426h-67l-99 16l1 11l105 16h67zM229 -15l-31 -102h-10v102l56 350l28 90h13v-90z" />
    <glyph glyph-name="daggerdbl" unicode="&#x2021;" horiz-adv-x="516" 
d="M332 568l-30 -97h-13v92l20 127h42zM481 426h-67l-98 16l2 11l104 16h67zM266 442l-104 -16h-67l7 43h67l99 -16zM268 168l-28 -89h-13v84l26 172l29 90h13v-85zM419 34h-67l-99 16l2 11l105 16h66zM204 50l-104 -16h-67l7 43h67l99 -16zM212 -187h-42l19 122l31 97h12
v-91z" />
    <glyph glyph-name="bullet" unicode="&#x2022;" horiz-adv-x="390" 
d="M316 350l-15 -97l-89 -17l-88 17l-15 97l15 97l88 16l89 -16z" />
    <glyph glyph-name="ellipsis" unicode="&#x2026;" horiz-adv-x="666" 
d="M103 0h-60l13 81h60zM326 0h-61l13 81h61zM548 0h-60l13 81h60z" />
    <glyph glyph-name="guilsinglleft" unicode="&#x2039;" horiz-adv-x="304" 
d="M283 470l-182 -239l106 -227l-34 -9l-130 241l201 234h39z" />
    <glyph glyph-name="guilsinglright" unicode="&#x203a;" horiz-adv-x="304" 
d="M21 0l182 239l-106 227l34 9l130 -241l-201 -234h-39z" />
    <glyph glyph-name="fraction" unicode="&#x2044;" horiz-adv-x="270" 
d="M165 331l-261 -339l-34 9l272 350l261 339l33 -10z" />
    <glyph glyph-name="Euro" unicode="&#x20ac;" horiz-adv-x="586" 
d="M511 38q-80 -51 -161 -51q-94 0 -153.5 68t-65.5 191h-93v38h92q1 67 20 132h-91l6 38h98q39 104 111.5 169.5t158.5 65.5q95 0 161 -57l-8 -45q-38 33 -73 48t-82 15q-70 0 -129.5 -54.5t-93.5 -141.5h246v-38h-259q-19 -63 -21 -132h259l-6 -38h-252q6 -105 54 -162.5
t125 -57.5q73 0 157 54v-42z" />
    <glyph glyph-name="hryvnia" unicode="&#x20b4;" horiz-adv-x="549" 
d="M440 50q-126 -62 -215 -62q-74 0 -117.5 29.5t-43.5 86.5q0 77 90 155l-110 13v37l151 -18l133 101l-257 31l7 37l292 -35l1 1q57 45 82.5 77t25.5 68t-29.5 57.5t-87.5 21.5q-86 0 -205 -63v42q116 59 207 59q76 0 117 -31.5t41 -81.5q0 -42 -26 -78.5t-77 -77.5
l120 -14v-38l-162 19l-133 -101l267 -32l-7 -37l-301 37q-96 -74 -96 -145q0 -82 120 -82q91 0 213 67v-43z" />
    <glyph glyph-name="numero" unicode="&#x2116;" horiz-adv-x="1035" 
d="M589 690l-110 -690h-32l-248 608l-96 -608h-45l110 690h46l237 -591l93 591h45zM982 361q0 -91 -54 -158.5t-134 -67.5q-67 0 -106.5 46.5t-39.5 123.5q0 91 54 158.5t134 67.5q67 0 106.5 -46.5t39.5 -123.5zM940 359q0 62 -28.5 98.5t-76.5 36.5q-62 0 -103.5 -57
t-41.5 -130q0 -62 28.5 -98.5t76.5 -36.5q62 0 103.5 57t41.5 130zM915 0h-302l6 37h302z" />
    <glyph glyph-name="published" unicode="&#x2117;" horiz-adv-x="811" 
d="M766 345q0 -158 -94 -258t-249 -100t-250 100.5t-95 257.5q0 158 94.5 258t248.5 100q155 0 250 -100t95 -258zM739 345q0 148 -87 241t-231 93t-229.5 -93t-85.5 -241t86.5 -241t231.5 -93q144 0 229.5 93t85.5 241zM558 428q0 -56 -39 -87.5t-99 -31.5h-53v-159h-41
v393h101q58 0 94.5 -31t36.5 -84zM516 426q0 38 -24.5 58.5t-66.5 20.5h-58v-159h54q44 0 69.5 20.5t25.5 59.5z" />
    <glyph glyph-name="servicemark" unicode="&#x2120;" horiz-adv-x="802" 
d="M775 345h-37l-21 286l-114 -287h-31l-112 286l-22 -285h-35l26 345h44l116 -304l116 304h43zM213 340q-47 0 -93 23l4 36q46 -27 91 -27q31 0 52.5 16.5t21.5 45.5q0 25 -16 41.5t-52 31.5q-54 24 -75 44.5t-21 56.5q0 37 29 62t70 25q46 0 83 -20l-6 -34q-39 22 -78 22
q-28 0 -46 -15t-18 -38t16 -37.5t58 -32.5q48 -21 69.5 -44t21.5 -60q0 -44 -32.5 -70t-78.5 -26z" />
    <glyph glyph-name="trademark" unicode="&#x2122;" horiz-adv-x="802" 
d="M343 656h-110v-311h-37v311h-107v34h249zM775 345h-37l-21 286l-114 -287h-31l-112 286l-22 -285h-35l26 345h44l116 -304l116 304h43z" />
    <glyph glyph-name="Omega" unicode="&#x2126;" horiz-adv-x="714" 
d="M281 40l-12 -40h-225l7 42l169 -1l-37 41q-101 113 -101 260q0 151 99 256t239 105q123 0 192 -74.5t69 -193.5q0 -105 -49.5 -190.5t-148.5 -166.5l-45 -37l164 1l-6 -42h-225v40l76 63q91 76 137.5 155t46.5 173q0 103 -55 166t-157 63q-119 0 -203 -94.5t-84 -224.5
q0 -132 97 -242z" />
    <glyph glyph-name="Delta" unicode="&#x2206;" horiz-adv-x="663" 
d="M582 0h-575v32l370 662h51l164 -662zM396 644l-333 -604h478z" />
    <glyph glyph-name="minus" unicode="&#x2212;" horiz-adv-x="568" 
d="M522 317h-448l6 42h448z" />
    <glyph glyph-name="hcoslug" unicode="&#xe10b;" horiz-adv-x="694" 
d="M644 700v-800h-594v800h594zM247 428q0 13 7.5 21t19.5 8q13 0 21 -10.5t8 -27.5q0 -22 -18 -50q-15 14 -21 20.5t-11.5 17t-5.5 21.5zM312 342q30 20 42 34q29 -29 -1 -80q-33 38 -41 46zM261 219q-22 0 -37 15.5t-15 38.5q0 24 16 40q34 -32 74 -82q-15 -12 -38 -12z
M382 264q20 26 46 42q15 -25 43 -25q21 0 35.5 15.5t14.5 38.5t-14.5 37.5t-35.5 14.5q-35 0 -60 -38q-3 39 -49 37q9 15 9 34q0 29 -25.5 51.5t-69.5 22.5q-48 0 -78.5 -25.5t-30.5 -59.5q0 -37 31 -69q-82 -28 -82 -91q0 -39 32 -66t77 -27q63 0 104 45q44 -45 85 -45
q33 0 56 25.5t24 68.5l-7 2q-17 -29 -43 -29q-27 0 -62 41zM286 124l-12 -2v-9h-7v-7h7v-20q0 -13 12 -13q11 0 14 13l-5 2q-1 -7 -5 -7t-4 5v20h13v7h-13v11zM174 94q0 -21 21 -21q9 0 15 6t6 15q0 20 -21 20t-21 -20zM203 94q0 -16 -8 -16t-8 16q0 15 8 15t8 -15zM219 81
v-7h22v7h-4v15q0 10 7 10q6 0 6 -7v-18h-4v-7h22v7h-6v19q0 14 -12 14q-9 0 -14 -11v10h-17v-7h6v-25h-6zM379 93q0 -13 -7 -13q-8 0 -8 13t8 13q7 0 7 -13zM125 81v-7h30v7h-10v16h4q5 0 6 -8h7v23h-7q-1 -8 -6 -8h-4v18h12q9 0 11 -13h8v20h-51v-7h7v-41h-7zM302 88v-14h7
l1 4q7 -5 13 -5q14 0 14 13q0 9 -12 12t-12 6q0 4 5 4t10 -7h7v13h-6l-2 -5q-3 5 -11 5q-14 0 -14 -12q0 -9 12 -12.5t12 -6.5q0 -4 -5 -4q-6 0 -12 9h-7zM352 125v-52h6l4 8q5 -8 14 -8q16 0 16 21q0 20 -15 20q-10 0 -13 -9v27h-18v-7h6zM405 65q3 2 1.5 6t-6.5 4
q-7 0 -7 -7q0 -9 11 -9q12 0 18 16l13 31h5v7h-17v-7h5l-8 -20l-9 20h6v7h-25v-7h5q12 -23 16 -33q-2 -8 -8 -8zM294 39v3q0 12 6 12l3 -1q-1 -1 -1 -3q0 -6 6 -6v-5h-14zM464 33h-18v-7h6q-2 -5 -6 -9q-2 2 -5.5 6t-6.5 7q11 5 11 12q0 12 -14 12q-17 0 -17 -14q0 -6 6 -12
q-13 -4 -13 -15q0 -14 18 -14q9 0 15 6q5 -6 12 -6q10 0 13 12l-5 1q-1 -5 -4 -5t-6 5q6 8 9 14h5v7zM469 27q0 -28 29 -28q22 0 24 23h-8q-2 -16 -14 -16q-16 0 -16 22t14 22q10 0 15 -16h8v22h-8l-1 -6q-7 7 -16 7q-11 0 -19 -8.5t-8 -21.5zM431 33q-6 6 -6 10q0 5 5 5
q6 0 6 -6t-5 -9zM340 18h26q2 22 -19 22q-8 0 -14 -6t-6 -15q0 -20 21 -20q14 0 18 14h-7q-1 -7 -9 -7q-10 0 -10 12zM525 20q0 -21 21 -21q9 0 15 6t6 15q0 20 -21 20t-21 -20zM189 20q0 -21 21 -21q9 0 15 6t6 15q0 20 -21 20t-21 -20zM247 18h26q2 22 -19 22q-8 0 -14 -6
t-6 -15q0 -20 21 -20q15 0 18 14h-7q-1 -7 -9 -7q-10 0 -10 12zM340 23q0 12 7 12t7 -12h-14zM554 20q0 -16 -8 -16t-8 16q0 15 8 15t8 -15zM218 20q0 -16 -8 -16t-8 16q0 15 8 15t8 -15zM247 23q0 12 7 12t7 -12h-14zM368 7v-7h26v7h-8v16q4 9 7 9v-1q0 -6 6 -6q7 0 7 7
q0 8 -8 8t-12 -11v10h-18v-7h6v-25h-6zM276 7v-7h23v7h-5v25h14v-25h-5v-7h23v7h-6v52l-10 -2q-4 2 -9 2q-19 0 -19 -19v-1h-7v-7h7v-25h-6zM124 7v-7h29v7h-8v18h22v-18h-8v-7h29v7h-8v41h8v7h-29v-7h8v-16h-22v16h8v7h-29v-7h8v-41h-8zM437 9q-5 -3 -8 -3q-10 0 -10 10
q0 5 4 9q4 -4 14 -16zM583 6q0 7 -7 7t-7 -7t7 -7t7 7z" />
    <glyph glyph-name="f_f" unicode="&#xfb00;" horiz-adv-x="538" 
d="M593 665q-20 5 -43 5q-39 0 -58 -19.5t-25 -61.5l-19 -119h100v-39h-106l-95 -602l-47 -10l97 612h-73l5 39h74l20 127q17 115 127 115q23 0 43 -4v-43zM324 665q-20 5 -43 5q-39 0 -58 -19.5t-25 -61.5l-19 -119h100v-39h-106l-95 -602l-47 -10l97 612h-73l5 39h74
l20 127q17 115 127 115q23 0 43 -4v-43z" />
    <glyph glyph-name="fi" unicode="&#xfb01;" horiz-adv-x="487" 
d="M481 638q0 -16 -12 -28t-28 -12q-15 0 -27 12t-12 28t12 28t27 12q17 0 28.5 -12t11.5 -28zM324 665q-20 5 -43 5q-39 0 -58 -19.5t-25 -61.5l-19 -119h100v-39h-106l-95 -602l-47 -10l97 612h-73l5 39h74l20 127q17 115 127 115q23 0 43 -4v-43zM439 470l-76 -470h-46
l76 470h46z" />
    <glyph glyph-name="fl" unicode="&#xfb02;" horiz-adv-x="487" 
d="M476 715l-113 -715h-46l112 705zM324 665q-20 5 -43 5q-39 0 -58 -19.5t-25 -61.5l-19 -119h100v-39h-106l-95 -602l-47 -10l97 612h-73l5 39h74l20 127q17 115 127 115q23 0 43 -4v-43z" />
    <glyph glyph-name="f_f_i" unicode="&#xfb03;" horiz-adv-x="756" 
d="M750 638q0 -16 -12 -28t-28 -12q-15 0 -27 12t-12 28t12 28t27 12q16 0 28 -12t12 -28zM593 665q-20 5 -43 5q-39 0 -58 -19.5t-25 -61.5l-19 -119h100v-39h-106l-95 -602l-47 -10l97 612h-73l5 39h74l20 127q17 115 127 115q23 0 43 -4v-43zM324 665q-20 5 -43 5
q-39 0 -58 -19.5t-25 -61.5l-19 -119h100v-39h-106l-95 -602l-47 -10l97 612h-73l5 39h74l20 127q17 115 127 115q23 0 43 -4v-43zM708 470l-76 -470h-46l76 470h46z" />
    <glyph glyph-name="f_f_l" unicode="&#xfb04;" horiz-adv-x="756" 
d="M745 715l-113 -715h-46l112 705zM593 665q-20 5 -43 5q-39 0 -58 -19.5t-25 -61.5l-19 -119h100v-39h-106l-95 -602l-47 -10l97 612h-73l5 39h74l20 127q17 115 127 115q23 0 43 -4v-43zM324 665q-20 5 -43 5q-39 0 -58 -19.5t-25 -61.5l-19 -119h100v-39h-106l-95 -602
l-47 -10l97 612h-73l5 39h74l20 127q17 115 127 115q23 0 43 -4v-43z" />
    <glyph glyph-name="M.alt" horiz-adv-x="849" 
d="M716 0h-47l96 602l-365 -605h-29l-172 605l-96 -602h-44l109 690h55l173 -628l374 628h55z" />
    <glyph glyph-name="Q.alt" horiz-adv-x="698" 
d="M620 -14l-93 83q-88 -82 -201 -82q-117 0 -186.5 86.5t-69.5 217.5q0 96 34 179.5t94 143.5q89 89 209 89q117 0 186.5 -86.5t69.5 -217.5q0 -174 -106 -298l79 -69zM328 30q91 0 166 69l-167 141l62 9l134 -119q90 109 90 269q0 116 -56.5 188.5t-151.5 72.5
q-97 0 -174 -77q-111 -111 -111 -292q0 -116 56.5 -188.5t151.5 -72.5z" />
    <glyph glyph-name="U.alt" horiz-adv-x="649" 
d="M625 690l-110 -690h-30v88q-120 -96 -231 -96q-80 0 -125.5 43t-45.5 123q0 29 4 52l76 480h47l-77 -482q-4 -30 -4 -42q0 -64 34 -98.5t94 -34.5q106 0 233 103l88 554h47z" />
    <glyph glyph-name="W.alt" horiz-adv-x="964" 
d="M597 -4l-89 429l-221 -429h-34l-143 690l47 11l124 -629l214 421l-41 197l47 11l124 -629l320 622h51l-365 -694h-34z" />
    <glyph glyph-name="a.alt" horiz-adv-x="445" 
d="M141 30q67 0 166 103l20 124q-257 -13 -257 -152q0 -33 19 -54t52 -21zM338 322q10 62 -10.5 90.5t-74.5 28.5q-62 0 -147 -42v43q81 38 152 38q77 0 107.5 -40.5t18.5 -114.5l-33 -200v-125h-39l-4 90q-94 -99 -170 -99q-50 0 -82.5 30t-32.5 81q0 81 70 131.5t240 59.5
z" />
    <glyph glyph-name="g.alt" horiz-adv-x="467" 
d="M349 333q0 51 -27.5 80t-77.5 29q-58 0 -95.5 -41t-37.5 -94q0 -50 28.5 -79.5t77.5 -29.5q58 0 95 41t37 94zM393 -48q0 -57 -61.5 -98t-146.5 -41q-92 0 -151 32.5t-59 85.5q0 41 29 73t100 67q-31 19 -32 48q-1 31 51 69q-59 41 -59 118q0 71 54.5 122.5t127.5 51.5
q65 0 107 -40l121 37v-52l-101 -10q23 -34 23 -81q0 -71 -54 -122.5t-126 -51.5q-32 0 -62 11q-37 -26 -36 -43q1 -15 19 -25t76 -26l36 -10q77 -22 110.5 -47.5t33.5 -67.5zM186 -149q69 0 114 30t45 66q0 27 -25.5 43.5t-90.5 35.5l-32 9q-43 13 -54 17
q-121 -51 -121 -118q0 -37 44 -60t120 -23z" />
    <glyph glyph-name="uni039C.alt" horiz-adv-x="849" 
d="M716 0h-47l96 602l-365 -605h-29l-172 605l-96 -602h-44l109 690h55l173 -628l374 628h55z" />
    <glyph glyph-name="uni0414.alt" horiz-adv-x="731" 
d="M430 640l-332 -598h474zM589 -162l26 162h-574l-25 -159h-45l32 201h44l364 652h52l159 -652h43l-30 -197z" />
    <glyph glyph-name="uni041B.alt" horiz-adv-x="642" 
d="M416 694l152 -690l-45 -11l-137 635l-333 -628h-51l374 694h40z" />
    <glyph glyph-name="uni041B.bgr" horiz-adv-x="642" 
d="M416 694l152 -690l-45 -11l-137 635l-333 -628h-51l374 694h40z" />
    <glyph glyph-name="uni041C.alt" horiz-adv-x="849" 
d="M716 0h-47l96 602l-365 -605h-29l-172 605l-96 -602h-44l109 690h55l173 -628l374 628h55z" />
    <glyph glyph-name="uni0424.bgr" horiz-adv-x="798" 
d="M370 -99h-47l16 98q-125 10 -197 92.5t-72 209.5q0 170 111 281t267 111l15 96h47l-16 -98q124 -11 196.5 -94t72.5 -208q0 -170 -111 -281t-267 -111zM120 302q0 -113 60.5 -183t165.5 -79l96 611q-129 -3 -225 -99q-45 -45 -71 -110t-26 -140zM713 388q0 111 -61 181.5
t-165 80.5l-96 -611q129 3 225 99q45 45 71 110t26 140z" />
    <glyph glyph-name="uni0430.alt" horiz-adv-x="445" 
d="M141 30q67 0 166 103l20 124q-257 -13 -257 -152q0 -33 19 -54t52 -21zM338 322q10 62 -10.5 90.5t-74.5 28.5q-62 0 -147 -42v43q81 38 152 38q77 0 107.5 -40.5t18.5 -114.5l-33 -200v-125h-39l-4 90q-94 -99 -170 -99q-50 0 -82.5 30t-32.5 81q0 81 70 131.5t240 59.5
z" />
    <glyph glyph-name="uni0431.srb" horiz-adv-x="474" 
d="M216 -10q-79 0 -126 54t-47 137q0 187 208 285q-43 37 -60.5 62.5t-17.5 55.5q0 81 131 102l184 29v-44l-180 -28q-88 -14 -88 -60q0 -19 16 -39t71 -71q66 -62 94.5 -116t28.5 -125q0 -100 -60.5 -171t-153.5 -71zM217 30q71 0 118.5 59.5t47.5 141.5q0 62 -22 107
t-79 99q-95 -44 -143.5 -105t-48.5 -150q0 -67 35.5 -109.5t91.5 -42.5z" />
    <glyph glyph-name="uni0432.bgr" horiz-adv-x="508" 
d="M49 38l76 479q14 85 66 140t135 55q74 0 114 -45t40 -115q0 -78 -42.5 -129t-111.5 -76q125 -45 125 -160q0 -88 -61.5 -142t-159.5 -54q-90 0 -181 47zM169 510l-23 -142h84q91 0 147.5 53t56.5 127q0 55 -29 89t-81 34q-62 0 -103 -45t-52 -116zM231 31q77 0 125 42.5
t48 111.5q0 65 -48 104t-136 39h-80l-42 -266q62 -31 133 -31z" />
    <glyph glyph-name="uni0433.srb" horiz-adv-x="237" 
d="M293 583h-255l7 43h255zM173 1q-25 -9 -50 -9q-67 0 -67 68q0 16 5 48l59 362h46l-59 -365q-4 -28 -4 -40q0 -32 28 -32q18 0 42 9v-41z" />
    <glyph glyph-name="uni0434.srb" horiz-adv-x="479" 
d="M382 415q-48 21 -91 21q-85 0 -142 -70.5t-57 -187.5q0 -64 24.5 -100.5t65.5 -36.5q31 0 66.5 28t92.5 92zM431 441l-69 -435q-14 -91 -64 -137.5t-130 -46.5q-69 0 -150 34l8 43q78 -35 147 -35q123 0 145 146l14 92q-45 -52 -80 -76.5t-75 -24.5q-62 0 -97 46t-35 128
q0 130 71 216t180 86q63 0 135 -36z" />
    <glyph glyph-name="uni0434.bgr" horiz-adv-x="479" 
d="M382 415q-48 21 -91 21q-85 0 -142 -70.5t-57 -187.5q0 -64 24.5 -100.5t65.5 -36.5q31 0 66.5 28t92.5 92zM431 441l-69 -435q-14 -91 -64 -137.5t-130 -46.5q-69 0 -150 34l8 43q78 -35 147 -35q123 0 145 146l14 92q-45 -52 -80 -76.5t-75 -24.5q-62 0 -97 46t-35 128
q0 130 71 216t180 86q63 0 135 -36z" />
    <glyph glyph-name="uni0436.bgr" horiz-adv-x="643" 
d="M535 -5l-191 251l-37 -246h-46l41 245l-253 -245h-58l266 253l-179 213l48 9l178 -221l70 451l47 10l-75 -461l238 216h58l-251 -223l192 -243z" />
    <glyph glyph-name="uni043A.bgr" horiz-adv-x="422" 
d="M89 0h-46l112 705l47 10l-71 -451l231 206h65l-247 -214l190 -251l-50 -12l-191 260z" />
    <glyph glyph-name="uni043F.srb" horiz-adv-x="484" 
d="M415 578h-255l7 43h255zM53 94q0 16 4 44l53 332h46l-53 -334q-4 -28 -4 -40q0 -30 17 -47t49 -17q35 0 75.5 31.5t105.5 104.5l47 302h46l-51 -322v-148h-40l-5 114q-56 -62 -98.5 -93t-83.5 -31q-52 0 -80 26.5t-28 77.5z" />
    <glyph glyph-name="uni0442.srb" horiz-adv-x="755" 
d="M686 578h-527l7 43h527zM52 94q0 16 4 44l53 332h46l-53 -334q-4 -26 -4 -40q0 -30 16 -47t45 -17q35 0 76 32t104 104l48 302h46l-53 -334q-4 -26 -4 -40q0 -30 16 -47t45 -17q35 0 76 32t104 104l47 302h46l-51 -322v-148h-40l-5 114q-55 -62 -98 -93t-85 -31
q-101 0 -101 104q0 7 1 14q-54 -59 -95.5 -88.5t-82.5 -29.5q-101 0 -101 104z" />
    <glyph glyph-name="uni0448.srb" horiz-adv-x="755" 
d="M52 94q0 16 4 44l53 332h46l-53 -334q-4 -26 -4 -40q0 -30 16 -47t45 -17q35 0 76 32t104 104l48 302h46l-53 -334q-4 -26 -4 -40q0 -30 16 -47t45 -17q35 0 76 32t104 104l47 302h46l-51 -322v-148h-40l-5 114q-55 -62 -98 -93t-85 -31q-101 0 -101 104q0 7 1 14
q-54 -59 -95.5 -88.5t-82.5 -29.5q-101 0 -101 104zM586 -175h-537l7 43h537z" />
    <glyph glyph-name="uni044E.bgr" horiz-adv-x="639" 
d="M377 -10q-71 0 -111 53.5t-40 142.5q0 14 2 42h-103l-36 -228h-46l112 705l47 10l-70 -447h103q20 91 76.5 151.5t131.5 60.5q71 0 111 -54t40 -142q0 -116 -62 -205t-155 -89zM547 282q0 76 -28.5 117t-76.5 41q-70 0 -119.5 -76.5t-49.5 -175.5q0 -76 28.5 -117
t77.5 -41q70 0 119 76.5t49 175.5z" />
    <glyph glyph-name="aacute.alt" horiz-adv-x="445" 
d="M446 692l-160 -140h-40l131 155zM141 30q67 0 166 103l20 124q-257 -13 -257 -152q0 -33 19 -54t52 -21zM338 322q10 62 -10.5 90.5t-74.5 28.5q-62 0 -147 -42v43q81 38 152 38q77 0 107.5 -40.5t18.5 -114.5l-33 -200v-125h-39l-4 90q-94 -99 -170 -99q-50 0 -82.5 30
t-32.5 81q0 81 70 131.5t240 59.5z" />
    <glyph glyph-name="abreve.alt" horiz-adv-x="445" 
d="M412 666q-14 -45 -50 -77t-92 -32t-82 32t-24 77l36 5q4 -32 24.5 -49.5t53.5 -17.5q68 0 100 67zM141 30q67 0 166 103l20 124q-257 -13 -257 -152q0 -33 19 -54t52 -21zM338 322q10 62 -10.5 90.5t-74.5 28.5q-62 0 -147 -42v43q81 38 152 38q77 0 107.5 -40.5
t18.5 -114.5l-33 -200v-125h-39l-4 90q-94 -99 -170 -99q-50 0 -82.5 30t-32.5 81q0 81 70 131.5t240 59.5z" />
    <glyph glyph-name="acircumflex.alt" horiz-adv-x="445" 
d="M397 552h-26l-86 96l-110 -96h-34l132 149h42zM141 30q67 0 166 103l20 124q-257 -13 -257 -152q0 -33 19 -54t52 -21zM338 322q10 62 -10.5 90.5t-74.5 28.5q-62 0 -147 -42v43q81 38 152 38q77 0 107.5 -40.5t18.5 -114.5l-33 -200v-125h-39l-4 90q-94 -99 -170 -99
q-50 0 -82.5 30t-32.5 81q0 81 70 131.5t240 59.5z" />
    <glyph glyph-name="adieresis.alt" horiz-adv-x="445" 
d="M224 566h-69l13 79h69zM391 566h-70l13 79h70zM141 30q67 0 166 103l20 124q-257 -13 -257 -152q0 -33 19 -54t52 -21zM338 322q10 62 -10.5 90.5t-74.5 28.5q-62 0 -147 -42v43q81 38 152 38q77 0 107.5 -40.5t18.5 -114.5l-33 -200v-125h-39l-4 90q-94 -99 -170 -99
q-50 0 -82.5 30t-32.5 81q0 81 70 131.5t240 59.5z" />
    <glyph glyph-name="agrave.alt" horiz-adv-x="445" 
d="M285 552h-33l-116 140l70 15zM141 30q67 0 166 103l20 124q-257 -13 -257 -152q0 -33 19 -54t52 -21zM338 322q10 62 -10.5 90.5t-74.5 28.5q-62 0 -147 -42v43q81 38 152 38q77 0 107.5 -40.5t18.5 -114.5l-33 -200v-125h-39l-4 90q-94 -99 -170 -99q-50 0 -82.5 30
t-32.5 81q0 81 70 131.5t240 59.5z" />
    <glyph glyph-name="amacron.alt" horiz-adv-x="445" 
d="M402 583h-255l7 43h255zM141 30q67 0 166 103l20 124q-257 -13 -257 -152q0 -33 19 -54t52 -21zM338 322q10 62 -10.5 90.5t-74.5 28.5q-62 0 -147 -42v43q81 38 152 38q77 0 107.5 -40.5t18.5 -114.5l-33 -200v-125h-39l-4 90q-94 -99 -170 -99q-50 0 -82.5 30t-32.5 81
q0 81 70 131.5t240 59.5z" />
    <glyph glyph-name="aogonek.alt" horiz-adv-x="445" 
d="M141 30q67 0 166 103l20 124q-257 -13 -257 -152q0 -33 19 -54t52 -21zM334 -165q-24 -8 -46 -8q-63 0 -63 52q0 48 54 98l33 31l-4 82q-94 -99 -170 -99q-50 0 -82.5 30t-32.5 81q0 81 70 131.5t240 59.5l5 29q10 62 -10.5 90.5t-74.5 28.5q-62 0 -147 -42v43
q81 38 152 38q77 0 107.5 -40.5t18.5 -114.5l-33 -200v-125h-8l-34 -34q-41 -41 -41 -74q0 -30 35 -30q20 0 36 5z" />
    <glyph glyph-name="aring.alt" horiz-adv-x="445" 
d="M286 550q-40 0 -67 26t-27 66q0 39 27 66.5t67 27.5q39 0 66 -27.5t27 -66.5q0 -40 -26.5 -66t-66.5 -26zM286 580q26 0 42.5 17.5t16.5 44.5t-17 45t-42 18q-26 0 -43 -18t-17 -45t17 -44.5t43 -17.5zM141 30q67 0 166 103l20 124q-257 -13 -257 -152q0 -33 19 -54
t52 -21zM338 322q10 62 -10.5 90.5t-74.5 28.5q-62 0 -147 -42v43q81 38 152 38q77 0 107.5 -40.5t18.5 -114.5l-33 -200v-125h-39l-4 90q-94 -99 -170 -99q-50 0 -82.5 30t-32.5 81q0 81 70 131.5t240 59.5z" />
    <glyph glyph-name="aringacute.alt" horiz-adv-x="445" 
d="M479 921l-160 -140h-40l131 155zM286 550q-40 0 -67 26t-27 66q0 39 27 66.5t67 27.5q39 0 66 -27.5t27 -66.5q0 -40 -26.5 -66t-66.5 -26zM286 580q26 0 42.5 17.5t16.5 44.5t-17 45t-42 18q-26 0 -43 -18t-17 -45t17 -44.5t43 -17.5zM141 30q67 0 166 103l20 124
q-257 -13 -257 -152q0 -33 19 -54t52 -21zM338 322q10 62 -10.5 90.5t-74.5 28.5q-62 0 -147 -42v43q81 38 152 38q77 0 107.5 -40.5t18.5 -114.5l-33 -200v-125h-39l-4 90q-94 -99 -170 -99q-50 0 -82.5 30t-32.5 81q0 81 70 131.5t240 59.5z" />
    <glyph glyph-name="atilde.alt" horiz-adv-x="445" 
d="M434 656q-17 -46 -40.5 -70.5t-49.5 -24.5q-28 0 -72 27q-42 27 -59 27q-26 0 -48 -55l-33 7q17 46 40.5 70.5t49.5 24.5q28 0 72 -27q42 -27 59 -27q26 0 48 55zM141 30q67 0 166 103l20 124q-257 -13 -257 -152q0 -33 19 -54t52 -21zM338 322q10 62 -10.5 90.5
t-74.5 28.5q-62 0 -147 -42v43q81 38 152 38q77 0 107.5 -40.5t18.5 -114.5l-33 -200v-125h-39l-4 90q-94 -99 -170 -99q-50 0 -82.5 30t-32.5 81q0 81 70 131.5t240 59.5z" />
    <glyph glyph-name="gbreve.alt" horiz-adv-x="467" 
d="M416 666q-14 -45 -50 -77t-92 -32t-82 32t-24 77l36 5q4 -32 24.5 -49.5t53.5 -17.5q68 0 100 67zM349 333q0 51 -27.5 80t-77.5 29q-58 0 -95.5 -41t-37.5 -94q0 -50 28.5 -79.5t77.5 -29.5q58 0 95 41t37 94zM393 -48q0 -57 -61.5 -98t-146.5 -41q-92 0 -151 32.5
t-59 85.5q0 41 29 73t100 67q-31 19 -32 48q-1 31 51 69q-59 41 -59 118q0 71 54.5 122.5t127.5 51.5q65 0 107 -40l121 37v-52l-101 -10q23 -34 23 -81q0 -71 -54 -122.5t-126 -51.5q-32 0 -62 11q-37 -26 -36 -43q1 -15 19 -25t76 -26l36 -10q77 -22 110.5 -47.5
t33.5 -67.5zM186 -149q69 0 114 30t45 66q0 27 -25.5 43.5t-90.5 35.5l-32 9q-43 13 -54 17q-121 -51 -121 -118q0 -37 44 -60t120 -23z" />
    <glyph glyph-name="gcommaaccent.alt" horiz-adv-x="479" 
d="M325 578l-44 -21q-37 29 -37 67q0 59 92 124l32 -4q-78 -64 -78 -108q0 -27 35 -58zM349 333q0 51 -27.5 80t-77.5 29q-58 0 -95.5 -41t-37.5 -94q0 -50 28.5 -79.5t77.5 -29.5q58 0 95 41t37 94zM393 -48q0 -57 -61.5 -98t-146.5 -41q-92 0 -151 32.5t-59 85.5
q0 41 29 73t100 67q-31 19 -32 48q-1 31 51 69q-59 41 -59 118q0 71 54.5 122.5t127.5 51.5q65 0 107 -40l121 37v-52l-101 -10q23 -34 23 -81q0 -71 -54 -122.5t-126 -51.5q-32 0 -62 11q-37 -26 -36 -43q1 -15 19 -25t76 -26l36 -10q77 -22 110.5 -47.5t33.5 -67.5z
M186 -149q69 0 114 30t45 66q0 27 -25.5 43.5t-90.5 35.5l-32 9q-43 13 -54 17q-121 -51 -121 -118q0 -37 44 -60t120 -23z" />
    <glyph glyph-name="gdotaccent.alt" horiz-adv-x="467" 
d="M311 561h-71l13 81h71zM349 333q0 51 -27.5 80t-77.5 29q-58 0 -95.5 -41t-37.5 -94q0 -50 28.5 -79.5t77.5 -29.5q58 0 95 41t37 94zM393 -48q0 -57 -61.5 -98t-146.5 -41q-92 0 -151 32.5t-59 85.5q0 41 29 73t100 67q-31 19 -32 48q-1 31 51 69q-59 41 -59 118
q0 71 54.5 122.5t127.5 51.5q65 0 107 -40l121 37v-52l-101 -10q23 -34 23 -81q0 -71 -54 -122.5t-126 -51.5q-32 0 -62 11q-37 -26 -36 -43q1 -15 19 -25t76 -26l36 -10q77 -22 110.5 -47.5t33.5 -67.5zM186 -149q69 0 114 30t45 66q0 27 -25.5 43.5t-90.5 35.5l-32 9
q-43 13 -54 17q-121 -51 -121 -118q0 -37 44 -60t120 -23z" />
    <glyph glyph-name="Uacute.alt" horiz-adv-x="649" 
d="M582 892l-160 -140h-40l131 155zM625 690l-110 -690h-30v88q-120 -96 -231 -96q-80 0 -125.5 43t-45.5 123q0 29 4 52l76 480h47l-77 -482q-4 -30 -4 -42q0 -64 34 -98.5t94 -34.5q106 0 233 103l88 554h47z" />
    <glyph glyph-name="Ubreve.alt" horiz-adv-x="649" 
d="M549 861q-14 -45 -50 -77t-92 -32t-82 32t-24 77l36 5q4 -32 24.5 -49.5t53.5 -17.5q68 0 100 67zM625 690l-110 -690h-30v88q-120 -96 -231 -96q-80 0 -125.5 43t-45.5 123q0 29 4 52l76 480h47l-77 -482q-4 -30 -4 -42q0 -64 34 -98.5t94 -34.5q106 0 233 103l88 554
h47z" />
    <glyph glyph-name="Ucircumflex.alt" horiz-adv-x="649" 
d="M534 752h-26l-86 96l-110 -96h-34l132 149h42zM625 690l-110 -690h-30v88q-120 -96 -231 -96q-80 0 -125.5 43t-45.5 123q0 29 4 52l76 480h47l-77 -482q-4 -30 -4 -42q0 -64 34 -98.5t94 -34.5q106 0 233 103l88 554h47z" />
    <glyph glyph-name="Udieresis.alt" horiz-adv-x="649" 
d="M360 766h-69l13 79h69zM527 766h-70l13 79h70zM625 690l-110 -690h-30v88q-120 -96 -231 -96q-80 0 -125.5 43t-45.5 123q0 29 4 52l76 480h47l-77 -482q-4 -30 -4 -42q0 -64 34 -98.5t94 -34.5q106 0 233 103l88 554h47z" />
    <glyph glyph-name="Ugrave.alt" horiz-adv-x="649" 
d="M421 752h-33l-116 140l70 15zM625 690l-110 -690h-30v88q-120 -96 -231 -96q-80 0 -125.5 43t-45.5 123q0 29 4 52l76 480h47l-77 -482q-4 -30 -4 -42q0 -64 34 -98.5t94 -34.5q106 0 233 103l88 554h47z" />
    <glyph glyph-name="Uhungarumlaut.alt" horiz-adv-x="649" 
d="M497 896l-161 -140h-35l131 157zM658 896l-160 -140h-35l130 157zM625 690l-110 -690h-30v88q-120 -96 -231 -96q-80 0 -125.5 43t-45.5 123q0 29 4 52l76 480h47l-77 -482q-4 -30 -4 -42q0 -64 34 -98.5t94 -34.5q106 0 233 103l88 554h47z" />
    <glyph glyph-name="Umacron.alt" horiz-adv-x="649" 
d="M539 783h-255l7 43h255zM625 690l-110 -690h-30v88q-120 -96 -231 -96q-80 0 -125.5 43t-45.5 123q0 29 4 52l76 480h47l-77 -482q-4 -30 -4 -42q0 -64 34 -98.5t94 -34.5q106 0 233 103l88 554h47z" />
    <glyph glyph-name="Uogonek.alt" horiz-adv-x="649" 
d="M502 -165q-24 -8 -46 -8q-63 0 -63 52q0 48 54 98l38 36v75q-120 -96 -231 -96q-80 0 -125.5 43t-45.5 123q0 29 4 52l76 480h47l-77 -482q-4 -30 -4 -42q0 -64 34 -98.5t94 -34.5q106 0 233 103l88 554h47l-110 -690h-4l-34 -34q-41 -41 -41 -74q0 -30 35 -30q20 0 36 5
z" />
    <glyph glyph-name="Uring.alt" horiz-adv-x="649" 
d="M421 740q-40 0 -67 26t-27 66q0 39 27 66.5t67 27.5q39 0 66 -27.5t27 -66.5q0 -40 -26.5 -66t-66.5 -26zM421 770q26 0 42.5 17.5t16.5 44.5t-17 45t-42 18q-26 0 -43 -18t-17 -45t17 -44.5t43 -17.5zM625 690l-110 -690h-30v88q-120 -96 -231 -96q-80 0 -125.5 43
t-45.5 123q0 29 4 52l76 480h47l-77 -482q-4 -30 -4 -42q0 -64 34 -98.5t94 -34.5q106 0 233 103l88 554h47z" />
    <glyph glyph-name="Wacute.alt" horiz-adv-x="964" 
d="M716 892l-160 -140h-40l131 155zM597 -4l-89 429l-221 -429h-34l-143 690l47 11l124 -629l214 421l-41 197l47 11l124 -629l320 622h51l-365 -694h-34z" />
    <glyph glyph-name="Wcircumflex.alt" horiz-adv-x="964" 
d="M667 752h-26l-86 96l-110 -96h-34l132 149h42zM597 -4l-89 429l-221 -429h-34l-143 690l47 11l124 -629l214 421l-41 197l47 11l124 -629l320 622h51l-365 -694h-34z" />
    <glyph glyph-name="Wdieresis.alt" horiz-adv-x="964" 
d="M494 766h-69l13 79h69zM661 766h-70l13 79h70zM597 -4l-89 429l-221 -429h-34l-143 690l47 11l124 -629l214 421l-41 197l47 11l124 -629l320 622h51l-365 -694h-34z" />
    <glyph glyph-name="Wgrave.alt" horiz-adv-x="964" 
d="M555 752h-33l-116 140l70 15zM597 -4l-89 429l-221 -429h-34l-143 690l47 11l124 -629l214 421l-41 197l47 11l124 -629l320 622h51l-365 -694h-34z" />
    <glyph glyph-name="uni0386.calt" 
d="M525 -7l-52 243h-295l-125 -236h-51l375 694h39l154 -690zM387 627l-187 -350h264z" />
    <glyph glyph-name="uni0388.calt" horiz-adv-x="476" 
d="M497 690l-7 -43h-282l-42 -264h222v-43h-229l-48 -297h293l-7 -43h-339l110 690h329z" />
    <glyph glyph-name="uni0389.calt" horiz-adv-x="662" 
d="M639 690l-110 -690h-47l54 340h-377l-54 -340h-47l110 690h47l-49 -308h377l49 308h47z" />
    <glyph glyph-name="uni038A.calt" horiz-adv-x="254" 
d="M223 690l-110 -690h-47l110 690h47z" />
    <glyph glyph-name="uni038C.calt" horiz-adv-x="698" 
d="M326 -13q-117 0 -186.5 86.5t-69.5 217.5q0 96 34 179.5t94 143.5q89 89 209 89q117 0 186.5 -86.5t69.5 -217.5q0 -96 -34 -179.5t-94 -143.5q-89 -89 -209 -89zM328 30q97 0 174 77q111 111 111 292q0 116 -56.5 188.5t-151.5 72.5q-97 0 -174 -77q-111 -111 -111 -292
q0 -116 56.5 -188.5t151.5 -72.5z" />
    <glyph glyph-name="uni038E.calt" horiz-adv-x="576" 
d="M617 690l-294 -393l-47 -297h-47l47 296l-169 391l47 10l151 -361l258 354h54z" />
    <glyph glyph-name="uni038F.calt" horiz-adv-x="714" 
d="M281 40l-12 -40h-225l7 42l169 -1l-37 41q-101 113 -101 260q0 151 99 256t239 105q123 0 192 -74.5t69 -193.5q0 -105 -49.5 -190.5t-148.5 -166.5l-45 -37l164 1l-6 -42h-225v40l76 63q91 76 137.5 155t46.5 173q0 103 -55 166t-157 63q-119 0 -203 -94.5t-84 -224.5
q0 -132 97 -242z" />
    <glyph glyph-name="uni0399.calt" horiz-adv-x="254" 
d="M163 766h-69l13 79h69zM330 766h-70l13 79h70zM223 690l-110 -690h-47l110 690h47z" />
    <glyph glyph-name="uni03A5.calt" horiz-adv-x="576" 
d="M323 766h-69l13 79h69zM490 766h-70l13 79h70zM617 690l-294 -393l-47 -297h-47l47 296l-169 391l47 10l151 -361l258 354h54z" />
    <glyph glyph-name="uni0409.alt" horiz-adv-x="903" 
d="M521 0l-135 628l-333 -628h-51l374 694h40l67 -304h172q93 0 144 -45.5t51 -126.5q0 -98 -70.5 -158t-182.5 -60h-76zM492 348l67 -306h39q93 0 148.5 47.5t55.5 126.5q0 132 -153 132h-157z" />
    <glyph glyph-name="uni04D1.alt" horiz-adv-x="445" 
d="M412 666q-14 -45 -50 -77t-92 -32t-82 32t-24 77l36 5q4 -32 24.5 -49.5t53.5 -17.5q68 0 100 67zM141 30q67 0 166 103l20 124q-257 -13 -257 -152q0 -33 19 -54t52 -21zM338 322q10 62 -10.5 90.5t-74.5 28.5q-62 0 -147 -42v43q81 38 152 38q77 0 107.5 -40.5
t18.5 -114.5l-33 -200v-125h-39l-4 90q-94 -99 -170 -99q-50 0 -82.5 30t-32.5 81q0 81 70 131.5t240 59.5z" />
    <glyph glyph-name="uni04D3.alt" horiz-adv-x="445" 
d="M224 566h-69l13 79h69zM391 566h-70l13 79h70zM141 30q67 0 166 103l20 124q-257 -13 -257 -152q0 -33 19 -54t52 -21zM338 322q10 62 -10.5 90.5t-74.5 28.5q-62 0 -147 -42v43q81 38 152 38q77 0 107.5 -40.5t18.5 -114.5l-33 -200v-125h-39l-4 90q-94 -99 -170 -99
q-50 0 -82.5 30t-32.5 81q0 81 70 131.5t240 59.5z" />
    <glyph glyph-name="three.alt" horiz-adv-x="490" 
d="M423 199q0 -94 -63.5 -153t-158.5 -59q-94 0 -187 56l14 43q93 -59 175 -59q73 0 122.5 45.5t49.5 121.5q0 73 -51 110.5t-144 37.5h-12v33l260 262h-306v39h373l-5 -30l-266 -267q93 -8 146 -54t53 -126z" />
    <glyph glyph-name="four.alt" horiz-adv-x="572" 
d="M521 166h-114l-27 -166h-43l27 166h-332l5 29l392 487l44 -9l-378 -469h274l32 201l46 11l-34 -212h114z" />
    <glyph glyph-name="comma.alt" horiz-adv-x="203" 
d="M55 81h55q1 -6 1 -16q0 -96 -114 -200l-20 15q77 96 79 183q0 10 -1 18z" />
    <glyph glyph-name="semicolon.alt" horiz-adv-x="212" 
d="M104 390l13 80h60l-13 -80h-60zM-8 -135l-20 15q77 96 79 183q0 10 -1 18h55q1 -6 1 -16q0 -96 -114 -200z" />
    <glyph glyph-name="quotedblleft.alt" horiz-adv-x="355" 
d="M353 696l22 -14q-67 -91 -67 -170q0 -10 2 -32h-54q-3 15 -3 29q0 88 100 187zM201 696l22 -14q-67 -91 -67 -170q0 -10 2 -32h-54q-3 15 -3 29q0 88 100 187z" />
    <glyph glyph-name="quotedblright.alt" horiz-adv-x="355" 
d="M265 474l-22 14q67 91 67 170q0 10 -2 32h54q3 -15 3 -29q0 -88 -100 -187zM113 474l-22 14q67 91 67 170q0 10 -2 32h54q3 -15 3 -29q0 -88 -100 -187z" />
    <glyph glyph-name="quoteleft.alt" horiz-adv-x="203" 
d="M201 696l22 -14q-67 -91 -67 -170q0 -10 2 -32h-54q-3 15 -3 29q0 88 100 187z" />
    <glyph glyph-name="quoteright.alt" horiz-adv-x="203" 
d="M113 474l-22 14q67 91 67 170q0 10 -2 32h54q3 -15 3 -29q0 -88 -100 -187z" />
    <glyph glyph-name="quotedblbase.alt" horiz-adv-x="355" 
d="M161 -135l-22 14q67 91 67 170q0 10 -2 32h54q3 -15 3 -29q0 -88 -100 -187zM9 -135l-22 14q67 91 67 170q0 10 -2 32h54q3 -15 3 -29q0 -88 -100 -187z" />
    <glyph glyph-name="quotesinglbase.alt" horiz-adv-x="203" 
d="M9 -135l-22 14q67 91 67 170q0 10 -2 32h54q3 -15 3 -29q0 -88 -100 -187z" />
    <glyph glyph-name="registered.alt" horiz-adv-x="811" 
d="M766 345q0 -158 -94 -258t-249 -100t-250 100.5t-95 257.5q0 158 94.5 258t248.5 100q155 0 250 -100t95 -258zM739 345q0 148 -87 241t-231 93t-229.5 -93t-85.5 -241t86.5 -241t231.5 -93q144 0 229.5 93t85.5 241zM542 437q0 -43 -25 -71.5t-66 -38.5l128 -168l-44 -8
l-128 171h-54v-168h-40v393h104q57 0 91 -30t34 -80zM416 509h-63v-150h56q42 0 66.5 20.5t24.5 56.5q0 35 -22 54t-62 19z" />
    <glyph glyph-name="servicemark.alt" horiz-adv-x="802" 
d="M572 343l-120 277v-275h-35v345h42l130 -306l130 306h42v-345h-35v275l-123 -277h-31zM213 340q-47 0 -93 23l4 36q46 -27 91 -27q31 0 52.5 16.5t21.5 45.5q0 25 -16 41.5t-52 31.5q-54 24 -75 44.5t-21 56.5q0 37 29 62t70 25q46 0 83 -20l-6 -34q-39 22 -78 22
q-28 0 -46 -15t-18 -38t16 -37.5t58 -32.5q48 -21 69.5 -44t21.5 -60q0 -44 -32.5 -70t-78.5 -26z" />
    <glyph glyph-name="trademark.alt" horiz-adv-x="802" 
d="M343 656h-110v-311h-37v311h-107v34h249zM761 345h-35v275l-123 -277h-30l-121 277v-275h-35v345h42l130 -306l130 306h42v-345z" />
    <glyph glyph-name="space.tab" horiz-adv-x="270" 
 />
    <glyph glyph-name="NUL" horiz-adv-x="0" 
 />
    <glyph glyph-name="A.flat" 
d="M387 627l-187 -350h264zM524 0l-51 236h-295l-125 -236h-51l375 694h39l155 -694h-47z" />
    <glyph glyph-name="E.flat" horiz-adv-x="476" 
d="M497 690l-7 -43h-282l-42 -264h225l-7 -43h-225l-48 -297h293l-7 -43h-339l110 690h329z" />
    <glyph glyph-name="F.flat" horiz-adv-x="447" 
d="M483 690l-7 -43h-268l-44 -275h217l-7 -43h-217l-52 -329h-47l110 690h315z" />
    <glyph glyph-name="G.flat" horiz-adv-x="625" 
d="M572 350l-50 -303q-96 -59 -195 -59q-115 0 -186.5 81t-71.5 210q0 111 43.5 208t122 156t172.5 59q104 0 176 -60l-9 -53q-75 70 -166 70q-81 0 -148 -52.5t-104 -139.5t-37 -188q0 -113 59.5 -181t151.5 -68q84 0 149 40l39 238h-179l7 42h226z" />
    <glyph glyph-name="K.flat" horiz-adv-x="565" 
d="M598 690l-381 -324l297 -366h-61l-291 361l-57 -361h-47l110 690h47l-51 -318l369 318h65z" />
    <glyph glyph-name="L.flat" horiz-adv-x="438" 
d="M371 0h-313l110 690h47l-104 -647h267z" />
    <glyph glyph-name="Q.alt_flat" horiz-adv-x="698" 
d="M620 -14l-93 83q-88 -82 -201 -82q-117 0 -186.5 86.5t-69.5 217.5q0 96 34 179.5t94 143.5q89 89 209 89q117 0 186.5 -86.5t69.5 -217.5q0 -174 -106 -298l79 -69zM328 30q91 0 166 69l-133 114l16 46l146 -129q90 109 90 269q0 116 -56.5 188.5t-151.5 72.5
q-97 0 -174 -77q-111 -111 -111 -292q0 -116 56.5 -188.5t151.5 -72.5z" />
    <glyph glyph-name="R.flat" horiz-adv-x="534" 
d="M447 521q0 127 -156 127h-83l-47 -295h91q88 0 141.5 47.5t53.5 120.5zM495 523q0 -81 -52 -136t-138 -69l179 -318h-54l-177 311h-99l-49 -311h-47l110 690h128q94 0 146.5 -43.5t52.5 -123.5z" />
    <glyph glyph-name="T.flat" horiz-adv-x="524" 
d="M560 647h-207l-103 -647h-47l103 647h-211l7 43h465z" />
    <glyph glyph-name="V.flat" horiz-adv-x="638" 
d="M670 690l-373 -694h-36l-152 694h48l132 -628l330 628h51z" />
    <glyph glyph-name="W.flat" horiz-adv-x="985" 
d="M1009 690l-315 -690h-35l-107 618l-301 -618h-35l-95 690h49l78 -609l292 609h46l102 -609l271 609h50z" />
    <glyph glyph-name="W.alt_flat" horiz-adv-x="964" 
d="M597 -4l-89 429l-221 -429h-34l-144 694h49l123 -622l214 421l-42 201h49l123 -622l320 622h51l-365 -694h-34z" />
    <glyph glyph-name="X.flat" horiz-adv-x="595" 
d="M466 0l-156 325l-254 -325h-55l290 362l-163 328h53l140 -294l229 294h55l-263 -332l177 -358h-53z" />
    <glyph glyph-name="Y.flat" horiz-adv-x="576" 
d="M617 690l-294 -393l-47 -297h-47l47 296l-170 394h51l148 -354l258 354h54z" />
    <glyph glyph-name="Z.flat" horiz-adv-x="568" 
d="M577 690l-5 -32l-482 -617h390l-7 -41h-450l5 32l483 617h-364l7 41h423z" />
    <glyph glyph-name="f.flat" horiz-adv-x="269" 
d="M324 665q-20 5 -43 5q-39 0 -58 -19.5t-25 -61.5l-19 -119h103l-7 -39h-102l-95 -602l-47 -10l97 612h-73l5 39h74l20 127q17 115 127 115q23 0 43 -4v-43z" />
    <glyph glyph-name="k.flat" horiz-adv-x="422" 
d="M89 0h-46l112 705l47 10l-71 -451l231 206h65l-247 -214l194 -256h-58l-187 253z" />
    <glyph glyph-name="t.flat" horiz-adv-x="311" 
d="M294 431h-116l-46 -290q-6 -42 -6 -54q0 -55 60 -55q22 0 50 6v-39q-28 -7 -58 -7q-98 0 -98 89q0 28 5 58l47 292h-74l7 39h73l26 167l47 10l-27 -177h117z" />
    <glyph glyph-name="v.flat" horiz-adv-x="436" 
d="M441 470l-245 -475h-36l-93 475h47l74 -410l203 410h50z" />
    <glyph glyph-name="w.flat" horiz-adv-x="681" 
d="M686 470l-232 -475h-33l-55 399l-178 -399h-34l-83 475h45l65 -404l180 407h36l53 -407l189 404h47z" />
    <glyph glyph-name="x.flat" horiz-adv-x="434" 
d="M314 0l-101 209l-160 -209h-53l193 244l-112 226h49l93 -192l150 192h53l-183 -228l120 -242h-49z" />
    <glyph glyph-name="y.flat" horiz-adv-x="445" 
d="M450 470l-277 -548q-28 -55 -56.5 -77.5t-70.5 -22.5q-12 0 -26 2v41q14 -2 28 -2q29 0 48.5 16.5t40.5 56.5l33 63l-103 471h47l85 -414l201 414h50z" />
    <glyph glyph-name="z.flat" horiz-adv-x="421" 
d="M405 470l-5 -35l-334 -396h276l-7 -39h-330l5 36l334 395h-256l7 39h310z" />
    <glyph glyph-name="two.flat" horiz-adv-x="504" 
d="M478 533q0 -62 -30.5 -114.5t-108.5 -128.5l-257 -249h328l-7 -41h-391l5 32l293 285q64 63 91.5 111.5t27.5 101.5q0 54 -31.5 86t-88.5 32q-76 0 -182 -69v45q96 65 185 65q78 0 122 -42.5t44 -113.5z" />
    <glyph glyph-name="three.flat" horiz-adv-x="489" 
d="M465 538q0 -135 -166 -182q123 -46 123 -161q0 -91 -63.5 -149.5t-158.5 -58.5q-96 0 -186 56l14 43q89 -59 174 -59q74 0 123 45.5t49 122.5q0 67 -46.5 104.5t-126.5 37.5h-27l7 41h14q100 0 161 40t61 115q0 53 -36.5 84t-92.5 31q-81 0 -171 -59v45q88 55 173 55
q78 0 126.5 -41.5t48.5 -109.5z" />
    <glyph glyph-name="three.alt_flat" horiz-adv-x="490" 
d="M423 199q0 -94 -63.5 -153t-158.5 -59q-94 0 -187 56l14 43q93 -59 175 -59q73 0 122.5 45.5t49.5 121.5q0 73 -51 110.5t-144 37.5h-12v33l260 262h-310l7 39h370l-5 -30l-266 -267q93 -8 146 -54t53 -126z" />
    <glyph glyph-name="four.alt_flat" horiz-adv-x="572" 
d="M521 166h-114l-27 -166h-43l27 166h-332l5 29l387 481h52l-381 -472h274l33 206h44l-33 -206h114z" />
    <glyph glyph-name="five.flat" horiz-adv-x="487" 
d="M470 637h-263l-51 -225q270 -32 270 -215q0 -95 -64.5 -152.5t-157.5 -57.5q-92 0 -183 47l14 42q89 -49 171 -49q75 0 124.5 45.5t49.5 121.5q0 81 -65.5 125t-209.5 56l67 301h305z" />
    <glyph glyph-name="seven.flat" horiz-adv-x="495" 
d="M512 676l-5 -30l-376 -646h-48l370 637h-341l7 39h393z" />
    <glyph glyph-name="sterling.flat" horiz-adv-x="522" 
d="M461 39l-7 -39h-416l6 32l119 281h-91l7 40h101l82 195q30 72 68.5 106.5t98.5 34.5q45 0 94 -19l-10 -40q-47 18 -87 18q-42 0 -71 -27.5t-53 -85.5l-76 -182h188l-7 -40h-198l-115 -274h367z" />
    <glyph glyph-name="Euro.flat" horiz-adv-x="586" 
d="M511 38q-80 -51 -161 -51q-94 0 -153.5 68t-65.5 191h-99l6 38h92q1 67 20 132h-91l6 38h98q39 104 111.5 169.5t158.5 65.5q95 0 161 -57l-8 -45q-38 33 -73 48t-82 15q-70 0 -129.5 -54.5t-93.5 -141.5h252l-6 -38h-259q-19 -63 -21 -132h259l-6 -38h-252
q6 -105 54 -162.5t125 -57.5q73 0 157 54v-42z" />
    <glyph glyph-name="yen.flat" horiz-adv-x="580" 
d="M452 114h-159l-18 -114h-42l18 114h-163l6 38h163l16 104h-161l6 38h154l-167 382h47l152 -354l261 354h52l-289 -382h152l-6 -38h-158l-17 -104h159z" />
    <glyph glyph-name="numbersign.flat" horiz-adv-x="620" 
d="M405 226l52 224h-198l-52 -224h198zM354 -2l42 188h-198l-42 -188h-39l43 188h-110v40h119l50 224h-126v40h135l43 188h39l-42 -188h198l42 188h39l-43 -188h110v-40h-119l-50 -224h126v-40h-135l-43 -188h-39z" />
    <glyph glyph-name="ordfeminine.flat" horiz-adv-x="356" 
d="M284 454l13 74q-173 -13 -173 -94q0 -22 11.5 -34.5t32.5 -12.5q46 0 116 67zM141 616v38q62 26 111 26q110 0 92 -106l-23 -129l-4 -85h-34v54q-63 -60 -118 -60q-37 0 -59.5 21.5t-22.5 56.5q0 113 219 127l3 15q12 72 -57 72q-43 0 -107 -30zM300 245h-243l6 37h242z
" />
    <glyph glyph-name="ordmasculine.flat" horiz-adv-x="368" 
d="M206 354q-54 0 -84.5 35t-30.5 98q0 77 45 135t112 58q54 0 84.5 -35t30.5 -97q0 -78 -45 -136t-112 -58zM246 643q-48 0 -80.5 -46.5t-32.5 -108.5q0 -51 22 -74t54 -23q48 0 80 46.5t32 108.5q0 51 -21.5 74t-53.5 23zM313 245h-254l6 37h253z" />
    <glyph glyph-name="percent.flat" horiz-adv-x="810" 
d="M199 318q-56 0 -87.5 41t-31.5 110q0 53 19 101.5t51 77.5q39 36 85 36q57 0 88.5 -41.5t31.5 -109.5q0 -109 -66 -175q-40 -40 -90 -40zM131 0l292 368l240 306h47l-261 -329l-271 -345h-47zM200 354q32 0 59 27q53 53 53 155q0 54 -22 83t-56 29q-31 0 -57 -26
q-54 -54 -54 -157q0 -54 21.5 -82.5t55.5 -28.5zM608 -8q-57 0 -88.5 41.5t-31.5 109.5q0 109 65 174q41 41 91 41q56 0 87.5 -41t31.5 -110q0 -109 -66 -175q-40 -40 -89 -40zM609 28q31 0 57 26q54 54 54 157q0 54 -21.5 82.5t-55.5 28.5q-32 0 -58 -26q-54 -54 -54 -156
q0 -54 22 -83t56 -29z" />
    <glyph glyph-name="ampersand.flat" horiz-adv-x="631" 
d="M213 29q116 0 208 128l-145 199q-192 -68 -192 -201q0 -58 36.5 -92t92.5 -34zM535 0l-88 122q-105 -135 -238 -135q-75 0 -123.5 44.5t-48.5 120.5q0 157 214 237q-60 86 -60 154q0 71 48 115.5t122 44.5q71 0 138 -39l-9 -48q-70 45 -132 45q-54 0 -86.5 -32.5
t-32.5 -82.5q0 -60 55 -136l155 -212q53 89 89 206l46 -12q-44 -133 -109 -231l118 -161h-58z" />
    <glyph glyph-name="exclam.flat" horiz-adv-x="254" 
d="M227 690l-96 -508h-25l64 508h57zM132 81l-13 -81h-59l13 81h59z" />
    <glyph glyph-name="exclamdown.flat" horiz-adv-x="254" 
d="M157 609l13 81h59l-13 -81h-59zM62 0l96 508h25l-64 -508h-57z" />
    <glyph glyph-name="question.flat" horiz-adv-x="438" 
d="M206 181h-34l18 167l20 8q94 37 139 84t45 111q0 52 -33.5 81.5t-87.5 29.5q-78 0 -173 -60v46q86 55 177 55q77 0 121 -40.5t44 -108.5q0 -80 -50 -131.5t-153 -100.5zM133 0l12 81h59l-13 -81h-58z" />
    <glyph glyph-name="questiondown.flat" horiz-adv-x="438" 
d="M340 690l-12 -81h-59l13 81h58zM196 -13q-77 0 -121 40.5t-44 108.5q0 80 50 131.5t153 100.5l33 141h34l-18 -167l-20 -8q-94 -37 -139 -84t-45 -111q0 -52 33.5 -81.5t87.5 -29.5q78 0 173 60v-46q-86 -55 -177 -55z" />
    <glyph glyph-name="guillemotleft.flat" horiz-adv-x="503" 
d="M482 470l-182 -239l107 -231h-37l-128 236l201 234h39zM283 470l-182 -239l107 -231h-37l-128 236l201 234h39z" />
    <glyph glyph-name="guillemotright.flat" horiz-adv-x="503" 
d="M21 0l182 239l-107 231h37l128 -236l-201 -234h-39zM220 0l182 239l-107 231h37l128 -236l-201 -234h-39z" />
    <glyph glyph-name="guilsinglleft.flat" horiz-adv-x="304" 
d="M283 470l-182 -239l107 -231h-37l-128 236l201 234h39z" />
    <glyph glyph-name="guilsinglright.flat" horiz-adv-x="304" 
d="M21 0l182 239l-107 231h37l128 -236l-201 -234h-39z" />
    <glyph glyph-name="parenleft.flat" horiz-adv-x="382" 
d="M396 681q-271 -162 -271 -428q0 -171 154 -315l-17 -40q-184 169 -184 349q0 148 77 265.5t249 214.5z" />
    <glyph glyph-name="parenright.flat" horiz-adv-x="383" 
d="M13 -56q271 162 271 428q0 171 -154 315l17 40q184 -169 184 -349q0 -148 -77 -265.5t-249 -214.5z" />
    <glyph glyph-name="bracketleft.flat" horiz-adv-x="369" 
d="M392 690l-6 -37h-175l-115 -722h175l-6 -37h-218l126 796h219z" />
    <glyph glyph-name="bracketright.flat" horiz-adv-x="369" 
d="M-5 -106l6 37h175l115 722h-175l6 37h218l-126 -796h-219z" />
    <glyph glyph-name="braceleft.flat" horiz-adv-x="443" 
d="M453 690l-6 -37h-66q-116 0 -116 -118v-77q0 -79 -32.5 -117t-95.5 -50v-2q84 -16 84 -90q0 -31 -21 -103.5t-21 -98.5q0 -66 86 -66h67l-6 -37h-67q-124 0 -124 100q0 28 21 101t21 101q0 41 -24.5 59.5t-78.5 18.5h-23l5 35h21q143 0 143 144v77q0 78 41.5 119
t121.5 41h70z" />
    <glyph glyph-name="braceright.flat" horiz-adv-x="443" 
d="M8 -106l6 37h66q116 0 116 118v77q0 79 32.5 117t95.5 50v2q-84 16 -84 90q0 31 21 103.5t21 98.5q0 66 -86 66h-67l6 37h67q124 0 124 -100q0 -28 -21 -101t-21 -101q0 -41 24.5 -59.5t78.5 -18.5h23l-5 -35h-21q-143 0 -143 -144v-77q0 -78 -41.5 -119t-121.5 -41h-70z
" />
    <glyph glyph-name="registered.alt_flat" horiz-adv-x="811" 
d="M766 345q0 -158 -94 -258t-249 -100t-250 100.5t-95 257.5q0 158 94.5 258t248.5 100q155 0 250 -100t95 -258zM739 345q0 148 -87 241t-231 93t-229.5 -93t-85.5 -241t86.5 -241t231.5 -93q144 0 229.5 93t85.5 241zM353 509v-150h56q42 0 66.5 20.5t24.5 56.5
q0 35 -22 54t-62 19h-63zM583 154h-50l-126 168h-54v-168h-40v393h104q57 0 91 -30t34 -80q0 -43 -25 -71.5t-66 -38.5z" />
    <glyph glyph-name="registered.flat" horiz-adv-x="569" 
d="M548 465q0 -102 -62.5 -167t-163.5 -65t-164 65.5t-63 168.5q0 101 63 166t164 65t163.5 -65.5t62.5 -167.5zM527 465q0 93 -57 153t-149 60q-91 0 -147.5 -59.5t-56.5 -151.5q0 -94 56.5 -154t148.5 -60q91 0 148 60t57 152zM373 527q0 48 -59 48h-32v-96h31
q28 0 44 12.5t16 35.5zM429 345h-39l-76 107h-31v-107h-31v258h64q41 0 64.5 -20t23.5 -54q0 -55 -57 -72z" />
    <glyph glyph-name="trademark.flat" horiz-adv-x="802" 
d="M340 656h-107v-311h-37v311h-107v34h251v-34zM775 345h-37l-21 286l-114 -287h-31l-112 286l-22 -285h-35l26 345h44l116 -304l116 304h43z" />
    <glyph glyph-name="trademark.alt_flat" horiz-adv-x="802" 
d="M340 656h-107v-311h-37v311h-107v34h251v-34zM761 345h-35v275l-123 -277h-30l-121 277v-275h-35v345h42l130 -306l130 306h42v-345z" />
    <glyph glyph-name="AE.flat" horiz-adv-x="855" 
d="M463 277l60 378l-284 -378h224zM419 0l38 236h-249l-177 -236h-51l519 690h359l-7 -42h-282l-42 -266h225l-7 -42h-225l-48 -298h293l-7 -42h-339z" />
    <glyph glyph-name="OE.flat" horiz-adv-x="869" 
d="M354 0q-138 0 -211 76.5t-73 209.5q0 183 117 300q104 104 257 104h446l-7 -42h-282l-42 -266h225l-7 -42h-225l-48 -298h293l-7 -42h-436zM360 42h98l97 606h-114q-126 0 -215 -87q-106 -106 -106 -275q0 -114 60.5 -179t179.5 -65z" />
    <glyph glyph-name="Eth.flat" horiz-adv-x="650" 
d="M241 0h-175l54 341h-87l7 41h87l49 308h155q138 0 211 -76.5t73 -209.5q0 -183 -117 -300q-104 -104 -257 -104zM120 42h124q126 0 215 87q106 106 106 275q0 114 -60.5 179t-179.5 65h-108l-43 -266h167l-6 -41h-167z" />
    <glyph glyph-name="Dcroat.flat" horiz-adv-x="650" 
d="M241 0h-175l54 341h-87l7 41h87l49 308h155q138 0 211 -76.5t73 -209.5q0 -183 -117 -300q-104 -104 -257 -104zM120 42h124q126 0 215 87q106 106 106 275q0 114 -60.5 179t-179.5 65h-108l-43 -266h167l-6 -41h-167z" />
    <glyph glyph-name="Hbar.flat" horiz-adv-x="678" 
d="M174 382h377l25 157h-377zM167 340l-54 -340h-47l86 539h-88l7 41h87l18 110h47l-17 -110h377l17 110h47l-18 -110h88l-7 -41h-87l-86 -539h-47l54 340h-377z" />
    <glyph glyph-name="Lslash.flat" horiz-adv-x="446" 
d="M379 0h-313l46 290l-95 -49l8 49l95 48l56 352h47l-52 -326l175 90l-8 -49l-175 -89l-44 -274h267z" />
    <glyph glyph-name="Aogonek.flat" 
d="M387 627l-187 -350h264zM557 -165q-24 -8 -46 -8q-63 0 -63 52q0 48 54 98l25 23h-3l-51 236h-295l-125 -236h-51l375 694h39l155 -694h-5l-34 -34q-41 -41 -41 -74q0 -30 35 -30q20 0 36 5z" />
    <glyph glyph-name="Eogonek.flat" horiz-adv-x="476" 
d="M373 -165q-24 -8 -46 -8q-63 0 -63 52q0 48 54 98l25 23h-285l110 690h329l-7 -43h-282l-42 -264h225l-7 -43h-225l-48 -297h293l-7 -43h-15l-34 -34q-41 -41 -41 -74q0 -30 35 -30q20 0 36 5z" />
    <glyph glyph-name="Aring.flat" 
d="M402 675q26 0 42.5 17.5t16.5 44.5t-17 45t-42 18q-26 0 -43 -18t-17 -45t17 -44.5t43 -17.5zM387 627l-187 -350h264zM524 0l-51 236h-295l-125 -236h-51l354 656q-48 25 -48 81q0 39 27 66.5t67 27.5q39 0 66 -27.5t27 -66.5q0 -33 -19 -57t-49 -32l144 -648h-47z" />
    <glyph glyph-name="Aringacute.flat" 
d="M587 999l-160 -140h-40l131 155zM402 675q26 0 42.5 17.5t16.5 44.5t-17 45t-42 18q-26 0 -43 -18t-17 -45t17 -44.5t43 -17.5zM387 627l-187 -350h264zM524 0l-51 236h-295l-125 -236h-51l354 656q-48 25 -48 81q0 39 27 66.5t67 27.5q39 0 66 -27.5t27 -66.5
q0 -33 -19 -57t-49 -32l144 -648h-47z" />
    <glyph glyph-name="Ldot.flat" horiz-adv-x="438" 
d="M371 0h-313l110 690h47l-104 -647h267zM371 307h-67l13 77h67z" />
    <glyph glyph-name="Aacute.flat" 
d="M583 902l-160 -140h-40l131 155zM387 627l-187 -350h264zM524 0l-51 236h-295l-125 -236h-51l375 694h39l155 -694h-47z" />
    <glyph glyph-name="Agrave.flat" 
d="M422 762h-33l-116 140l70 15zM387 627l-187 -350h264zM524 0l-51 236h-295l-125 -236h-51l375 694h39l155 -694h-47z" />
    <glyph glyph-name="Acircumflex.flat" 
d="M532 752h-26l-86 96l-110 -96h-34l132 149h42zM387 627l-187 -350h264zM524 0l-51 236h-295l-125 -236h-51l375 694h39l155 -694h-47z" />
    <glyph glyph-name="Abreve.flat" 
d="M550 876q-14 -45 -50 -77t-92 -32t-82 32t-24 77l36 5q4 -32 24.5 -49.5t53.5 -17.5q68 0 100 67zM387 627l-187 -350h264zM524 0l-51 236h-295l-125 -236h-51l375 694h39l155 -694h-47z" />
    <glyph glyph-name="Atilde.flat" 
d="M571 866q-17 -46 -40.5 -70.5t-49.5 -24.5q-29 0 -72 27q-42 27 -59 27q-26 0 -48 -55l-33 7q17 46 40.5 70.5t49.5 24.5q29 0 72 -27q42 -27 59 -27q26 0 48 55zM387 627l-187 -350h264zM524 0l-51 236h-295l-125 -236h-51l375 694h39l155 -694h-47z" />
    <glyph glyph-name="Amacron.flat" 
d="M540 793h-255l7 43h255zM387 627l-187 -350h264zM524 0l-51 236h-295l-125 -236h-51l375 694h39l155 -694h-47z" />
    <glyph glyph-name="Adieresis.flat" 
d="M361 776h-69l13 79h69zM528 776h-70l13 79h70zM387 627l-187 -350h264zM524 0l-51 236h-295l-125 -236h-51l375 694h39l155 -694h-47z" />
    <glyph glyph-name="Eacute.flat" horiz-adv-x="476" 
d="M517 892l-160 -140h-40l131 155zM497 690l-7 -43h-282l-42 -264h225l-7 -43h-225l-48 -297h293l-7 -43h-339l110 690h329z" />
    <glyph glyph-name="Egrave.flat" horiz-adv-x="476" 
d="M356 752h-33l-116 140l70 15zM497 690l-7 -43h-282l-42 -264h225l-7 -43h-225l-48 -297h293l-7 -43h-339l110 690h329z" />
    <glyph glyph-name="Ecircumflex.flat" horiz-adv-x="476" 
d="M468 752h-26l-86 96l-110 -96h-34l132 149h42zM497 690l-7 -43h-282l-42 -264h225l-7 -43h-225l-48 -297h293l-7 -43h-339l110 690h329z" />
    <glyph glyph-name="Ecaron.flat" horiz-adv-x="476" 
d="M237 901h26l86 -96l110 96h34l-132 -149h-42zM497 690l-7 -43h-282l-42 -264h225l-7 -43h-225l-48 -297h293l-7 -43h-339l110 690h329z" />
    <glyph glyph-name="Ebreve.flat" horiz-adv-x="476" 
d="M483 866q-14 -45 -50 -77t-92 -32t-82 32t-24 77l36 5q4 -32 24.5 -49.5t53.5 -17.5q68 0 100 67zM497 690l-7 -43h-282l-42 -264h225l-7 -43h-225l-48 -297h293l-7 -43h-339l110 690h329z" />
    <glyph glyph-name="Emacron.flat" horiz-adv-x="476" 
d="M474 783h-255l7 43h255zM497 690l-7 -43h-282l-42 -264h225l-7 -43h-225l-48 -297h293l-7 -43h-339l110 690h329z" />
    <glyph glyph-name="Edieresis.flat" horiz-adv-x="476" 
d="M295 766h-69l13 79h69zM462 766h-70l13 79h70zM497 690l-7 -43h-282l-42 -264h225l-7 -43h-225l-48 -297h293l-7 -43h-339l110 690h329z" />
    <glyph glyph-name="Edotaccent.flat" horiz-adv-x="476" 
d="M378 761h-71l13 81h71zM497 690l-7 -43h-282l-42 -264h225l-7 -43h-225l-48 -297h293l-7 -43h-339l110 690h329z" />
    <glyph glyph-name="Gbreve.flat" horiz-adv-x="625" 
d="M563 876q-14 -45 -50 -77t-92 -32t-82 32t-24 77l36 5q4 -32 24.5 -49.5t53.5 -17.5q68 0 100 67zM572 350l-50 -303q-96 -59 -195 -59q-115 0 -186.5 81t-71.5 210q0 111 43.5 208t122 156t172.5 59q104 0 176 -60l-9 -53q-75 70 -166 70q-81 0 -148 -52.5t-104 -139.5
t-37 -188q0 -113 59.5 -181t151.5 -68q84 0 149 40l39 238h-179l7 42h226z" />
    <glyph glyph-name="Gdotaccent.flat" horiz-adv-x="625" 
d="M458 771h-71l13 81h71zM572 350l-50 -303q-96 -59 -195 -59q-115 0 -186.5 81t-71.5 210q0 111 43.5 208t122 156t172.5 59q104 0 176 -60l-9 -53q-75 70 -166 70q-81 0 -148 -52.5t-104 -139.5t-37 -188q0 -113 59.5 -181t151.5 -68q84 0 149 40l39 238h-179l7 42h226z
" />
    <glyph glyph-name="Gcommaaccent.flat" horiz-adv-x="625" 
d="M572 350l-50 -303q-96 -59 -195 -59q-115 0 -186.5 81t-71.5 210q0 111 43.5 208t122 156t172.5 59q104 0 176 -60l-9 -53q-75 70 -166 70q-81 0 -148 -52.5t-104 -139.5t-37 -188q0 -113 59.5 -181t151.5 -68q84 0 149 40l39 238h-179l7 42h226zM242 -87l44 21
q37 -29 37 -67q0 -59 -92 -124l-32 4q78 65 78 108q0 27 -35 58z" />
    <glyph glyph-name="Kcommaaccent.flat" horiz-adv-x="565" 
d="M598 690l-381 -324l297 -366h-61l-291 361l-57 -361h-47l110 690h47l-51 -318l369 318h65zM204 -87l44 21q37 -29 37 -67q0 -59 -92 -124l-32 4q78 65 78 108q0 27 -35 58z" />
    <glyph glyph-name="Lacute.flat" horiz-adv-x="438" 
d="M387 882l-160 -140h-40l131 155zM371 0h-313l110 690h47l-104 -647h267z" />
    <glyph glyph-name="Lcaron.flat" horiz-adv-x="438" 
d="M344 694q10 -27 10 -50q0 -73 -81 -138l-23 5q54 61 54 115q0 22 -10 57zM371 0h-313l110 690h47l-104 -647h267z" />
    <glyph glyph-name="Lcommaaccent.flat" horiz-adv-x="438" 
d="M371 0h-313l110 690h47l-104 -647h267zM154 -87l44 21q37 -29 37 -67q0 -59 -92 -124l-32 4q78 65 78 108q0 27 -35 58z" />
    <glyph glyph-name="Racute.flat" horiz-adv-x="534" 
d="M499 892l-160 -140h-40l131 155zM447 521q0 127 -156 127h-83l-47 -295h91q88 0 141.5 47.5t53.5 120.5zM495 523q0 -81 -52 -136t-138 -69l179 -318h-54l-177 311h-99l-49 -311h-47l110 690h128q94 0 146.5 -43.5t52.5 -123.5z" />
    <glyph glyph-name="Rcaron.flat" horiz-adv-x="534" 
d="M220 901h26l86 -96l110 96h34l-132 -149h-42zM447 521q0 127 -156 127h-83l-47 -295h91q88 0 141.5 47.5t53.5 120.5zM495 523q0 -81 -52 -136t-138 -69l179 -318h-54l-177 311h-99l-49 -311h-47l110 690h128q94 0 146.5 -43.5t52.5 -123.5z" />
    <glyph glyph-name="Rcommaaccent.flat" horiz-adv-x="534" 
d="M447 521q0 127 -156 127h-83l-47 -295h91q88 0 141.5 47.5t53.5 120.5zM495 523q0 -81 -52 -136t-138 -69l179 -318h-54l-177 311h-99l-49 -311h-47l110 690h128q94 0 146.5 -43.5t52.5 -123.5zM188 -87l44 21q37 -29 37 -67q0 -59 -92 -124l-32 4q78 65 78 108
q0 27 -35 58z" />
    <glyph glyph-name="Tcaron.flat" horiz-adv-x="524" 
d="M242 901h26l86 -96l110 96h34l-132 -149h-42zM560 647h-207l-103 -647h-47l103 647h-211l7 43h465z" />
    <glyph glyph-name="Tcommaaccent.flat" horiz-adv-x="524" 
d="M560 647h-207l-103 -647h-47l103 647h-211l7 43h465zM169 -87l44 21q37 -29 37 -67q0 -59 -92 -124l-32 4q78 65 78 108q0 27 -35 58z" />
    <glyph glyph-name="Wacute.flat" horiz-adv-x="985" 
d="M749 892l-160 -140h-40l131 155zM1009 690l-315 -690h-35l-107 618l-301 -618h-35l-95 690h49l78 -609l292 609h46l102 -609l271 609h50z" />
    <glyph glyph-name="Wgrave.flat" horiz-adv-x="985" 
d="M588 752h-33l-116 140l70 15zM1009 690l-315 -690h-35l-107 618l-301 -618h-35l-95 690h49l78 -609l292 609h46l102 -609l271 609h50z" />
    <glyph glyph-name="Wcircumflex.flat" horiz-adv-x="985" 
d="M701 752h-26l-86 96l-110 -96h-34l132 149h42zM1009 690l-315 -690h-35l-107 618l-301 -618h-35l-95 690h49l78 -609l292 609h46l102 -609l271 609h50z" />
    <glyph glyph-name="Wdieresis.flat" horiz-adv-x="985" 
d="M527 766h-69l13 79h69zM694 766h-70l13 79h70zM1009 690l-315 -690h-35l-107 618l-301 -618h-35l-95 690h49l78 -609l292 609h46l102 -609l271 609h50z" />
    <glyph glyph-name="Wacute.alt_flat" horiz-adv-x="964" 
d="M715 892l-160 -140h-40l131 155zM597 -4l-89 429l-221 -429h-34l-144 694h49l123 -622l214 421l-42 201h49l123 -622l320 622h51l-365 -694h-34z" />
    <glyph glyph-name="Wgrave.alt_flat" horiz-adv-x="964" 
d="M554 752h-33l-116 140l70 15zM597 -4l-89 429l-221 -429h-34l-144 694h49l123 -622l214 421l-42 201h49l123 -622l320 622h51l-365 -694h-34z" />
    <glyph glyph-name="Wcircumflex.alt_flat" horiz-adv-x="964" 
d="M666 752h-26l-86 96l-110 -96h-34l132 149h42zM597 -4l-89 429l-221 -429h-34l-144 694h49l123 -622l214 421l-42 201h49l123 -622l320 622h51l-365 -694h-34z" />
    <glyph glyph-name="Wdieresis.alt_flat" horiz-adv-x="964" 
d="M493 766h-69l13 79h69zM660 766h-70l13 79h70zM597 -4l-89 429l-221 -429h-34l-144 694h49l123 -622l214 421l-42 201h49l123 -622l320 622h51l-365 -694h-34z" />
    <glyph glyph-name="Yacute.flat" horiz-adv-x="576" 
d="M545 892l-160 -140h-40l131 155zM617 690l-294 -393l-47 -297h-47l47 296l-170 394h51l148 -354l258 354h54z" />
    <glyph glyph-name="Ygrave.flat" horiz-adv-x="576" 
d="M384 752h-33l-116 140l70 15zM617 690l-294 -393l-47 -297h-47l47 296l-170 394h51l148 -354l258 354h54z" />
    <glyph glyph-name="Ycircumflex.flat" horiz-adv-x="576" 
d="M497 752h-26l-86 96l-110 -96h-34l132 149h42zM617 690l-294 -393l-47 -297h-47l47 296l-170 394h51l148 -354l258 354h54z" />
    </font>
</defs>
</svg>
